%TF.GenerationSoftware,KiCad,Pcbnew,(5.1.10)-1*%
%TF.CreationDate,2021-11-03T12:27:00+01:00*%
%TF.ProjectId,airQualityV2,61697251-7561-46c6-9974-7956322e6b69,rev?*%
%TF.SameCoordinates,Original*%
%TF.FileFunction,Soldermask,Top*%
%TF.FilePolarity,Negative*%
%FSLAX46Y46*%
G04 Gerber Fmt 4.6, Leading zero omitted, Abs format (unit mm)*
G04 Created by KiCad (PCBNEW (5.1.10)-1) date 2021-11-03 12:27:00*
%MOMM*%
%LPD*%
G01*
G04 APERTURE LIST*
%ADD10O,1.700000X1.700000*%
%ADD11R,1.700000X1.700000*%
%ADD12O,1.400000X1.400000*%
%ADD13C,1.400000*%
%ADD14C,1.800000*%
%ADD15R,1.800000X1.800000*%
%ADD16C,1.524000*%
%ADD17R,1.524000X1.524000*%
%ADD18C,1.300000*%
G04 APERTURE END LIST*
D10*
%TO.C,J3*%
X174880000Y-107710000D03*
X174880000Y-105170000D03*
X174880000Y-102630000D03*
D11*
X174880000Y-100090000D03*
%TD*%
D12*
%TO.C,R6*%
X132080000Y-93980000D03*
D13*
X132080000Y-99060000D03*
%TD*%
D14*
%TO.C,D6*%
X137160000Y-95250000D03*
D15*
X134620000Y-95250000D03*
%TD*%
D12*
%TO.C,R5*%
X132080000Y-109220000D03*
D13*
X132080000Y-114300000D03*
%TD*%
D12*
%TO.C,R4*%
X132080000Y-86360000D03*
D13*
X132080000Y-91440000D03*
%TD*%
D12*
%TO.C,R3*%
X132080000Y-101600000D03*
D13*
X132080000Y-106680000D03*
%TD*%
D12*
%TO.C,R2*%
X132080000Y-78740000D03*
D13*
X132080000Y-83820000D03*
%TD*%
D12*
%TO.C,R1*%
X132080000Y-116840000D03*
D13*
X132080000Y-121920000D03*
%TD*%
D14*
%TO.C,D5*%
X137160000Y-80010000D03*
D15*
X134620000Y-80010000D03*
%TD*%
D14*
%TO.C,D4*%
X137160000Y-102870000D03*
D15*
X134620000Y-102870000D03*
%TD*%
D14*
%TO.C,D3*%
X137160000Y-110490000D03*
D15*
X134620000Y-110490000D03*
%TD*%
D14*
%TO.C,D2*%
X137160000Y-118110000D03*
D15*
X134620000Y-118110000D03*
%TD*%
D14*
%TO.C,D1*%
X137160000Y-87630000D03*
D15*
X134620000Y-87630000D03*
%TD*%
D16*
%TO.C,U1*%
X167640000Y-80010000D03*
X167640000Y-82550000D03*
X167640000Y-85090000D03*
X167640000Y-87630000D03*
X167640000Y-90170000D03*
X167640000Y-92710000D03*
X167640000Y-95250000D03*
X167640000Y-97790000D03*
X167640000Y-100330000D03*
X167640000Y-102870000D03*
X167640000Y-105410000D03*
X167640000Y-107950000D03*
X167640000Y-110490000D03*
X167640000Y-113030000D03*
X167640000Y-115570000D03*
X142240000Y-115570000D03*
X142240000Y-113030000D03*
X142240000Y-110490000D03*
X142240000Y-107950000D03*
X142240000Y-105410000D03*
X142240000Y-102870000D03*
X142240000Y-100330000D03*
X142240000Y-97790000D03*
X142240000Y-95250000D03*
X142240000Y-92710000D03*
X142240000Y-90170000D03*
X142240000Y-87630000D03*
X142240000Y-85090000D03*
X142240000Y-82550000D03*
D17*
X142240000Y-80010000D03*
%TD*%
D18*
%TO.C,RH1*%
X172650000Y-113410000D03*
X172650000Y-115950000D03*
X172650000Y-118490000D03*
X172650000Y-121030000D03*
%TD*%
D10*
%TO.C,J2*%
X174800000Y-93930000D03*
X174800000Y-91390000D03*
X174800000Y-88850000D03*
X174800000Y-86310000D03*
X174800000Y-83770000D03*
X174800000Y-81230000D03*
X174800000Y-78690000D03*
D11*
X174800000Y-76150000D03*
%TD*%
D10*
%TO.C,J1*%
X171040000Y-102950000D03*
X171040000Y-100410000D03*
X171040000Y-97870000D03*
D11*
X171040000Y-95330000D03*
%TD*%
M02*
