%TF.GenerationSoftware,KiCad,Pcbnew,(5.1.10)-1*%
%TF.CreationDate,2021-11-03T12:27:00+01:00*%
%TF.ProjectId,airQualityV2,61697251-7561-46c6-9974-7956322e6b69,rev?*%
%TF.SameCoordinates,Original*%
%TF.FileFunction,Copper,L1,Top*%
%TF.FilePolarity,Positive*%
%FSLAX46Y46*%
G04 Gerber Fmt 4.6, Leading zero omitted, Abs format (unit mm)*
G04 Created by KiCad (PCBNEW (5.1.10)-1) date 2021-11-03 12:27:00*
%MOMM*%
%LPD*%
G01*
G04 APERTURE LIST*
%TA.AperFunction,ComponentPad*%
%ADD10O,1.700000X1.700000*%
%TD*%
%TA.AperFunction,ComponentPad*%
%ADD11R,1.700000X1.700000*%
%TD*%
%TA.AperFunction,ComponentPad*%
%ADD12O,1.400000X1.400000*%
%TD*%
%TA.AperFunction,ComponentPad*%
%ADD13C,1.400000*%
%TD*%
%TA.AperFunction,ComponentPad*%
%ADD14C,1.800000*%
%TD*%
%TA.AperFunction,ComponentPad*%
%ADD15R,1.800000X1.800000*%
%TD*%
%TA.AperFunction,ComponentPad*%
%ADD16C,1.524000*%
%TD*%
%TA.AperFunction,ComponentPad*%
%ADD17R,1.524000X1.524000*%
%TD*%
%TA.AperFunction,ComponentPad*%
%ADD18C,1.300000*%
%TD*%
%TA.AperFunction,Conductor*%
%ADD19C,0.250000*%
%TD*%
G04 APERTURE END LIST*
D10*
%TO.P,J3,4*%
%TO.N,MQ7A*%
X174880000Y-107710000D03*
%TO.P,J3,3*%
%TO.N,Net-(J3-Pad3)*%
X174880000Y-105170000D03*
%TO.P,J3,2*%
%TO.N,GND*%
X174880000Y-102630000D03*
D11*
%TO.P,J3,1*%
%TO.N,+3V3*%
X174880000Y-100090000D03*
%TD*%
D12*
%TO.P,R6,2*%
%TO.N,Net-(D6-Pad1)*%
X132080000Y-93980000D03*
D13*
%TO.P,R6,1*%
%TO.N,GND*%
X132080000Y-99060000D03*
%TD*%
D14*
%TO.P,D6,2*%
%TO.N,Net-(D6-Pad2)*%
X137160000Y-95250000D03*
D15*
%TO.P,D6,1*%
%TO.N,Net-(D6-Pad1)*%
X134620000Y-95250000D03*
%TD*%
D12*
%TO.P,R5,2*%
%TO.N,Net-(D3-Pad1)*%
X132080000Y-109220000D03*
D13*
%TO.P,R5,1*%
%TO.N,GND*%
X132080000Y-114300000D03*
%TD*%
D12*
%TO.P,R4,2*%
%TO.N,Net-(D1-Pad1)*%
X132080000Y-86360000D03*
D13*
%TO.P,R4,1*%
%TO.N,GND*%
X132080000Y-91440000D03*
%TD*%
D12*
%TO.P,R3,2*%
%TO.N,Net-(D4-Pad1)*%
X132080000Y-101600000D03*
D13*
%TO.P,R3,1*%
%TO.N,GND*%
X132080000Y-106680000D03*
%TD*%
D12*
%TO.P,R2,2*%
%TO.N,Net-(D5-Pad1)*%
X132080000Y-78740000D03*
D13*
%TO.P,R2,1*%
%TO.N,GND*%
X132080000Y-83820000D03*
%TD*%
D12*
%TO.P,R1,2*%
%TO.N,Net-(D2-Pad1)*%
X132080000Y-116840000D03*
D13*
%TO.P,R1,1*%
%TO.N,GND*%
X132080000Y-121920000D03*
%TD*%
D14*
%TO.P,D5,2*%
%TO.N,Net-(D5-Pad2)*%
X137160000Y-80010000D03*
D15*
%TO.P,D5,1*%
%TO.N,Net-(D5-Pad1)*%
X134620000Y-80010000D03*
%TD*%
D14*
%TO.P,D4,2*%
%TO.N,Net-(D4-Pad2)*%
X137160000Y-102870000D03*
D15*
%TO.P,D4,1*%
%TO.N,Net-(D4-Pad1)*%
X134620000Y-102870000D03*
%TD*%
D14*
%TO.P,D3,2*%
%TO.N,Net-(D3-Pad2)*%
X137160000Y-110490000D03*
D15*
%TO.P,D3,1*%
%TO.N,Net-(D3-Pad1)*%
X134620000Y-110490000D03*
%TD*%
D14*
%TO.P,D2,2*%
%TO.N,Net-(D2-Pad2)*%
X137160000Y-118110000D03*
D15*
%TO.P,D2,1*%
%TO.N,Net-(D2-Pad1)*%
X134620000Y-118110000D03*
%TD*%
D14*
%TO.P,D1,2*%
%TO.N,Net-(D1-Pad2)*%
X137160000Y-87630000D03*
D15*
%TO.P,D1,1*%
%TO.N,Net-(D1-Pad1)*%
X134620000Y-87630000D03*
%TD*%
D16*
%TO.P,U1,30*%
%TO.N,Net-(U1-Pad30)*%
X167640000Y-80010000D03*
%TO.P,U1,29*%
%TO.N,scl*%
X167640000Y-82550000D03*
%TO.P,U1,28*%
%TO.N,Net-(U1-Pad28)*%
X167640000Y-85090000D03*
%TO.P,U1,27*%
%TO.N,Net-(U1-Pad27)*%
X167640000Y-87630000D03*
%TO.P,U1,26*%
%TO.N,sda*%
X167640000Y-90170000D03*
%TO.P,U1,25*%
%TO.N,Net-(U1-Pad25)*%
X167640000Y-92710000D03*
%TO.P,U1,24*%
%TO.N,Net-(U1-Pad24)*%
X167640000Y-95250000D03*
%TO.P,U1,23*%
%TO.N,Net-(U1-Pad23)*%
X167640000Y-97790000D03*
%TO.P,U1,22*%
%TO.N,Net-(J1-Pad3)*%
X167640000Y-100330000D03*
%TO.P,U1,21*%
%TO.N,Net-(J1-Pad4)*%
X167640000Y-102870000D03*
%TO.P,U1,20*%
%TO.N,Net-(U1-Pad20)*%
X167640000Y-105410000D03*
%TO.P,U1,19*%
%TO.N,Net-(U1-Pad19)*%
X167640000Y-107950000D03*
%TO.P,U1,18*%
%TO.N,Net-(U1-Pad18)*%
X167640000Y-110490000D03*
%TO.P,U1,17*%
%TO.N,GND*%
X167640000Y-113030000D03*
%TO.P,U1,16*%
%TO.N,+3V3*%
X167640000Y-115570000D03*
%TO.P,U1,15*%
%TO.N,+5V*%
X142240000Y-115570000D03*
%TO.P,U1,14*%
%TO.N,GND*%
X142240000Y-113030000D03*
%TO.P,U1,13*%
%TO.N,Net-(U1-Pad13)*%
X142240000Y-110490000D03*
%TO.P,U1,12*%
%TO.N,Net-(U1-Pad12)*%
X142240000Y-107950000D03*
%TO.P,U1,11*%
%TO.N,Net-(D2-Pad2)*%
X142240000Y-105410000D03*
%TO.P,U1,10*%
%TO.N,Net-(D3-Pad2)*%
X142240000Y-102870000D03*
%TO.P,U1,9*%
%TO.N,Net-(D4-Pad2)*%
X142240000Y-100330000D03*
%TO.P,U1,8*%
%TO.N,Net-(D6-Pad2)*%
X142240000Y-97790000D03*
%TO.P,U1,7*%
%TO.N,Net-(D1-Pad2)*%
X142240000Y-95250000D03*
%TO.P,U1,6*%
%TO.N,Net-(D5-Pad2)*%
X142240000Y-92710000D03*
%TO.P,U1,5*%
%TO.N,Net-(U1-Pad5)*%
X142240000Y-90170000D03*
%TO.P,U1,4*%
%TO.N,MQ7A*%
X142240000Y-87630000D03*
%TO.P,U1,3*%
%TO.N,Net-(U1-Pad3)*%
X142240000Y-85090000D03*
%TO.P,U1,2*%
%TO.N,Net-(U1-Pad2)*%
X142240000Y-82550000D03*
D17*
%TO.P,U1,1*%
%TO.N,Net-(U1-Pad1)*%
X142240000Y-80010000D03*
%TD*%
D18*
%TO.P,RH1,4*%
%TO.N,scl*%
X172650000Y-113410000D03*
%TO.P,RH1,3*%
%TO.N,GND*%
X172650000Y-115950000D03*
%TO.P,RH1,2*%
%TO.N,sda*%
X172650000Y-118490000D03*
%TO.P,RH1,1*%
%TO.N,+5V*%
X172650000Y-121030000D03*
%TD*%
D10*
%TO.P,J2,8*%
%TO.N,Net-(J2-Pad8)*%
X174800000Y-93930000D03*
%TO.P,J2,7*%
%TO.N,Net-(J2-Pad7)*%
X174800000Y-91390000D03*
%TO.P,J2,6*%
%TO.N,Net-(J2-Pad6)*%
X174800000Y-88850000D03*
%TO.P,J2,5*%
%TO.N,Net-(J2-Pad5)*%
X174800000Y-86310000D03*
%TO.P,J2,4*%
%TO.N,scl*%
X174800000Y-83770000D03*
%TO.P,J2,3*%
%TO.N,sda*%
X174800000Y-81230000D03*
%TO.P,J2,2*%
%TO.N,GND*%
X174800000Y-78690000D03*
D11*
%TO.P,J2,1*%
%TO.N,+3V3*%
X174800000Y-76150000D03*
%TD*%
D10*
%TO.P,J1,4*%
%TO.N,Net-(J1-Pad4)*%
X171040000Y-102950000D03*
%TO.P,J1,3*%
%TO.N,Net-(J1-Pad3)*%
X171040000Y-100410000D03*
%TO.P,J1,2*%
%TO.N,Net-(J1-Pad2)*%
X171040000Y-97870000D03*
D11*
%TO.P,J1,1*%
%TO.N,Net-(J1-Pad1)*%
X171040000Y-95330000D03*
%TD*%
D19*
%TO.N,scl*%
X172650000Y-83770000D02*
X168860000Y-83770000D01*
X168860000Y-83770000D02*
X167640000Y-82550000D01*
X174800000Y-83770000D02*
X172650000Y-83770000D01*
X172650000Y-83770000D02*
X172650000Y-113410000D01*
%TO.N,sda*%
X167640000Y-90170000D02*
X169321200Y-91851200D01*
X169321200Y-91851200D02*
X169321200Y-115161200D01*
X169321200Y-115161200D02*
X172650000Y-118490000D01*
%TO.N,+3V3*%
X174880000Y-100090000D02*
X174880000Y-98914700D01*
X174800000Y-76150000D02*
X174800000Y-77325300D01*
X174800000Y-77325300D02*
X175167300Y-77325300D01*
X175167300Y-77325300D02*
X175998900Y-78156900D01*
X175998900Y-78156900D02*
X175998900Y-97795800D01*
X175998900Y-97795800D02*
X174880000Y-98914700D01*
%TO.N,Net-(D2-Pad2)*%
X142240000Y-105410000D02*
X139797600Y-107852400D01*
X139797600Y-107852400D02*
X139797600Y-115472400D01*
X139797600Y-115472400D02*
X137160000Y-118110000D01*
%TO.N,Net-(D5-Pad2)*%
X142240000Y-92710000D02*
X139797600Y-90267600D01*
X139797600Y-90267600D02*
X139797600Y-82647600D01*
X139797600Y-82647600D02*
X137160000Y-80010000D01*
%TD*%
M02*
