%TF.GenerationSoftware,KiCad,Pcbnew,(5.1.10)-1*%
%TF.CreationDate,2021-11-03T12:27:00+01:00*%
%TF.ProjectId,airQualityV2,61697251-7561-46c6-9974-7956322e6b69,rev?*%
%TF.SameCoordinates,Original*%
%TF.FileFunction,Copper,L2,Bot*%
%TF.FilePolarity,Positive*%
%FSLAX46Y46*%
G04 Gerber Fmt 4.6, Leading zero omitted, Abs format (unit mm)*
G04 Created by KiCad (PCBNEW (5.1.10)-1) date 2021-11-03 12:27:00*
%MOMM*%
%LPD*%
G01*
G04 APERTURE LIST*
%TA.AperFunction,ComponentPad*%
%ADD10O,1.700000X1.700000*%
%TD*%
%TA.AperFunction,ComponentPad*%
%ADD11R,1.700000X1.700000*%
%TD*%
%TA.AperFunction,ComponentPad*%
%ADD12O,1.400000X1.400000*%
%TD*%
%TA.AperFunction,ComponentPad*%
%ADD13C,1.400000*%
%TD*%
%TA.AperFunction,ComponentPad*%
%ADD14C,1.800000*%
%TD*%
%TA.AperFunction,ComponentPad*%
%ADD15R,1.800000X1.800000*%
%TD*%
%TA.AperFunction,ComponentPad*%
%ADD16C,1.524000*%
%TD*%
%TA.AperFunction,ComponentPad*%
%ADD17R,1.524000X1.524000*%
%TD*%
%TA.AperFunction,ComponentPad*%
%ADD18C,1.300000*%
%TD*%
%TA.AperFunction,Conductor*%
%ADD19C,0.250000*%
%TD*%
%TA.AperFunction,Conductor*%
%ADD20C,0.254000*%
%TD*%
%TA.AperFunction,Conductor*%
%ADD21C,0.100000*%
%TD*%
G04 APERTURE END LIST*
D10*
%TO.P,J3,4*%
%TO.N,MQ7A*%
X174880000Y-107710000D03*
%TO.P,J3,3*%
%TO.N,Net-(J3-Pad3)*%
X174880000Y-105170000D03*
%TO.P,J3,2*%
%TO.N,GND*%
X174880000Y-102630000D03*
D11*
%TO.P,J3,1*%
%TO.N,+3V3*%
X174880000Y-100090000D03*
%TD*%
D12*
%TO.P,R6,2*%
%TO.N,Net-(D6-Pad1)*%
X132080000Y-93980000D03*
D13*
%TO.P,R6,1*%
%TO.N,GND*%
X132080000Y-99060000D03*
%TD*%
D14*
%TO.P,D6,2*%
%TO.N,Net-(D6-Pad2)*%
X137160000Y-95250000D03*
D15*
%TO.P,D6,1*%
%TO.N,Net-(D6-Pad1)*%
X134620000Y-95250000D03*
%TD*%
D12*
%TO.P,R5,2*%
%TO.N,Net-(D3-Pad1)*%
X132080000Y-109220000D03*
D13*
%TO.P,R5,1*%
%TO.N,GND*%
X132080000Y-114300000D03*
%TD*%
D12*
%TO.P,R4,2*%
%TO.N,Net-(D1-Pad1)*%
X132080000Y-86360000D03*
D13*
%TO.P,R4,1*%
%TO.N,GND*%
X132080000Y-91440000D03*
%TD*%
D12*
%TO.P,R3,2*%
%TO.N,Net-(D4-Pad1)*%
X132080000Y-101600000D03*
D13*
%TO.P,R3,1*%
%TO.N,GND*%
X132080000Y-106680000D03*
%TD*%
D12*
%TO.P,R2,2*%
%TO.N,Net-(D5-Pad1)*%
X132080000Y-78740000D03*
D13*
%TO.P,R2,1*%
%TO.N,GND*%
X132080000Y-83820000D03*
%TD*%
D12*
%TO.P,R1,2*%
%TO.N,Net-(D2-Pad1)*%
X132080000Y-116840000D03*
D13*
%TO.P,R1,1*%
%TO.N,GND*%
X132080000Y-121920000D03*
%TD*%
D14*
%TO.P,D5,2*%
%TO.N,Net-(D5-Pad2)*%
X137160000Y-80010000D03*
D15*
%TO.P,D5,1*%
%TO.N,Net-(D5-Pad1)*%
X134620000Y-80010000D03*
%TD*%
D14*
%TO.P,D4,2*%
%TO.N,Net-(D4-Pad2)*%
X137160000Y-102870000D03*
D15*
%TO.P,D4,1*%
%TO.N,Net-(D4-Pad1)*%
X134620000Y-102870000D03*
%TD*%
D14*
%TO.P,D3,2*%
%TO.N,Net-(D3-Pad2)*%
X137160000Y-110490000D03*
D15*
%TO.P,D3,1*%
%TO.N,Net-(D3-Pad1)*%
X134620000Y-110490000D03*
%TD*%
D14*
%TO.P,D2,2*%
%TO.N,Net-(D2-Pad2)*%
X137160000Y-118110000D03*
D15*
%TO.P,D2,1*%
%TO.N,Net-(D2-Pad1)*%
X134620000Y-118110000D03*
%TD*%
D14*
%TO.P,D1,2*%
%TO.N,Net-(D1-Pad2)*%
X137160000Y-87630000D03*
D15*
%TO.P,D1,1*%
%TO.N,Net-(D1-Pad1)*%
X134620000Y-87630000D03*
%TD*%
D16*
%TO.P,U1,30*%
%TO.N,Net-(U1-Pad30)*%
X167640000Y-80010000D03*
%TO.P,U1,29*%
%TO.N,scl*%
X167640000Y-82550000D03*
%TO.P,U1,28*%
%TO.N,Net-(U1-Pad28)*%
X167640000Y-85090000D03*
%TO.P,U1,27*%
%TO.N,Net-(U1-Pad27)*%
X167640000Y-87630000D03*
%TO.P,U1,26*%
%TO.N,sda*%
X167640000Y-90170000D03*
%TO.P,U1,25*%
%TO.N,Net-(U1-Pad25)*%
X167640000Y-92710000D03*
%TO.P,U1,24*%
%TO.N,Net-(U1-Pad24)*%
X167640000Y-95250000D03*
%TO.P,U1,23*%
%TO.N,Net-(U1-Pad23)*%
X167640000Y-97790000D03*
%TO.P,U1,22*%
%TO.N,Net-(J1-Pad3)*%
X167640000Y-100330000D03*
%TO.P,U1,21*%
%TO.N,Net-(J1-Pad4)*%
X167640000Y-102870000D03*
%TO.P,U1,20*%
%TO.N,Net-(U1-Pad20)*%
X167640000Y-105410000D03*
%TO.P,U1,19*%
%TO.N,Net-(U1-Pad19)*%
X167640000Y-107950000D03*
%TO.P,U1,18*%
%TO.N,Net-(U1-Pad18)*%
X167640000Y-110490000D03*
%TO.P,U1,17*%
%TO.N,GND*%
X167640000Y-113030000D03*
%TO.P,U1,16*%
%TO.N,+3V3*%
X167640000Y-115570000D03*
%TO.P,U1,15*%
%TO.N,+5V*%
X142240000Y-115570000D03*
%TO.P,U1,14*%
%TO.N,GND*%
X142240000Y-113030000D03*
%TO.P,U1,13*%
%TO.N,Net-(U1-Pad13)*%
X142240000Y-110490000D03*
%TO.P,U1,12*%
%TO.N,Net-(U1-Pad12)*%
X142240000Y-107950000D03*
%TO.P,U1,11*%
%TO.N,Net-(D2-Pad2)*%
X142240000Y-105410000D03*
%TO.P,U1,10*%
%TO.N,Net-(D3-Pad2)*%
X142240000Y-102870000D03*
%TO.P,U1,9*%
%TO.N,Net-(D4-Pad2)*%
X142240000Y-100330000D03*
%TO.P,U1,8*%
%TO.N,Net-(D6-Pad2)*%
X142240000Y-97790000D03*
%TO.P,U1,7*%
%TO.N,Net-(D1-Pad2)*%
X142240000Y-95250000D03*
%TO.P,U1,6*%
%TO.N,Net-(D5-Pad2)*%
X142240000Y-92710000D03*
%TO.P,U1,5*%
%TO.N,Net-(U1-Pad5)*%
X142240000Y-90170000D03*
%TO.P,U1,4*%
%TO.N,MQ7A*%
X142240000Y-87630000D03*
%TO.P,U1,3*%
%TO.N,Net-(U1-Pad3)*%
X142240000Y-85090000D03*
%TO.P,U1,2*%
%TO.N,Net-(U1-Pad2)*%
X142240000Y-82550000D03*
D17*
%TO.P,U1,1*%
%TO.N,Net-(U1-Pad1)*%
X142240000Y-80010000D03*
%TD*%
D18*
%TO.P,RH1,4*%
%TO.N,scl*%
X172650000Y-113410000D03*
%TO.P,RH1,3*%
%TO.N,GND*%
X172650000Y-115950000D03*
%TO.P,RH1,2*%
%TO.N,sda*%
X172650000Y-118490000D03*
%TO.P,RH1,1*%
%TO.N,+5V*%
X172650000Y-121030000D03*
%TD*%
D10*
%TO.P,J2,8*%
%TO.N,Net-(J2-Pad8)*%
X174800000Y-93930000D03*
%TO.P,J2,7*%
%TO.N,Net-(J2-Pad7)*%
X174800000Y-91390000D03*
%TO.P,J2,6*%
%TO.N,Net-(J2-Pad6)*%
X174800000Y-88850000D03*
%TO.P,J2,5*%
%TO.N,Net-(J2-Pad5)*%
X174800000Y-86310000D03*
%TO.P,J2,4*%
%TO.N,scl*%
X174800000Y-83770000D03*
%TO.P,J2,3*%
%TO.N,sda*%
X174800000Y-81230000D03*
%TO.P,J2,2*%
%TO.N,GND*%
X174800000Y-78690000D03*
D11*
%TO.P,J2,1*%
%TO.N,+3V3*%
X174800000Y-76150000D03*
%TD*%
D10*
%TO.P,J1,4*%
%TO.N,Net-(J1-Pad4)*%
X171040000Y-102950000D03*
%TO.P,J1,3*%
%TO.N,Net-(J1-Pad3)*%
X171040000Y-100410000D03*
%TO.P,J1,2*%
%TO.N,Net-(J1-Pad2)*%
X171040000Y-97870000D03*
D11*
%TO.P,J1,1*%
%TO.N,Net-(J1-Pad1)*%
X171040000Y-95330000D03*
%TD*%
D19*
%TO.N,Net-(J1-Pad4)*%
X171040000Y-102950000D02*
X167720000Y-102950000D01*
X167720000Y-102950000D02*
X167640000Y-102870000D01*
%TO.N,Net-(J1-Pad3)*%
X171040000Y-100410000D02*
X167720000Y-100410000D01*
X167720000Y-100410000D02*
X167640000Y-100330000D01*
%TO.N,sda*%
X174800000Y-81230000D02*
X174800000Y-82405300D01*
X174800000Y-82405300D02*
X174432600Y-82405300D01*
X174432600Y-82405300D02*
X167640000Y-89197900D01*
X167640000Y-89197900D02*
X167640000Y-90170000D01*
%TO.N,+3V3*%
X174880000Y-100090000D02*
X174880000Y-101265300D01*
X167640000Y-115570000D02*
X168768500Y-115570000D01*
X168768500Y-115570000D02*
X176055300Y-108283200D01*
X176055300Y-108283200D02*
X176055300Y-102073200D01*
X176055300Y-102073200D02*
X175247400Y-101265300D01*
X175247400Y-101265300D02*
X174880000Y-101265300D01*
%TO.N,+5V*%
X172650000Y-121030000D02*
X147700000Y-121030000D01*
X147700000Y-121030000D02*
X142240000Y-115570000D01*
%TO.N,Net-(D1-Pad2)*%
X142240000Y-95250000D02*
X137160000Y-90170000D01*
X137160000Y-90170000D02*
X137160000Y-87630000D01*
%TO.N,Net-(D1-Pad1)*%
X134620000Y-87630000D02*
X133394700Y-87630000D01*
X132080000Y-86360000D02*
X133105300Y-86360000D01*
X133394700Y-87630000D02*
X133394700Y-86649400D01*
X133394700Y-86649400D02*
X133105300Y-86360000D01*
%TO.N,Net-(D2-Pad1)*%
X134620000Y-118110000D02*
X133394700Y-118110000D01*
X132080000Y-116840000D02*
X133105300Y-116840000D01*
X133394700Y-118110000D02*
X133394700Y-117129400D01*
X133394700Y-117129400D02*
X133105300Y-116840000D01*
%TO.N,Net-(D3-Pad2)*%
X142240000Y-102870000D02*
X137160000Y-107950000D01*
X137160000Y-107950000D02*
X137160000Y-110490000D01*
%TO.N,Net-(D3-Pad1)*%
X134620000Y-110490000D02*
X133394700Y-110490000D01*
X132080000Y-109220000D02*
X133105300Y-109220000D01*
X133394700Y-110490000D02*
X133394700Y-109509400D01*
X133394700Y-109509400D02*
X133105300Y-109220000D01*
%TO.N,Net-(D4-Pad2)*%
X142240000Y-100330000D02*
X139700000Y-100330000D01*
X139700000Y-100330000D02*
X137160000Y-102870000D01*
%TO.N,Net-(D4-Pad1)*%
X134620000Y-102870000D02*
X133394700Y-102870000D01*
X132080000Y-101600000D02*
X133105300Y-101600000D01*
X133394700Y-102870000D02*
X133394700Y-101889400D01*
X133394700Y-101889400D02*
X133105300Y-101600000D01*
%TO.N,Net-(D5-Pad1)*%
X134620000Y-80010000D02*
X133394700Y-80010000D01*
X132080000Y-78740000D02*
X133105300Y-78740000D01*
X133394700Y-80010000D02*
X133394700Y-79029400D01*
X133394700Y-79029400D02*
X133105300Y-78740000D01*
%TO.N,Net-(D6-Pad2)*%
X142240000Y-97790000D02*
X139700000Y-97790000D01*
X139700000Y-97790000D02*
X137160000Y-95250000D01*
%TO.N,Net-(D6-Pad1)*%
X134620000Y-95250000D02*
X133394700Y-95250000D01*
X132080000Y-93980000D02*
X133105300Y-93980000D01*
X133394700Y-95250000D02*
X133394700Y-94269400D01*
X133394700Y-94269400D02*
X133105300Y-93980000D01*
%TO.N,MQ7A*%
X174880000Y-107710000D02*
X173704700Y-107710000D01*
X142240000Y-87630000D02*
X161144700Y-106534700D01*
X161144700Y-106534700D02*
X172529400Y-106534700D01*
X172529400Y-106534700D02*
X173704700Y-107710000D01*
%TD*%
D20*
%TO.N,GND*%
X177140001Y-123800000D02*
X130835000Y-123800000D01*
X130835000Y-122841269D01*
X131338336Y-122841269D01*
X131397797Y-123075037D01*
X131636242Y-123185934D01*
X131891740Y-123248183D01*
X132154473Y-123259390D01*
X132414344Y-123219125D01*
X132661366Y-123128935D01*
X132762203Y-123075037D01*
X132821664Y-122841269D01*
X132080000Y-122099605D01*
X131338336Y-122841269D01*
X130835000Y-122841269D01*
X130835000Y-122402587D01*
X130871065Y-122501366D01*
X130924963Y-122602203D01*
X131158731Y-122661664D01*
X131900395Y-121920000D01*
X132259605Y-121920000D01*
X133001269Y-122661664D01*
X133235037Y-122602203D01*
X133345934Y-122363758D01*
X133408183Y-122108260D01*
X133419390Y-121845527D01*
X133379125Y-121585656D01*
X133288935Y-121338634D01*
X133235037Y-121237797D01*
X133001269Y-121178336D01*
X132259605Y-121920000D01*
X131900395Y-121920000D01*
X131158731Y-121178336D01*
X130924963Y-121237797D01*
X130835000Y-121431231D01*
X130835000Y-120998731D01*
X131338336Y-120998731D01*
X132080000Y-121740395D01*
X132821664Y-120998731D01*
X132762203Y-120764963D01*
X132523758Y-120654066D01*
X132268260Y-120591817D01*
X132005527Y-120580610D01*
X131745656Y-120620875D01*
X131498634Y-120711065D01*
X131397797Y-120764963D01*
X131338336Y-120998731D01*
X130835000Y-120998731D01*
X130835000Y-117322825D01*
X130896939Y-117472359D01*
X131043038Y-117691013D01*
X131228987Y-117876962D01*
X131447641Y-118023061D01*
X131690595Y-118123696D01*
X131948514Y-118175000D01*
X132211486Y-118175000D01*
X132469405Y-118123696D01*
X132634700Y-118055228D01*
X132634700Y-118072666D01*
X132631023Y-118110000D01*
X132645697Y-118258986D01*
X132689154Y-118402247D01*
X132759726Y-118534276D01*
X132854699Y-118650001D01*
X132970424Y-118744974D01*
X133081928Y-118804575D01*
X133081928Y-119010000D01*
X133094188Y-119134482D01*
X133130498Y-119254180D01*
X133189463Y-119364494D01*
X133268815Y-119461185D01*
X133365506Y-119540537D01*
X133475820Y-119599502D01*
X133595518Y-119635812D01*
X133720000Y-119648072D01*
X135520000Y-119648072D01*
X135644482Y-119635812D01*
X135764180Y-119599502D01*
X135874494Y-119540537D01*
X135971185Y-119461185D01*
X136050537Y-119364494D01*
X136109502Y-119254180D01*
X136115056Y-119235873D01*
X136181495Y-119302312D01*
X136432905Y-119470299D01*
X136712257Y-119586011D01*
X137008816Y-119645000D01*
X137311184Y-119645000D01*
X137607743Y-119586011D01*
X137887095Y-119470299D01*
X138138505Y-119302312D01*
X138352312Y-119088505D01*
X138520299Y-118837095D01*
X138636011Y-118557743D01*
X138695000Y-118261184D01*
X138695000Y-117958816D01*
X138636011Y-117662257D01*
X138520299Y-117382905D01*
X138352312Y-117131495D01*
X138138505Y-116917688D01*
X137887095Y-116749701D01*
X137607743Y-116633989D01*
X137311184Y-116575000D01*
X137008816Y-116575000D01*
X136712257Y-116633989D01*
X136432905Y-116749701D01*
X136181495Y-116917688D01*
X136115056Y-116984127D01*
X136109502Y-116965820D01*
X136050537Y-116855506D01*
X135971185Y-116758815D01*
X135874494Y-116679463D01*
X135764180Y-116620498D01*
X135644482Y-116584188D01*
X135520000Y-116571928D01*
X133913413Y-116571928D01*
X133905702Y-116565600D01*
X133669103Y-116329002D01*
X133645301Y-116299999D01*
X133529576Y-116205026D01*
X133397547Y-116134454D01*
X133254286Y-116090997D01*
X133180250Y-116083705D01*
X133116962Y-115988987D01*
X132931013Y-115803038D01*
X132712359Y-115656939D01*
X132498556Y-115568379D01*
X132661366Y-115508935D01*
X132762203Y-115455037D01*
X132767958Y-115432408D01*
X140843000Y-115432408D01*
X140843000Y-115707592D01*
X140896686Y-115977490D01*
X141001995Y-116231727D01*
X141154880Y-116460535D01*
X141349465Y-116655120D01*
X141578273Y-116808005D01*
X141832510Y-116913314D01*
X142102408Y-116967000D01*
X142377592Y-116967000D01*
X142531571Y-116936372D01*
X147136201Y-121541003D01*
X147159999Y-121570001D01*
X147188997Y-121593799D01*
X147275723Y-121664974D01*
X147400633Y-121731740D01*
X147407753Y-121735546D01*
X147551014Y-121779003D01*
X147662667Y-121790000D01*
X147662676Y-121790000D01*
X147699999Y-121793676D01*
X147737322Y-121790000D01*
X171612359Y-121790000D01*
X171651875Y-121849140D01*
X171830860Y-122028125D01*
X172041324Y-122168753D01*
X172275179Y-122265619D01*
X172523439Y-122315000D01*
X172776561Y-122315000D01*
X173024821Y-122265619D01*
X173258676Y-122168753D01*
X173469140Y-122028125D01*
X173648125Y-121849140D01*
X173788753Y-121638676D01*
X173885619Y-121404821D01*
X173935000Y-121156561D01*
X173935000Y-120903439D01*
X173885619Y-120655179D01*
X173788753Y-120421324D01*
X173648125Y-120210860D01*
X173469140Y-120031875D01*
X173258676Y-119891247D01*
X173024821Y-119794381D01*
X172851973Y-119760000D01*
X173024821Y-119725619D01*
X173258676Y-119628753D01*
X173469140Y-119488125D01*
X173648125Y-119309140D01*
X173788753Y-119098676D01*
X173885619Y-118864821D01*
X173935000Y-118616561D01*
X173935000Y-118363439D01*
X173885619Y-118115179D01*
X173788753Y-117881324D01*
X173648125Y-117670860D01*
X173469140Y-117491875D01*
X173258676Y-117351247D01*
X173024821Y-117254381D01*
X172849256Y-117219460D01*
X172976449Y-117199270D01*
X173213896Y-117111578D01*
X173302534Y-117064201D01*
X173355922Y-116835527D01*
X172650000Y-116129605D01*
X171944078Y-116835527D01*
X171997466Y-117064201D01*
X172227374Y-117170095D01*
X172441211Y-117221356D01*
X172275179Y-117254381D01*
X172041324Y-117351247D01*
X171830860Y-117491875D01*
X171651875Y-117670860D01*
X171511247Y-117881324D01*
X171414381Y-118115179D01*
X171365000Y-118363439D01*
X171365000Y-118616561D01*
X171414381Y-118864821D01*
X171511247Y-119098676D01*
X171651875Y-119309140D01*
X171830860Y-119488125D01*
X172041324Y-119628753D01*
X172275179Y-119725619D01*
X172448027Y-119760000D01*
X172275179Y-119794381D01*
X172041324Y-119891247D01*
X171830860Y-120031875D01*
X171651875Y-120210860D01*
X171612359Y-120270000D01*
X148014802Y-120270000D01*
X143606372Y-115861571D01*
X143637000Y-115707592D01*
X143637000Y-115432408D01*
X143583314Y-115162510D01*
X143478005Y-114908273D01*
X143325120Y-114679465D01*
X143130535Y-114484880D01*
X142901727Y-114331995D01*
X142830057Y-114302308D01*
X142843023Y-114297636D01*
X142958980Y-114235656D01*
X143025960Y-113995565D01*
X142240000Y-113209605D01*
X141454040Y-113995565D01*
X141521020Y-114235656D01*
X141656760Y-114299485D01*
X141578273Y-114331995D01*
X141349465Y-114484880D01*
X141154880Y-114679465D01*
X141001995Y-114908273D01*
X140896686Y-115162510D01*
X140843000Y-115432408D01*
X132767958Y-115432408D01*
X132821664Y-115221269D01*
X132080000Y-114479605D01*
X131338336Y-115221269D01*
X131397797Y-115455037D01*
X131636242Y-115565934D01*
X131655827Y-115570706D01*
X131447641Y-115656939D01*
X131228987Y-115803038D01*
X131043038Y-115988987D01*
X130896939Y-116207641D01*
X130835000Y-116357175D01*
X130835000Y-114782587D01*
X130871065Y-114881366D01*
X130924963Y-114982203D01*
X131158731Y-115041664D01*
X131900395Y-114300000D01*
X132259605Y-114300000D01*
X133001269Y-115041664D01*
X133235037Y-114982203D01*
X133345934Y-114743758D01*
X133408183Y-114488260D01*
X133419390Y-114225527D01*
X133379125Y-113965656D01*
X133288935Y-113718634D01*
X133235037Y-113617797D01*
X133001269Y-113558336D01*
X132259605Y-114300000D01*
X131900395Y-114300000D01*
X131158731Y-113558336D01*
X130924963Y-113617797D01*
X130835000Y-113811231D01*
X130835000Y-113378731D01*
X131338336Y-113378731D01*
X132080000Y-114120395D01*
X132821664Y-113378731D01*
X132762203Y-113144963D01*
X132669863Y-113102017D01*
X140838090Y-113102017D01*
X140879078Y-113374133D01*
X140972364Y-113633023D01*
X141034344Y-113748980D01*
X141274435Y-113815960D01*
X142060395Y-113030000D01*
X142419605Y-113030000D01*
X143205565Y-113815960D01*
X143445656Y-113748980D01*
X143562756Y-113499952D01*
X143629023Y-113232865D01*
X143635157Y-113102017D01*
X166238090Y-113102017D01*
X166279078Y-113374133D01*
X166372364Y-113633023D01*
X166434344Y-113748980D01*
X166674435Y-113815960D01*
X167460395Y-113030000D01*
X167819605Y-113030000D01*
X168605565Y-113815960D01*
X168845656Y-113748980D01*
X168962756Y-113499952D01*
X169029023Y-113232865D01*
X169041910Y-112957983D01*
X169000922Y-112685867D01*
X168907636Y-112426977D01*
X168845656Y-112311020D01*
X168605565Y-112244040D01*
X167819605Y-113030000D01*
X167460395Y-113030000D01*
X166674435Y-112244040D01*
X166434344Y-112311020D01*
X166317244Y-112560048D01*
X166250977Y-112827135D01*
X166238090Y-113102017D01*
X143635157Y-113102017D01*
X143641910Y-112957983D01*
X143600922Y-112685867D01*
X143507636Y-112426977D01*
X143445656Y-112311020D01*
X143205565Y-112244040D01*
X142419605Y-113030000D01*
X142060395Y-113030000D01*
X141274435Y-112244040D01*
X141034344Y-112311020D01*
X140917244Y-112560048D01*
X140850977Y-112827135D01*
X140838090Y-113102017D01*
X132669863Y-113102017D01*
X132523758Y-113034066D01*
X132268260Y-112971817D01*
X132005527Y-112960610D01*
X131745656Y-113000875D01*
X131498634Y-113091065D01*
X131397797Y-113144963D01*
X131338336Y-113378731D01*
X130835000Y-113378731D01*
X130835000Y-109702825D01*
X130896939Y-109852359D01*
X131043038Y-110071013D01*
X131228987Y-110256962D01*
X131447641Y-110403061D01*
X131690595Y-110503696D01*
X131948514Y-110555000D01*
X132211486Y-110555000D01*
X132469405Y-110503696D01*
X132634700Y-110435228D01*
X132634700Y-110452666D01*
X132631023Y-110490000D01*
X132645697Y-110638986D01*
X132689154Y-110782247D01*
X132759726Y-110914276D01*
X132854699Y-111030001D01*
X132970424Y-111124974D01*
X133081928Y-111184575D01*
X133081928Y-111390000D01*
X133094188Y-111514482D01*
X133130498Y-111634180D01*
X133189463Y-111744494D01*
X133268815Y-111841185D01*
X133365506Y-111920537D01*
X133475820Y-111979502D01*
X133595518Y-112015812D01*
X133720000Y-112028072D01*
X135520000Y-112028072D01*
X135644482Y-112015812D01*
X135764180Y-111979502D01*
X135874494Y-111920537D01*
X135971185Y-111841185D01*
X136050537Y-111744494D01*
X136109502Y-111634180D01*
X136115056Y-111615873D01*
X136181495Y-111682312D01*
X136432905Y-111850299D01*
X136712257Y-111966011D01*
X137008816Y-112025000D01*
X137311184Y-112025000D01*
X137607743Y-111966011D01*
X137887095Y-111850299D01*
X138138505Y-111682312D01*
X138352312Y-111468505D01*
X138520299Y-111217095D01*
X138636011Y-110937743D01*
X138695000Y-110641184D01*
X138695000Y-110338816D01*
X138636011Y-110042257D01*
X138520299Y-109762905D01*
X138352312Y-109511495D01*
X138138505Y-109297688D01*
X137920000Y-109151687D01*
X137920000Y-108264801D01*
X140843000Y-105341802D01*
X140843000Y-105547592D01*
X140896686Y-105817490D01*
X141001995Y-106071727D01*
X141154880Y-106300535D01*
X141349465Y-106495120D01*
X141578273Y-106648005D01*
X141655515Y-106680000D01*
X141578273Y-106711995D01*
X141349465Y-106864880D01*
X141154880Y-107059465D01*
X141001995Y-107288273D01*
X140896686Y-107542510D01*
X140843000Y-107812408D01*
X140843000Y-108087592D01*
X140896686Y-108357490D01*
X141001995Y-108611727D01*
X141154880Y-108840535D01*
X141349465Y-109035120D01*
X141578273Y-109188005D01*
X141655515Y-109220000D01*
X141578273Y-109251995D01*
X141349465Y-109404880D01*
X141154880Y-109599465D01*
X141001995Y-109828273D01*
X140896686Y-110082510D01*
X140843000Y-110352408D01*
X140843000Y-110627592D01*
X140896686Y-110897490D01*
X141001995Y-111151727D01*
X141154880Y-111380535D01*
X141349465Y-111575120D01*
X141578273Y-111728005D01*
X141649943Y-111757692D01*
X141636977Y-111762364D01*
X141521020Y-111824344D01*
X141454040Y-112064435D01*
X142240000Y-112850395D01*
X143025960Y-112064435D01*
X142958980Y-111824344D01*
X142823240Y-111760515D01*
X142901727Y-111728005D01*
X143130535Y-111575120D01*
X143325120Y-111380535D01*
X143478005Y-111151727D01*
X143583314Y-110897490D01*
X143637000Y-110627592D01*
X143637000Y-110352408D01*
X143583314Y-110082510D01*
X143478005Y-109828273D01*
X143325120Y-109599465D01*
X143130535Y-109404880D01*
X142901727Y-109251995D01*
X142824485Y-109220000D01*
X142901727Y-109188005D01*
X143130535Y-109035120D01*
X143325120Y-108840535D01*
X143478005Y-108611727D01*
X143583314Y-108357490D01*
X143637000Y-108087592D01*
X143637000Y-107812408D01*
X143583314Y-107542510D01*
X143478005Y-107288273D01*
X143325120Y-107059465D01*
X143130535Y-106864880D01*
X142901727Y-106711995D01*
X142824485Y-106680000D01*
X142901727Y-106648005D01*
X143130535Y-106495120D01*
X143325120Y-106300535D01*
X143478005Y-106071727D01*
X143583314Y-105817490D01*
X143637000Y-105547592D01*
X143637000Y-105272408D01*
X143583314Y-105002510D01*
X143478005Y-104748273D01*
X143325120Y-104519465D01*
X143130535Y-104324880D01*
X142901727Y-104171995D01*
X142824485Y-104140000D01*
X142901727Y-104108005D01*
X143130535Y-103955120D01*
X143325120Y-103760535D01*
X143478005Y-103531727D01*
X143583314Y-103277490D01*
X143637000Y-103007592D01*
X143637000Y-102732408D01*
X143583314Y-102462510D01*
X143478005Y-102208273D01*
X143325120Y-101979465D01*
X143130535Y-101784880D01*
X142901727Y-101631995D01*
X142824485Y-101600000D01*
X142901727Y-101568005D01*
X143130535Y-101415120D01*
X143325120Y-101220535D01*
X143478005Y-100991727D01*
X143583314Y-100737490D01*
X143637000Y-100467592D01*
X143637000Y-100192408D01*
X143583314Y-99922510D01*
X143478005Y-99668273D01*
X143325120Y-99439465D01*
X143130535Y-99244880D01*
X142901727Y-99091995D01*
X142824485Y-99060000D01*
X142901727Y-99028005D01*
X143130535Y-98875120D01*
X143325120Y-98680535D01*
X143478005Y-98451727D01*
X143583314Y-98197490D01*
X143637000Y-97927592D01*
X143637000Y-97652408D01*
X143583314Y-97382510D01*
X143478005Y-97128273D01*
X143325120Y-96899465D01*
X143130535Y-96704880D01*
X142901727Y-96551995D01*
X142824485Y-96520000D01*
X142901727Y-96488005D01*
X143130535Y-96335120D01*
X143325120Y-96140535D01*
X143478005Y-95911727D01*
X143583314Y-95657490D01*
X143637000Y-95387592D01*
X143637000Y-95112408D01*
X143583314Y-94842510D01*
X143478005Y-94588273D01*
X143325120Y-94359465D01*
X143130535Y-94164880D01*
X142901727Y-94011995D01*
X142824485Y-93980000D01*
X142901727Y-93948005D01*
X143130535Y-93795120D01*
X143325120Y-93600535D01*
X143478005Y-93371727D01*
X143583314Y-93117490D01*
X143637000Y-92847592D01*
X143637000Y-92572408D01*
X143583314Y-92302510D01*
X143478005Y-92048273D01*
X143325120Y-91819465D01*
X143130535Y-91624880D01*
X142901727Y-91471995D01*
X142824485Y-91440000D01*
X142901727Y-91408005D01*
X143130535Y-91255120D01*
X143325120Y-91060535D01*
X143478005Y-90831727D01*
X143583314Y-90577490D01*
X143637000Y-90307592D01*
X143637000Y-90101801D01*
X160580900Y-107045702D01*
X160604699Y-107074701D01*
X160633697Y-107098499D01*
X160720423Y-107169674D01*
X160779024Y-107200997D01*
X160852453Y-107240246D01*
X160995714Y-107283703D01*
X161107367Y-107294700D01*
X161107376Y-107294700D01*
X161144699Y-107298376D01*
X161182022Y-107294700D01*
X166399333Y-107294700D01*
X166296686Y-107542510D01*
X166243000Y-107812408D01*
X166243000Y-108087592D01*
X166296686Y-108357490D01*
X166401995Y-108611727D01*
X166554880Y-108840535D01*
X166749465Y-109035120D01*
X166978273Y-109188005D01*
X167055515Y-109220000D01*
X166978273Y-109251995D01*
X166749465Y-109404880D01*
X166554880Y-109599465D01*
X166401995Y-109828273D01*
X166296686Y-110082510D01*
X166243000Y-110352408D01*
X166243000Y-110627592D01*
X166296686Y-110897490D01*
X166401995Y-111151727D01*
X166554880Y-111380535D01*
X166749465Y-111575120D01*
X166978273Y-111728005D01*
X167049943Y-111757692D01*
X167036977Y-111762364D01*
X166921020Y-111824344D01*
X166854040Y-112064435D01*
X167640000Y-112850395D01*
X168425960Y-112064435D01*
X168358980Y-111824344D01*
X168223240Y-111760515D01*
X168301727Y-111728005D01*
X168530535Y-111575120D01*
X168725120Y-111380535D01*
X168878005Y-111151727D01*
X168983314Y-110897490D01*
X169037000Y-110627592D01*
X169037000Y-110352408D01*
X168983314Y-110082510D01*
X168878005Y-109828273D01*
X168725120Y-109599465D01*
X168530535Y-109404880D01*
X168301727Y-109251995D01*
X168224485Y-109220000D01*
X168301727Y-109188005D01*
X168530535Y-109035120D01*
X168725120Y-108840535D01*
X168878005Y-108611727D01*
X168983314Y-108357490D01*
X169037000Y-108087592D01*
X169037000Y-107812408D01*
X168983314Y-107542510D01*
X168880667Y-107294700D01*
X172214599Y-107294700D01*
X173140901Y-108221003D01*
X173164699Y-108250001D01*
X173280424Y-108344974D01*
X173412453Y-108415546D01*
X173555714Y-108459003D01*
X173597204Y-108463089D01*
X173726525Y-108656632D01*
X173933368Y-108863475D01*
X174176589Y-109025990D01*
X174219806Y-109043891D01*
X168654677Y-114609022D01*
X168530535Y-114484880D01*
X168301727Y-114331995D01*
X168230057Y-114302308D01*
X168243023Y-114297636D01*
X168358980Y-114235656D01*
X168425960Y-113995565D01*
X167640000Y-113209605D01*
X166854040Y-113995565D01*
X166921020Y-114235656D01*
X167056760Y-114299485D01*
X166978273Y-114331995D01*
X166749465Y-114484880D01*
X166554880Y-114679465D01*
X166401995Y-114908273D01*
X166296686Y-115162510D01*
X166243000Y-115432408D01*
X166243000Y-115707592D01*
X166296686Y-115977490D01*
X166401995Y-116231727D01*
X166554880Y-116460535D01*
X166749465Y-116655120D01*
X166978273Y-116808005D01*
X167232510Y-116913314D01*
X167502408Y-116967000D01*
X167777592Y-116967000D01*
X168047490Y-116913314D01*
X168301727Y-116808005D01*
X168530535Y-116655120D01*
X168725120Y-116460535D01*
X168812799Y-116329314D01*
X168917486Y-116319003D01*
X169060747Y-116275546D01*
X169192776Y-116204974D01*
X169308501Y-116110001D01*
X169332304Y-116080997D01*
X169386846Y-116026455D01*
X171361048Y-116026455D01*
X171400730Y-116276449D01*
X171488422Y-116513896D01*
X171535799Y-116602534D01*
X171764473Y-116655922D01*
X172470395Y-115950000D01*
X172829605Y-115950000D01*
X173535527Y-116655922D01*
X173764201Y-116602534D01*
X173870095Y-116372626D01*
X173929102Y-116126476D01*
X173938952Y-115873545D01*
X173899270Y-115623551D01*
X173811578Y-115386104D01*
X173764201Y-115297466D01*
X173535527Y-115244078D01*
X172829605Y-115950000D01*
X172470395Y-115950000D01*
X171764473Y-115244078D01*
X171535799Y-115297466D01*
X171429905Y-115527374D01*
X171370898Y-115773524D01*
X171361048Y-116026455D01*
X169386846Y-116026455D01*
X171477089Y-113936212D01*
X171511247Y-114018676D01*
X171651875Y-114229140D01*
X171830860Y-114408125D01*
X172041324Y-114548753D01*
X172275179Y-114645619D01*
X172450744Y-114680540D01*
X172323551Y-114700730D01*
X172086104Y-114788422D01*
X171997466Y-114835799D01*
X171944078Y-115064473D01*
X172650000Y-115770395D01*
X173355922Y-115064473D01*
X173302534Y-114835799D01*
X173072626Y-114729905D01*
X172858789Y-114678644D01*
X173024821Y-114645619D01*
X173258676Y-114548753D01*
X173469140Y-114408125D01*
X173648125Y-114229140D01*
X173788753Y-114018676D01*
X173885619Y-113784821D01*
X173935000Y-113536561D01*
X173935000Y-113283439D01*
X173885619Y-113035179D01*
X173788753Y-112801324D01*
X173648125Y-112590860D01*
X173469140Y-112411875D01*
X173258676Y-112271247D01*
X173176213Y-112237089D01*
X176566309Y-108846994D01*
X176595301Y-108823201D01*
X176619095Y-108794208D01*
X176619099Y-108794204D01*
X176690273Y-108707477D01*
X176690274Y-108707476D01*
X176760846Y-108575447D01*
X176804303Y-108432186D01*
X176815300Y-108320533D01*
X176815300Y-108320524D01*
X176818976Y-108283201D01*
X176815300Y-108245878D01*
X176815300Y-102110522D01*
X176818976Y-102073199D01*
X176815300Y-102035876D01*
X176815300Y-102035867D01*
X176804303Y-101924214D01*
X176760846Y-101780953D01*
X176743759Y-101748986D01*
X176690274Y-101648923D01*
X176619099Y-101562197D01*
X176595301Y-101533199D01*
X176566302Y-101509401D01*
X176292186Y-101235284D01*
X176319502Y-101184180D01*
X176355812Y-101064482D01*
X176368072Y-100940000D01*
X176368072Y-99240000D01*
X176355812Y-99115518D01*
X176319502Y-98995820D01*
X176260537Y-98885506D01*
X176181185Y-98788815D01*
X176084494Y-98709463D01*
X175974180Y-98650498D01*
X175854482Y-98614188D01*
X175730000Y-98601928D01*
X174030000Y-98601928D01*
X173905518Y-98614188D01*
X173785820Y-98650498D01*
X173675506Y-98709463D01*
X173578815Y-98788815D01*
X173499463Y-98885506D01*
X173440498Y-98995820D01*
X173404188Y-99115518D01*
X173391928Y-99240000D01*
X173391928Y-100940000D01*
X173404188Y-101064482D01*
X173440498Y-101184180D01*
X173499463Y-101294494D01*
X173578815Y-101391185D01*
X173675506Y-101470537D01*
X173785820Y-101529502D01*
X173866466Y-101553966D01*
X173782412Y-101629731D01*
X173608359Y-101863080D01*
X173483175Y-102125901D01*
X173438524Y-102273110D01*
X173559845Y-102503000D01*
X174753000Y-102503000D01*
X174753000Y-102483000D01*
X175007000Y-102483000D01*
X175007000Y-102503000D01*
X175027000Y-102503000D01*
X175027000Y-102757000D01*
X175007000Y-102757000D01*
X175007000Y-102777000D01*
X174753000Y-102777000D01*
X174753000Y-102757000D01*
X173559845Y-102757000D01*
X173438524Y-102986890D01*
X173483175Y-103134099D01*
X173608359Y-103396920D01*
X173782412Y-103630269D01*
X173998645Y-103825178D01*
X174115534Y-103894805D01*
X173933368Y-104016525D01*
X173726525Y-104223368D01*
X173564010Y-104466589D01*
X173452068Y-104736842D01*
X173395000Y-105023740D01*
X173395000Y-105316260D01*
X173452068Y-105603158D01*
X173564010Y-105873411D01*
X173726525Y-106116632D01*
X173933368Y-106323475D01*
X174107760Y-106440000D01*
X173933368Y-106556525D01*
X173779697Y-106710196D01*
X173093204Y-106023703D01*
X173069401Y-105994699D01*
X172953676Y-105899726D01*
X172821647Y-105829154D01*
X172678386Y-105785697D01*
X172566733Y-105774700D01*
X172566722Y-105774700D01*
X172529400Y-105771024D01*
X172492078Y-105774700D01*
X168991825Y-105774700D01*
X169037000Y-105547592D01*
X169037000Y-105272408D01*
X168983314Y-105002510D01*
X168878005Y-104748273D01*
X168725120Y-104519465D01*
X168530535Y-104324880D01*
X168301727Y-104171995D01*
X168224485Y-104140000D01*
X168301727Y-104108005D01*
X168530535Y-103955120D01*
X168725120Y-103760535D01*
X168758886Y-103710000D01*
X169761822Y-103710000D01*
X169886525Y-103896632D01*
X170093368Y-104103475D01*
X170336589Y-104265990D01*
X170606842Y-104377932D01*
X170893740Y-104435000D01*
X171186260Y-104435000D01*
X171473158Y-104377932D01*
X171743411Y-104265990D01*
X171986632Y-104103475D01*
X172193475Y-103896632D01*
X172355990Y-103653411D01*
X172467932Y-103383158D01*
X172525000Y-103096260D01*
X172525000Y-102803740D01*
X172467932Y-102516842D01*
X172355990Y-102246589D01*
X172193475Y-102003368D01*
X171986632Y-101796525D01*
X171812240Y-101680000D01*
X171986632Y-101563475D01*
X172193475Y-101356632D01*
X172355990Y-101113411D01*
X172467932Y-100843158D01*
X172525000Y-100556260D01*
X172525000Y-100263740D01*
X172467932Y-99976842D01*
X172355990Y-99706589D01*
X172193475Y-99463368D01*
X171986632Y-99256525D01*
X171812240Y-99140000D01*
X171986632Y-99023475D01*
X172193475Y-98816632D01*
X172355990Y-98573411D01*
X172467932Y-98303158D01*
X172525000Y-98016260D01*
X172525000Y-97723740D01*
X172467932Y-97436842D01*
X172355990Y-97166589D01*
X172193475Y-96923368D01*
X172061620Y-96791513D01*
X172134180Y-96769502D01*
X172244494Y-96710537D01*
X172341185Y-96631185D01*
X172420537Y-96534494D01*
X172479502Y-96424180D01*
X172515812Y-96304482D01*
X172528072Y-96180000D01*
X172528072Y-94480000D01*
X172515812Y-94355518D01*
X172479502Y-94235820D01*
X172420537Y-94125506D01*
X172341185Y-94028815D01*
X172244494Y-93949463D01*
X172134180Y-93890498D01*
X172014482Y-93854188D01*
X171890000Y-93841928D01*
X170190000Y-93841928D01*
X170065518Y-93854188D01*
X169945820Y-93890498D01*
X169835506Y-93949463D01*
X169738815Y-94028815D01*
X169659463Y-94125506D01*
X169600498Y-94235820D01*
X169564188Y-94355518D01*
X169551928Y-94480000D01*
X169551928Y-96180000D01*
X169564188Y-96304482D01*
X169600498Y-96424180D01*
X169659463Y-96534494D01*
X169738815Y-96631185D01*
X169835506Y-96710537D01*
X169945820Y-96769502D01*
X170018380Y-96791513D01*
X169886525Y-96923368D01*
X169724010Y-97166589D01*
X169612068Y-97436842D01*
X169555000Y-97723740D01*
X169555000Y-98016260D01*
X169612068Y-98303158D01*
X169724010Y-98573411D01*
X169886525Y-98816632D01*
X170093368Y-99023475D01*
X170267760Y-99140000D01*
X170093368Y-99256525D01*
X169886525Y-99463368D01*
X169761822Y-99650000D01*
X168865795Y-99650000D01*
X168725120Y-99439465D01*
X168530535Y-99244880D01*
X168301727Y-99091995D01*
X168224485Y-99060000D01*
X168301727Y-99028005D01*
X168530535Y-98875120D01*
X168725120Y-98680535D01*
X168878005Y-98451727D01*
X168983314Y-98197490D01*
X169037000Y-97927592D01*
X169037000Y-97652408D01*
X168983314Y-97382510D01*
X168878005Y-97128273D01*
X168725120Y-96899465D01*
X168530535Y-96704880D01*
X168301727Y-96551995D01*
X168224485Y-96520000D01*
X168301727Y-96488005D01*
X168530535Y-96335120D01*
X168725120Y-96140535D01*
X168878005Y-95911727D01*
X168983314Y-95657490D01*
X169037000Y-95387592D01*
X169037000Y-95112408D01*
X168983314Y-94842510D01*
X168878005Y-94588273D01*
X168725120Y-94359465D01*
X168530535Y-94164880D01*
X168301727Y-94011995D01*
X168224485Y-93980000D01*
X168301727Y-93948005D01*
X168530535Y-93795120D01*
X168725120Y-93600535D01*
X168878005Y-93371727D01*
X168983314Y-93117490D01*
X169037000Y-92847592D01*
X169037000Y-92572408D01*
X168983314Y-92302510D01*
X168878005Y-92048273D01*
X168725120Y-91819465D01*
X168530535Y-91624880D01*
X168301727Y-91471995D01*
X168224485Y-91440000D01*
X168301727Y-91408005D01*
X168530535Y-91255120D01*
X168725120Y-91060535D01*
X168878005Y-90831727D01*
X168983314Y-90577490D01*
X169037000Y-90307592D01*
X169037000Y-90032408D01*
X168983314Y-89762510D01*
X168878005Y-89508273D01*
X168725120Y-89279465D01*
X168679178Y-89233523D01*
X173470912Y-84441790D01*
X173484010Y-84473411D01*
X173646525Y-84716632D01*
X173853368Y-84923475D01*
X174027760Y-85040000D01*
X173853368Y-85156525D01*
X173646525Y-85363368D01*
X173484010Y-85606589D01*
X173372068Y-85876842D01*
X173315000Y-86163740D01*
X173315000Y-86456260D01*
X173372068Y-86743158D01*
X173484010Y-87013411D01*
X173646525Y-87256632D01*
X173853368Y-87463475D01*
X174027760Y-87580000D01*
X173853368Y-87696525D01*
X173646525Y-87903368D01*
X173484010Y-88146589D01*
X173372068Y-88416842D01*
X173315000Y-88703740D01*
X173315000Y-88996260D01*
X173372068Y-89283158D01*
X173484010Y-89553411D01*
X173646525Y-89796632D01*
X173853368Y-90003475D01*
X174027760Y-90120000D01*
X173853368Y-90236525D01*
X173646525Y-90443368D01*
X173484010Y-90686589D01*
X173372068Y-90956842D01*
X173315000Y-91243740D01*
X173315000Y-91536260D01*
X173372068Y-91823158D01*
X173484010Y-92093411D01*
X173646525Y-92336632D01*
X173853368Y-92543475D01*
X174027760Y-92660000D01*
X173853368Y-92776525D01*
X173646525Y-92983368D01*
X173484010Y-93226589D01*
X173372068Y-93496842D01*
X173315000Y-93783740D01*
X173315000Y-94076260D01*
X173372068Y-94363158D01*
X173484010Y-94633411D01*
X173646525Y-94876632D01*
X173853368Y-95083475D01*
X174096589Y-95245990D01*
X174366842Y-95357932D01*
X174653740Y-95415000D01*
X174946260Y-95415000D01*
X175233158Y-95357932D01*
X175503411Y-95245990D01*
X175746632Y-95083475D01*
X175953475Y-94876632D01*
X176115990Y-94633411D01*
X176227932Y-94363158D01*
X176285000Y-94076260D01*
X176285000Y-93783740D01*
X176227932Y-93496842D01*
X176115990Y-93226589D01*
X175953475Y-92983368D01*
X175746632Y-92776525D01*
X175572240Y-92660000D01*
X175746632Y-92543475D01*
X175953475Y-92336632D01*
X176115990Y-92093411D01*
X176227932Y-91823158D01*
X176285000Y-91536260D01*
X176285000Y-91243740D01*
X176227932Y-90956842D01*
X176115990Y-90686589D01*
X175953475Y-90443368D01*
X175746632Y-90236525D01*
X175572240Y-90120000D01*
X175746632Y-90003475D01*
X175953475Y-89796632D01*
X176115990Y-89553411D01*
X176227932Y-89283158D01*
X176285000Y-88996260D01*
X176285000Y-88703740D01*
X176227932Y-88416842D01*
X176115990Y-88146589D01*
X175953475Y-87903368D01*
X175746632Y-87696525D01*
X175572240Y-87580000D01*
X175746632Y-87463475D01*
X175953475Y-87256632D01*
X176115990Y-87013411D01*
X176227932Y-86743158D01*
X176285000Y-86456260D01*
X176285000Y-86163740D01*
X176227932Y-85876842D01*
X176115990Y-85606589D01*
X175953475Y-85363368D01*
X175746632Y-85156525D01*
X175572240Y-85040000D01*
X175746632Y-84923475D01*
X175953475Y-84716632D01*
X176115990Y-84473411D01*
X176227932Y-84203158D01*
X176285000Y-83916260D01*
X176285000Y-83623740D01*
X176227932Y-83336842D01*
X176115990Y-83066589D01*
X175953475Y-82823368D01*
X175746632Y-82616525D01*
X175572240Y-82500000D01*
X175746632Y-82383475D01*
X175953475Y-82176632D01*
X176115990Y-81933411D01*
X176227932Y-81663158D01*
X176285000Y-81376260D01*
X176285000Y-81083740D01*
X176227932Y-80796842D01*
X176115990Y-80526589D01*
X175953475Y-80283368D01*
X175746632Y-80076525D01*
X175564466Y-79954805D01*
X175681355Y-79885178D01*
X175897588Y-79690269D01*
X176071641Y-79456920D01*
X176196825Y-79194099D01*
X176241476Y-79046890D01*
X176120155Y-78817000D01*
X174927000Y-78817000D01*
X174927000Y-78837000D01*
X174673000Y-78837000D01*
X174673000Y-78817000D01*
X173479845Y-78817000D01*
X173358524Y-79046890D01*
X173403175Y-79194099D01*
X173528359Y-79456920D01*
X173702412Y-79690269D01*
X173918645Y-79885178D01*
X174035534Y-79954805D01*
X173853368Y-80076525D01*
X173646525Y-80283368D01*
X173484010Y-80526589D01*
X173372068Y-80796842D01*
X173315000Y-81083740D01*
X173315000Y-81376260D01*
X173372068Y-81663158D01*
X173484010Y-81933411D01*
X173622469Y-82140629D01*
X168844688Y-86918411D01*
X168725120Y-86739465D01*
X168530535Y-86544880D01*
X168301727Y-86391995D01*
X168224485Y-86360000D01*
X168301727Y-86328005D01*
X168530535Y-86175120D01*
X168725120Y-85980535D01*
X168878005Y-85751727D01*
X168983314Y-85497490D01*
X169037000Y-85227592D01*
X169037000Y-84952408D01*
X168983314Y-84682510D01*
X168878005Y-84428273D01*
X168725120Y-84199465D01*
X168530535Y-84004880D01*
X168301727Y-83851995D01*
X168224485Y-83820000D01*
X168301727Y-83788005D01*
X168530535Y-83635120D01*
X168725120Y-83440535D01*
X168878005Y-83211727D01*
X168983314Y-82957490D01*
X169037000Y-82687592D01*
X169037000Y-82412408D01*
X168983314Y-82142510D01*
X168878005Y-81888273D01*
X168725120Y-81659465D01*
X168530535Y-81464880D01*
X168301727Y-81311995D01*
X168224485Y-81280000D01*
X168301727Y-81248005D01*
X168530535Y-81095120D01*
X168725120Y-80900535D01*
X168878005Y-80671727D01*
X168983314Y-80417490D01*
X169037000Y-80147592D01*
X169037000Y-79872408D01*
X168983314Y-79602510D01*
X168878005Y-79348273D01*
X168725120Y-79119465D01*
X168530535Y-78924880D01*
X168301727Y-78771995D01*
X168047490Y-78666686D01*
X167777592Y-78613000D01*
X167502408Y-78613000D01*
X167232510Y-78666686D01*
X166978273Y-78771995D01*
X166749465Y-78924880D01*
X166554880Y-79119465D01*
X166401995Y-79348273D01*
X166296686Y-79602510D01*
X166243000Y-79872408D01*
X166243000Y-80147592D01*
X166296686Y-80417490D01*
X166401995Y-80671727D01*
X166554880Y-80900535D01*
X166749465Y-81095120D01*
X166978273Y-81248005D01*
X167055515Y-81280000D01*
X166978273Y-81311995D01*
X166749465Y-81464880D01*
X166554880Y-81659465D01*
X166401995Y-81888273D01*
X166296686Y-82142510D01*
X166243000Y-82412408D01*
X166243000Y-82687592D01*
X166296686Y-82957490D01*
X166401995Y-83211727D01*
X166554880Y-83440535D01*
X166749465Y-83635120D01*
X166978273Y-83788005D01*
X167055515Y-83820000D01*
X166978273Y-83851995D01*
X166749465Y-84004880D01*
X166554880Y-84199465D01*
X166401995Y-84428273D01*
X166296686Y-84682510D01*
X166243000Y-84952408D01*
X166243000Y-85227592D01*
X166296686Y-85497490D01*
X166401995Y-85751727D01*
X166554880Y-85980535D01*
X166749465Y-86175120D01*
X166978273Y-86328005D01*
X167055515Y-86360000D01*
X166978273Y-86391995D01*
X166749465Y-86544880D01*
X166554880Y-86739465D01*
X166401995Y-86968273D01*
X166296686Y-87222510D01*
X166243000Y-87492408D01*
X166243000Y-87767592D01*
X166296686Y-88037490D01*
X166401995Y-88291727D01*
X166554880Y-88520535D01*
X166749465Y-88715120D01*
X166960814Y-88856339D01*
X166934454Y-88905654D01*
X166913293Y-88975413D01*
X166749465Y-89084880D01*
X166554880Y-89279465D01*
X166401995Y-89508273D01*
X166296686Y-89762510D01*
X166243000Y-90032408D01*
X166243000Y-90307592D01*
X166296686Y-90577490D01*
X166401995Y-90831727D01*
X166554880Y-91060535D01*
X166749465Y-91255120D01*
X166978273Y-91408005D01*
X167055515Y-91440000D01*
X166978273Y-91471995D01*
X166749465Y-91624880D01*
X166554880Y-91819465D01*
X166401995Y-92048273D01*
X166296686Y-92302510D01*
X166243000Y-92572408D01*
X166243000Y-92847592D01*
X166296686Y-93117490D01*
X166401995Y-93371727D01*
X166554880Y-93600535D01*
X166749465Y-93795120D01*
X166978273Y-93948005D01*
X167055515Y-93980000D01*
X166978273Y-94011995D01*
X166749465Y-94164880D01*
X166554880Y-94359465D01*
X166401995Y-94588273D01*
X166296686Y-94842510D01*
X166243000Y-95112408D01*
X166243000Y-95387592D01*
X166296686Y-95657490D01*
X166401995Y-95911727D01*
X166554880Y-96140535D01*
X166749465Y-96335120D01*
X166978273Y-96488005D01*
X167055515Y-96520000D01*
X166978273Y-96551995D01*
X166749465Y-96704880D01*
X166554880Y-96899465D01*
X166401995Y-97128273D01*
X166296686Y-97382510D01*
X166243000Y-97652408D01*
X166243000Y-97927592D01*
X166296686Y-98197490D01*
X166401995Y-98451727D01*
X166554880Y-98680535D01*
X166749465Y-98875120D01*
X166978273Y-99028005D01*
X167055515Y-99060000D01*
X166978273Y-99091995D01*
X166749465Y-99244880D01*
X166554880Y-99439465D01*
X166401995Y-99668273D01*
X166296686Y-99922510D01*
X166243000Y-100192408D01*
X166243000Y-100467592D01*
X166296686Y-100737490D01*
X166401995Y-100991727D01*
X166554880Y-101220535D01*
X166749465Y-101415120D01*
X166978273Y-101568005D01*
X167055515Y-101600000D01*
X166978273Y-101631995D01*
X166749465Y-101784880D01*
X166554880Y-101979465D01*
X166401995Y-102208273D01*
X166296686Y-102462510D01*
X166243000Y-102732408D01*
X166243000Y-103007592D01*
X166296686Y-103277490D01*
X166401995Y-103531727D01*
X166554880Y-103760535D01*
X166749465Y-103955120D01*
X166978273Y-104108005D01*
X167055515Y-104140000D01*
X166978273Y-104171995D01*
X166749465Y-104324880D01*
X166554880Y-104519465D01*
X166401995Y-104748273D01*
X166296686Y-105002510D01*
X166243000Y-105272408D01*
X166243000Y-105547592D01*
X166288175Y-105774700D01*
X161459502Y-105774700D01*
X143606372Y-87921571D01*
X143637000Y-87767592D01*
X143637000Y-87492408D01*
X143583314Y-87222510D01*
X143478005Y-86968273D01*
X143325120Y-86739465D01*
X143130535Y-86544880D01*
X142901727Y-86391995D01*
X142824485Y-86360000D01*
X142901727Y-86328005D01*
X143130535Y-86175120D01*
X143325120Y-85980535D01*
X143478005Y-85751727D01*
X143583314Y-85497490D01*
X143637000Y-85227592D01*
X143637000Y-84952408D01*
X143583314Y-84682510D01*
X143478005Y-84428273D01*
X143325120Y-84199465D01*
X143130535Y-84004880D01*
X142901727Y-83851995D01*
X142824485Y-83820000D01*
X142901727Y-83788005D01*
X143130535Y-83635120D01*
X143325120Y-83440535D01*
X143478005Y-83211727D01*
X143583314Y-82957490D01*
X143637000Y-82687592D01*
X143637000Y-82412408D01*
X143583314Y-82142510D01*
X143478005Y-81888273D01*
X143325120Y-81659465D01*
X143130535Y-81464880D01*
X143042535Y-81406080D01*
X143126482Y-81397812D01*
X143246180Y-81361502D01*
X143356494Y-81302537D01*
X143453185Y-81223185D01*
X143532537Y-81126494D01*
X143591502Y-81016180D01*
X143627812Y-80896482D01*
X143640072Y-80772000D01*
X143640072Y-79248000D01*
X143627812Y-79123518D01*
X143591502Y-79003820D01*
X143532537Y-78893506D01*
X143453185Y-78796815D01*
X143356494Y-78717463D01*
X143246180Y-78658498D01*
X143126482Y-78622188D01*
X143002000Y-78609928D01*
X141478000Y-78609928D01*
X141353518Y-78622188D01*
X141233820Y-78658498D01*
X141123506Y-78717463D01*
X141026815Y-78796815D01*
X140947463Y-78893506D01*
X140888498Y-79003820D01*
X140852188Y-79123518D01*
X140839928Y-79248000D01*
X140839928Y-80772000D01*
X140852188Y-80896482D01*
X140888498Y-81016180D01*
X140947463Y-81126494D01*
X141026815Y-81223185D01*
X141123506Y-81302537D01*
X141233820Y-81361502D01*
X141353518Y-81397812D01*
X141437465Y-81406080D01*
X141349465Y-81464880D01*
X141154880Y-81659465D01*
X141001995Y-81888273D01*
X140896686Y-82142510D01*
X140843000Y-82412408D01*
X140843000Y-82687592D01*
X140896686Y-82957490D01*
X141001995Y-83211727D01*
X141154880Y-83440535D01*
X141349465Y-83635120D01*
X141578273Y-83788005D01*
X141655515Y-83820000D01*
X141578273Y-83851995D01*
X141349465Y-84004880D01*
X141154880Y-84199465D01*
X141001995Y-84428273D01*
X140896686Y-84682510D01*
X140843000Y-84952408D01*
X140843000Y-85227592D01*
X140896686Y-85497490D01*
X141001995Y-85751727D01*
X141154880Y-85980535D01*
X141349465Y-86175120D01*
X141578273Y-86328005D01*
X141655515Y-86360000D01*
X141578273Y-86391995D01*
X141349465Y-86544880D01*
X141154880Y-86739465D01*
X141001995Y-86968273D01*
X140896686Y-87222510D01*
X140843000Y-87492408D01*
X140843000Y-87767592D01*
X140896686Y-88037490D01*
X141001995Y-88291727D01*
X141154880Y-88520535D01*
X141349465Y-88715120D01*
X141578273Y-88868005D01*
X141655515Y-88900000D01*
X141578273Y-88931995D01*
X141349465Y-89084880D01*
X141154880Y-89279465D01*
X141001995Y-89508273D01*
X140896686Y-89762510D01*
X140843000Y-90032408D01*
X140843000Y-90307592D01*
X140896686Y-90577490D01*
X141001995Y-90831727D01*
X141154880Y-91060535D01*
X141349465Y-91255120D01*
X141578273Y-91408005D01*
X141655515Y-91440000D01*
X141578273Y-91471995D01*
X141349465Y-91624880D01*
X141154880Y-91819465D01*
X141001995Y-92048273D01*
X140896686Y-92302510D01*
X140843000Y-92572408D01*
X140843000Y-92778198D01*
X137920000Y-89855199D01*
X137920000Y-88968313D01*
X138138505Y-88822312D01*
X138352312Y-88608505D01*
X138520299Y-88357095D01*
X138636011Y-88077743D01*
X138695000Y-87781184D01*
X138695000Y-87478816D01*
X138636011Y-87182257D01*
X138520299Y-86902905D01*
X138352312Y-86651495D01*
X138138505Y-86437688D01*
X137887095Y-86269701D01*
X137607743Y-86153989D01*
X137311184Y-86095000D01*
X137008816Y-86095000D01*
X136712257Y-86153989D01*
X136432905Y-86269701D01*
X136181495Y-86437688D01*
X136115056Y-86504127D01*
X136109502Y-86485820D01*
X136050537Y-86375506D01*
X135971185Y-86278815D01*
X135874494Y-86199463D01*
X135764180Y-86140498D01*
X135644482Y-86104188D01*
X135520000Y-86091928D01*
X133913413Y-86091928D01*
X133905702Y-86085600D01*
X133669103Y-85849002D01*
X133645301Y-85819999D01*
X133529576Y-85725026D01*
X133397547Y-85654454D01*
X133254286Y-85610997D01*
X133180250Y-85603705D01*
X133116962Y-85508987D01*
X132931013Y-85323038D01*
X132712359Y-85176939D01*
X132498556Y-85088379D01*
X132661366Y-85028935D01*
X132762203Y-84975037D01*
X132821664Y-84741269D01*
X132080000Y-83999605D01*
X131338336Y-84741269D01*
X131397797Y-84975037D01*
X131636242Y-85085934D01*
X131655827Y-85090706D01*
X131447641Y-85176939D01*
X131228987Y-85323038D01*
X131043038Y-85508987D01*
X130896939Y-85727641D01*
X130835000Y-85877175D01*
X130835000Y-84302587D01*
X130871065Y-84401366D01*
X130924963Y-84502203D01*
X131158731Y-84561664D01*
X131900395Y-83820000D01*
X132259605Y-83820000D01*
X133001269Y-84561664D01*
X133235037Y-84502203D01*
X133345934Y-84263758D01*
X133408183Y-84008260D01*
X133419390Y-83745527D01*
X133379125Y-83485656D01*
X133288935Y-83238634D01*
X133235037Y-83137797D01*
X133001269Y-83078336D01*
X132259605Y-83820000D01*
X131900395Y-83820000D01*
X131158731Y-83078336D01*
X130924963Y-83137797D01*
X130835000Y-83331231D01*
X130835000Y-82898731D01*
X131338336Y-82898731D01*
X132080000Y-83640395D01*
X132821664Y-82898731D01*
X132762203Y-82664963D01*
X132523758Y-82554066D01*
X132268260Y-82491817D01*
X132005527Y-82480610D01*
X131745656Y-82520875D01*
X131498634Y-82611065D01*
X131397797Y-82664963D01*
X131338336Y-82898731D01*
X130835000Y-82898731D01*
X130835000Y-79222825D01*
X130896939Y-79372359D01*
X131043038Y-79591013D01*
X131228987Y-79776962D01*
X131447641Y-79923061D01*
X131690595Y-80023696D01*
X131948514Y-80075000D01*
X132211486Y-80075000D01*
X132469405Y-80023696D01*
X132634700Y-79955228D01*
X132634700Y-79972666D01*
X132631023Y-80010000D01*
X132645697Y-80158986D01*
X132689154Y-80302247D01*
X132759726Y-80434276D01*
X132798069Y-80480997D01*
X132854699Y-80550001D01*
X132970424Y-80644974D01*
X133081928Y-80704575D01*
X133081928Y-80910000D01*
X133094188Y-81034482D01*
X133130498Y-81154180D01*
X133189463Y-81264494D01*
X133268815Y-81361185D01*
X133365506Y-81440537D01*
X133475820Y-81499502D01*
X133595518Y-81535812D01*
X133720000Y-81548072D01*
X135520000Y-81548072D01*
X135644482Y-81535812D01*
X135764180Y-81499502D01*
X135874494Y-81440537D01*
X135971185Y-81361185D01*
X136050537Y-81264494D01*
X136109502Y-81154180D01*
X136115056Y-81135873D01*
X136181495Y-81202312D01*
X136432905Y-81370299D01*
X136712257Y-81486011D01*
X137008816Y-81545000D01*
X137311184Y-81545000D01*
X137607743Y-81486011D01*
X137887095Y-81370299D01*
X138138505Y-81202312D01*
X138352312Y-80988505D01*
X138520299Y-80737095D01*
X138636011Y-80457743D01*
X138695000Y-80161184D01*
X138695000Y-79858816D01*
X138636011Y-79562257D01*
X138520299Y-79282905D01*
X138352312Y-79031495D01*
X138138505Y-78817688D01*
X137887095Y-78649701D01*
X137607743Y-78533989D01*
X137311184Y-78475000D01*
X137008816Y-78475000D01*
X136712257Y-78533989D01*
X136432905Y-78649701D01*
X136181495Y-78817688D01*
X136115056Y-78884127D01*
X136109502Y-78865820D01*
X136050537Y-78755506D01*
X135971185Y-78658815D01*
X135874494Y-78579463D01*
X135764180Y-78520498D01*
X135644482Y-78484188D01*
X135520000Y-78471928D01*
X133913413Y-78471928D01*
X133905702Y-78465600D01*
X133669103Y-78229002D01*
X133645301Y-78199999D01*
X133529576Y-78105026D01*
X133397547Y-78034454D01*
X133254286Y-77990997D01*
X133180250Y-77983705D01*
X133116962Y-77888987D01*
X132931013Y-77703038D01*
X132712359Y-77556939D01*
X132469405Y-77456304D01*
X132211486Y-77405000D01*
X131948514Y-77405000D01*
X131690595Y-77456304D01*
X131447641Y-77556939D01*
X131228987Y-77703038D01*
X131043038Y-77888987D01*
X130896939Y-78107641D01*
X130835000Y-78257175D01*
X130835000Y-75300000D01*
X173311928Y-75300000D01*
X173311928Y-77000000D01*
X173324188Y-77124482D01*
X173360498Y-77244180D01*
X173419463Y-77354494D01*
X173498815Y-77451185D01*
X173595506Y-77530537D01*
X173705820Y-77589502D01*
X173786466Y-77613966D01*
X173702412Y-77689731D01*
X173528359Y-77923080D01*
X173403175Y-78185901D01*
X173358524Y-78333110D01*
X173479845Y-78563000D01*
X174673000Y-78563000D01*
X174673000Y-78543000D01*
X174927000Y-78543000D01*
X174927000Y-78563000D01*
X176120155Y-78563000D01*
X176241476Y-78333110D01*
X176196825Y-78185901D01*
X176071641Y-77923080D01*
X175897588Y-77689731D01*
X175813534Y-77613966D01*
X175894180Y-77589502D01*
X176004494Y-77530537D01*
X176101185Y-77451185D01*
X176180537Y-77354494D01*
X176239502Y-77244180D01*
X176275812Y-77124482D01*
X176288072Y-77000000D01*
X176288072Y-75300000D01*
X176275812Y-75175518D01*
X176239502Y-75055820D01*
X176180537Y-74945506D01*
X176101185Y-74848815D01*
X176004494Y-74769463D01*
X175894180Y-74710498D01*
X175774482Y-74674188D01*
X175650000Y-74661928D01*
X173950000Y-74661928D01*
X173825518Y-74674188D01*
X173705820Y-74710498D01*
X173595506Y-74769463D01*
X173498815Y-74848815D01*
X173419463Y-74945506D01*
X173360498Y-75055820D01*
X173324188Y-75175518D01*
X173311928Y-75300000D01*
X130835000Y-75300000D01*
X130835000Y-73685000D01*
X177140000Y-73685000D01*
X177140001Y-123800000D01*
%TA.AperFunction,Conductor*%
D21*
G36*
X177140001Y-123800000D02*
G01*
X130835000Y-123800000D01*
X130835000Y-122841269D01*
X131338336Y-122841269D01*
X131397797Y-123075037D01*
X131636242Y-123185934D01*
X131891740Y-123248183D01*
X132154473Y-123259390D01*
X132414344Y-123219125D01*
X132661366Y-123128935D01*
X132762203Y-123075037D01*
X132821664Y-122841269D01*
X132080000Y-122099605D01*
X131338336Y-122841269D01*
X130835000Y-122841269D01*
X130835000Y-122402587D01*
X130871065Y-122501366D01*
X130924963Y-122602203D01*
X131158731Y-122661664D01*
X131900395Y-121920000D01*
X132259605Y-121920000D01*
X133001269Y-122661664D01*
X133235037Y-122602203D01*
X133345934Y-122363758D01*
X133408183Y-122108260D01*
X133419390Y-121845527D01*
X133379125Y-121585656D01*
X133288935Y-121338634D01*
X133235037Y-121237797D01*
X133001269Y-121178336D01*
X132259605Y-121920000D01*
X131900395Y-121920000D01*
X131158731Y-121178336D01*
X130924963Y-121237797D01*
X130835000Y-121431231D01*
X130835000Y-120998731D01*
X131338336Y-120998731D01*
X132080000Y-121740395D01*
X132821664Y-120998731D01*
X132762203Y-120764963D01*
X132523758Y-120654066D01*
X132268260Y-120591817D01*
X132005527Y-120580610D01*
X131745656Y-120620875D01*
X131498634Y-120711065D01*
X131397797Y-120764963D01*
X131338336Y-120998731D01*
X130835000Y-120998731D01*
X130835000Y-117322825D01*
X130896939Y-117472359D01*
X131043038Y-117691013D01*
X131228987Y-117876962D01*
X131447641Y-118023061D01*
X131690595Y-118123696D01*
X131948514Y-118175000D01*
X132211486Y-118175000D01*
X132469405Y-118123696D01*
X132634700Y-118055228D01*
X132634700Y-118072666D01*
X132631023Y-118110000D01*
X132645697Y-118258986D01*
X132689154Y-118402247D01*
X132759726Y-118534276D01*
X132854699Y-118650001D01*
X132970424Y-118744974D01*
X133081928Y-118804575D01*
X133081928Y-119010000D01*
X133094188Y-119134482D01*
X133130498Y-119254180D01*
X133189463Y-119364494D01*
X133268815Y-119461185D01*
X133365506Y-119540537D01*
X133475820Y-119599502D01*
X133595518Y-119635812D01*
X133720000Y-119648072D01*
X135520000Y-119648072D01*
X135644482Y-119635812D01*
X135764180Y-119599502D01*
X135874494Y-119540537D01*
X135971185Y-119461185D01*
X136050537Y-119364494D01*
X136109502Y-119254180D01*
X136115056Y-119235873D01*
X136181495Y-119302312D01*
X136432905Y-119470299D01*
X136712257Y-119586011D01*
X137008816Y-119645000D01*
X137311184Y-119645000D01*
X137607743Y-119586011D01*
X137887095Y-119470299D01*
X138138505Y-119302312D01*
X138352312Y-119088505D01*
X138520299Y-118837095D01*
X138636011Y-118557743D01*
X138695000Y-118261184D01*
X138695000Y-117958816D01*
X138636011Y-117662257D01*
X138520299Y-117382905D01*
X138352312Y-117131495D01*
X138138505Y-116917688D01*
X137887095Y-116749701D01*
X137607743Y-116633989D01*
X137311184Y-116575000D01*
X137008816Y-116575000D01*
X136712257Y-116633989D01*
X136432905Y-116749701D01*
X136181495Y-116917688D01*
X136115056Y-116984127D01*
X136109502Y-116965820D01*
X136050537Y-116855506D01*
X135971185Y-116758815D01*
X135874494Y-116679463D01*
X135764180Y-116620498D01*
X135644482Y-116584188D01*
X135520000Y-116571928D01*
X133913413Y-116571928D01*
X133905702Y-116565600D01*
X133669103Y-116329002D01*
X133645301Y-116299999D01*
X133529576Y-116205026D01*
X133397547Y-116134454D01*
X133254286Y-116090997D01*
X133180250Y-116083705D01*
X133116962Y-115988987D01*
X132931013Y-115803038D01*
X132712359Y-115656939D01*
X132498556Y-115568379D01*
X132661366Y-115508935D01*
X132762203Y-115455037D01*
X132767958Y-115432408D01*
X140843000Y-115432408D01*
X140843000Y-115707592D01*
X140896686Y-115977490D01*
X141001995Y-116231727D01*
X141154880Y-116460535D01*
X141349465Y-116655120D01*
X141578273Y-116808005D01*
X141832510Y-116913314D01*
X142102408Y-116967000D01*
X142377592Y-116967000D01*
X142531571Y-116936372D01*
X147136201Y-121541003D01*
X147159999Y-121570001D01*
X147188997Y-121593799D01*
X147275723Y-121664974D01*
X147400633Y-121731740D01*
X147407753Y-121735546D01*
X147551014Y-121779003D01*
X147662667Y-121790000D01*
X147662676Y-121790000D01*
X147699999Y-121793676D01*
X147737322Y-121790000D01*
X171612359Y-121790000D01*
X171651875Y-121849140D01*
X171830860Y-122028125D01*
X172041324Y-122168753D01*
X172275179Y-122265619D01*
X172523439Y-122315000D01*
X172776561Y-122315000D01*
X173024821Y-122265619D01*
X173258676Y-122168753D01*
X173469140Y-122028125D01*
X173648125Y-121849140D01*
X173788753Y-121638676D01*
X173885619Y-121404821D01*
X173935000Y-121156561D01*
X173935000Y-120903439D01*
X173885619Y-120655179D01*
X173788753Y-120421324D01*
X173648125Y-120210860D01*
X173469140Y-120031875D01*
X173258676Y-119891247D01*
X173024821Y-119794381D01*
X172851973Y-119760000D01*
X173024821Y-119725619D01*
X173258676Y-119628753D01*
X173469140Y-119488125D01*
X173648125Y-119309140D01*
X173788753Y-119098676D01*
X173885619Y-118864821D01*
X173935000Y-118616561D01*
X173935000Y-118363439D01*
X173885619Y-118115179D01*
X173788753Y-117881324D01*
X173648125Y-117670860D01*
X173469140Y-117491875D01*
X173258676Y-117351247D01*
X173024821Y-117254381D01*
X172849256Y-117219460D01*
X172976449Y-117199270D01*
X173213896Y-117111578D01*
X173302534Y-117064201D01*
X173355922Y-116835527D01*
X172650000Y-116129605D01*
X171944078Y-116835527D01*
X171997466Y-117064201D01*
X172227374Y-117170095D01*
X172441211Y-117221356D01*
X172275179Y-117254381D01*
X172041324Y-117351247D01*
X171830860Y-117491875D01*
X171651875Y-117670860D01*
X171511247Y-117881324D01*
X171414381Y-118115179D01*
X171365000Y-118363439D01*
X171365000Y-118616561D01*
X171414381Y-118864821D01*
X171511247Y-119098676D01*
X171651875Y-119309140D01*
X171830860Y-119488125D01*
X172041324Y-119628753D01*
X172275179Y-119725619D01*
X172448027Y-119760000D01*
X172275179Y-119794381D01*
X172041324Y-119891247D01*
X171830860Y-120031875D01*
X171651875Y-120210860D01*
X171612359Y-120270000D01*
X148014802Y-120270000D01*
X143606372Y-115861571D01*
X143637000Y-115707592D01*
X143637000Y-115432408D01*
X143583314Y-115162510D01*
X143478005Y-114908273D01*
X143325120Y-114679465D01*
X143130535Y-114484880D01*
X142901727Y-114331995D01*
X142830057Y-114302308D01*
X142843023Y-114297636D01*
X142958980Y-114235656D01*
X143025960Y-113995565D01*
X142240000Y-113209605D01*
X141454040Y-113995565D01*
X141521020Y-114235656D01*
X141656760Y-114299485D01*
X141578273Y-114331995D01*
X141349465Y-114484880D01*
X141154880Y-114679465D01*
X141001995Y-114908273D01*
X140896686Y-115162510D01*
X140843000Y-115432408D01*
X132767958Y-115432408D01*
X132821664Y-115221269D01*
X132080000Y-114479605D01*
X131338336Y-115221269D01*
X131397797Y-115455037D01*
X131636242Y-115565934D01*
X131655827Y-115570706D01*
X131447641Y-115656939D01*
X131228987Y-115803038D01*
X131043038Y-115988987D01*
X130896939Y-116207641D01*
X130835000Y-116357175D01*
X130835000Y-114782587D01*
X130871065Y-114881366D01*
X130924963Y-114982203D01*
X131158731Y-115041664D01*
X131900395Y-114300000D01*
X132259605Y-114300000D01*
X133001269Y-115041664D01*
X133235037Y-114982203D01*
X133345934Y-114743758D01*
X133408183Y-114488260D01*
X133419390Y-114225527D01*
X133379125Y-113965656D01*
X133288935Y-113718634D01*
X133235037Y-113617797D01*
X133001269Y-113558336D01*
X132259605Y-114300000D01*
X131900395Y-114300000D01*
X131158731Y-113558336D01*
X130924963Y-113617797D01*
X130835000Y-113811231D01*
X130835000Y-113378731D01*
X131338336Y-113378731D01*
X132080000Y-114120395D01*
X132821664Y-113378731D01*
X132762203Y-113144963D01*
X132669863Y-113102017D01*
X140838090Y-113102017D01*
X140879078Y-113374133D01*
X140972364Y-113633023D01*
X141034344Y-113748980D01*
X141274435Y-113815960D01*
X142060395Y-113030000D01*
X142419605Y-113030000D01*
X143205565Y-113815960D01*
X143445656Y-113748980D01*
X143562756Y-113499952D01*
X143629023Y-113232865D01*
X143635157Y-113102017D01*
X166238090Y-113102017D01*
X166279078Y-113374133D01*
X166372364Y-113633023D01*
X166434344Y-113748980D01*
X166674435Y-113815960D01*
X167460395Y-113030000D01*
X167819605Y-113030000D01*
X168605565Y-113815960D01*
X168845656Y-113748980D01*
X168962756Y-113499952D01*
X169029023Y-113232865D01*
X169041910Y-112957983D01*
X169000922Y-112685867D01*
X168907636Y-112426977D01*
X168845656Y-112311020D01*
X168605565Y-112244040D01*
X167819605Y-113030000D01*
X167460395Y-113030000D01*
X166674435Y-112244040D01*
X166434344Y-112311020D01*
X166317244Y-112560048D01*
X166250977Y-112827135D01*
X166238090Y-113102017D01*
X143635157Y-113102017D01*
X143641910Y-112957983D01*
X143600922Y-112685867D01*
X143507636Y-112426977D01*
X143445656Y-112311020D01*
X143205565Y-112244040D01*
X142419605Y-113030000D01*
X142060395Y-113030000D01*
X141274435Y-112244040D01*
X141034344Y-112311020D01*
X140917244Y-112560048D01*
X140850977Y-112827135D01*
X140838090Y-113102017D01*
X132669863Y-113102017D01*
X132523758Y-113034066D01*
X132268260Y-112971817D01*
X132005527Y-112960610D01*
X131745656Y-113000875D01*
X131498634Y-113091065D01*
X131397797Y-113144963D01*
X131338336Y-113378731D01*
X130835000Y-113378731D01*
X130835000Y-109702825D01*
X130896939Y-109852359D01*
X131043038Y-110071013D01*
X131228987Y-110256962D01*
X131447641Y-110403061D01*
X131690595Y-110503696D01*
X131948514Y-110555000D01*
X132211486Y-110555000D01*
X132469405Y-110503696D01*
X132634700Y-110435228D01*
X132634700Y-110452666D01*
X132631023Y-110490000D01*
X132645697Y-110638986D01*
X132689154Y-110782247D01*
X132759726Y-110914276D01*
X132854699Y-111030001D01*
X132970424Y-111124974D01*
X133081928Y-111184575D01*
X133081928Y-111390000D01*
X133094188Y-111514482D01*
X133130498Y-111634180D01*
X133189463Y-111744494D01*
X133268815Y-111841185D01*
X133365506Y-111920537D01*
X133475820Y-111979502D01*
X133595518Y-112015812D01*
X133720000Y-112028072D01*
X135520000Y-112028072D01*
X135644482Y-112015812D01*
X135764180Y-111979502D01*
X135874494Y-111920537D01*
X135971185Y-111841185D01*
X136050537Y-111744494D01*
X136109502Y-111634180D01*
X136115056Y-111615873D01*
X136181495Y-111682312D01*
X136432905Y-111850299D01*
X136712257Y-111966011D01*
X137008816Y-112025000D01*
X137311184Y-112025000D01*
X137607743Y-111966011D01*
X137887095Y-111850299D01*
X138138505Y-111682312D01*
X138352312Y-111468505D01*
X138520299Y-111217095D01*
X138636011Y-110937743D01*
X138695000Y-110641184D01*
X138695000Y-110338816D01*
X138636011Y-110042257D01*
X138520299Y-109762905D01*
X138352312Y-109511495D01*
X138138505Y-109297688D01*
X137920000Y-109151687D01*
X137920000Y-108264801D01*
X140843000Y-105341802D01*
X140843000Y-105547592D01*
X140896686Y-105817490D01*
X141001995Y-106071727D01*
X141154880Y-106300535D01*
X141349465Y-106495120D01*
X141578273Y-106648005D01*
X141655515Y-106680000D01*
X141578273Y-106711995D01*
X141349465Y-106864880D01*
X141154880Y-107059465D01*
X141001995Y-107288273D01*
X140896686Y-107542510D01*
X140843000Y-107812408D01*
X140843000Y-108087592D01*
X140896686Y-108357490D01*
X141001995Y-108611727D01*
X141154880Y-108840535D01*
X141349465Y-109035120D01*
X141578273Y-109188005D01*
X141655515Y-109220000D01*
X141578273Y-109251995D01*
X141349465Y-109404880D01*
X141154880Y-109599465D01*
X141001995Y-109828273D01*
X140896686Y-110082510D01*
X140843000Y-110352408D01*
X140843000Y-110627592D01*
X140896686Y-110897490D01*
X141001995Y-111151727D01*
X141154880Y-111380535D01*
X141349465Y-111575120D01*
X141578273Y-111728005D01*
X141649943Y-111757692D01*
X141636977Y-111762364D01*
X141521020Y-111824344D01*
X141454040Y-112064435D01*
X142240000Y-112850395D01*
X143025960Y-112064435D01*
X142958980Y-111824344D01*
X142823240Y-111760515D01*
X142901727Y-111728005D01*
X143130535Y-111575120D01*
X143325120Y-111380535D01*
X143478005Y-111151727D01*
X143583314Y-110897490D01*
X143637000Y-110627592D01*
X143637000Y-110352408D01*
X143583314Y-110082510D01*
X143478005Y-109828273D01*
X143325120Y-109599465D01*
X143130535Y-109404880D01*
X142901727Y-109251995D01*
X142824485Y-109220000D01*
X142901727Y-109188005D01*
X143130535Y-109035120D01*
X143325120Y-108840535D01*
X143478005Y-108611727D01*
X143583314Y-108357490D01*
X143637000Y-108087592D01*
X143637000Y-107812408D01*
X143583314Y-107542510D01*
X143478005Y-107288273D01*
X143325120Y-107059465D01*
X143130535Y-106864880D01*
X142901727Y-106711995D01*
X142824485Y-106680000D01*
X142901727Y-106648005D01*
X143130535Y-106495120D01*
X143325120Y-106300535D01*
X143478005Y-106071727D01*
X143583314Y-105817490D01*
X143637000Y-105547592D01*
X143637000Y-105272408D01*
X143583314Y-105002510D01*
X143478005Y-104748273D01*
X143325120Y-104519465D01*
X143130535Y-104324880D01*
X142901727Y-104171995D01*
X142824485Y-104140000D01*
X142901727Y-104108005D01*
X143130535Y-103955120D01*
X143325120Y-103760535D01*
X143478005Y-103531727D01*
X143583314Y-103277490D01*
X143637000Y-103007592D01*
X143637000Y-102732408D01*
X143583314Y-102462510D01*
X143478005Y-102208273D01*
X143325120Y-101979465D01*
X143130535Y-101784880D01*
X142901727Y-101631995D01*
X142824485Y-101600000D01*
X142901727Y-101568005D01*
X143130535Y-101415120D01*
X143325120Y-101220535D01*
X143478005Y-100991727D01*
X143583314Y-100737490D01*
X143637000Y-100467592D01*
X143637000Y-100192408D01*
X143583314Y-99922510D01*
X143478005Y-99668273D01*
X143325120Y-99439465D01*
X143130535Y-99244880D01*
X142901727Y-99091995D01*
X142824485Y-99060000D01*
X142901727Y-99028005D01*
X143130535Y-98875120D01*
X143325120Y-98680535D01*
X143478005Y-98451727D01*
X143583314Y-98197490D01*
X143637000Y-97927592D01*
X143637000Y-97652408D01*
X143583314Y-97382510D01*
X143478005Y-97128273D01*
X143325120Y-96899465D01*
X143130535Y-96704880D01*
X142901727Y-96551995D01*
X142824485Y-96520000D01*
X142901727Y-96488005D01*
X143130535Y-96335120D01*
X143325120Y-96140535D01*
X143478005Y-95911727D01*
X143583314Y-95657490D01*
X143637000Y-95387592D01*
X143637000Y-95112408D01*
X143583314Y-94842510D01*
X143478005Y-94588273D01*
X143325120Y-94359465D01*
X143130535Y-94164880D01*
X142901727Y-94011995D01*
X142824485Y-93980000D01*
X142901727Y-93948005D01*
X143130535Y-93795120D01*
X143325120Y-93600535D01*
X143478005Y-93371727D01*
X143583314Y-93117490D01*
X143637000Y-92847592D01*
X143637000Y-92572408D01*
X143583314Y-92302510D01*
X143478005Y-92048273D01*
X143325120Y-91819465D01*
X143130535Y-91624880D01*
X142901727Y-91471995D01*
X142824485Y-91440000D01*
X142901727Y-91408005D01*
X143130535Y-91255120D01*
X143325120Y-91060535D01*
X143478005Y-90831727D01*
X143583314Y-90577490D01*
X143637000Y-90307592D01*
X143637000Y-90101801D01*
X160580900Y-107045702D01*
X160604699Y-107074701D01*
X160633697Y-107098499D01*
X160720423Y-107169674D01*
X160779024Y-107200997D01*
X160852453Y-107240246D01*
X160995714Y-107283703D01*
X161107367Y-107294700D01*
X161107376Y-107294700D01*
X161144699Y-107298376D01*
X161182022Y-107294700D01*
X166399333Y-107294700D01*
X166296686Y-107542510D01*
X166243000Y-107812408D01*
X166243000Y-108087592D01*
X166296686Y-108357490D01*
X166401995Y-108611727D01*
X166554880Y-108840535D01*
X166749465Y-109035120D01*
X166978273Y-109188005D01*
X167055515Y-109220000D01*
X166978273Y-109251995D01*
X166749465Y-109404880D01*
X166554880Y-109599465D01*
X166401995Y-109828273D01*
X166296686Y-110082510D01*
X166243000Y-110352408D01*
X166243000Y-110627592D01*
X166296686Y-110897490D01*
X166401995Y-111151727D01*
X166554880Y-111380535D01*
X166749465Y-111575120D01*
X166978273Y-111728005D01*
X167049943Y-111757692D01*
X167036977Y-111762364D01*
X166921020Y-111824344D01*
X166854040Y-112064435D01*
X167640000Y-112850395D01*
X168425960Y-112064435D01*
X168358980Y-111824344D01*
X168223240Y-111760515D01*
X168301727Y-111728005D01*
X168530535Y-111575120D01*
X168725120Y-111380535D01*
X168878005Y-111151727D01*
X168983314Y-110897490D01*
X169037000Y-110627592D01*
X169037000Y-110352408D01*
X168983314Y-110082510D01*
X168878005Y-109828273D01*
X168725120Y-109599465D01*
X168530535Y-109404880D01*
X168301727Y-109251995D01*
X168224485Y-109220000D01*
X168301727Y-109188005D01*
X168530535Y-109035120D01*
X168725120Y-108840535D01*
X168878005Y-108611727D01*
X168983314Y-108357490D01*
X169037000Y-108087592D01*
X169037000Y-107812408D01*
X168983314Y-107542510D01*
X168880667Y-107294700D01*
X172214599Y-107294700D01*
X173140901Y-108221003D01*
X173164699Y-108250001D01*
X173280424Y-108344974D01*
X173412453Y-108415546D01*
X173555714Y-108459003D01*
X173597204Y-108463089D01*
X173726525Y-108656632D01*
X173933368Y-108863475D01*
X174176589Y-109025990D01*
X174219806Y-109043891D01*
X168654677Y-114609022D01*
X168530535Y-114484880D01*
X168301727Y-114331995D01*
X168230057Y-114302308D01*
X168243023Y-114297636D01*
X168358980Y-114235656D01*
X168425960Y-113995565D01*
X167640000Y-113209605D01*
X166854040Y-113995565D01*
X166921020Y-114235656D01*
X167056760Y-114299485D01*
X166978273Y-114331995D01*
X166749465Y-114484880D01*
X166554880Y-114679465D01*
X166401995Y-114908273D01*
X166296686Y-115162510D01*
X166243000Y-115432408D01*
X166243000Y-115707592D01*
X166296686Y-115977490D01*
X166401995Y-116231727D01*
X166554880Y-116460535D01*
X166749465Y-116655120D01*
X166978273Y-116808005D01*
X167232510Y-116913314D01*
X167502408Y-116967000D01*
X167777592Y-116967000D01*
X168047490Y-116913314D01*
X168301727Y-116808005D01*
X168530535Y-116655120D01*
X168725120Y-116460535D01*
X168812799Y-116329314D01*
X168917486Y-116319003D01*
X169060747Y-116275546D01*
X169192776Y-116204974D01*
X169308501Y-116110001D01*
X169332304Y-116080997D01*
X169386846Y-116026455D01*
X171361048Y-116026455D01*
X171400730Y-116276449D01*
X171488422Y-116513896D01*
X171535799Y-116602534D01*
X171764473Y-116655922D01*
X172470395Y-115950000D01*
X172829605Y-115950000D01*
X173535527Y-116655922D01*
X173764201Y-116602534D01*
X173870095Y-116372626D01*
X173929102Y-116126476D01*
X173938952Y-115873545D01*
X173899270Y-115623551D01*
X173811578Y-115386104D01*
X173764201Y-115297466D01*
X173535527Y-115244078D01*
X172829605Y-115950000D01*
X172470395Y-115950000D01*
X171764473Y-115244078D01*
X171535799Y-115297466D01*
X171429905Y-115527374D01*
X171370898Y-115773524D01*
X171361048Y-116026455D01*
X169386846Y-116026455D01*
X171477089Y-113936212D01*
X171511247Y-114018676D01*
X171651875Y-114229140D01*
X171830860Y-114408125D01*
X172041324Y-114548753D01*
X172275179Y-114645619D01*
X172450744Y-114680540D01*
X172323551Y-114700730D01*
X172086104Y-114788422D01*
X171997466Y-114835799D01*
X171944078Y-115064473D01*
X172650000Y-115770395D01*
X173355922Y-115064473D01*
X173302534Y-114835799D01*
X173072626Y-114729905D01*
X172858789Y-114678644D01*
X173024821Y-114645619D01*
X173258676Y-114548753D01*
X173469140Y-114408125D01*
X173648125Y-114229140D01*
X173788753Y-114018676D01*
X173885619Y-113784821D01*
X173935000Y-113536561D01*
X173935000Y-113283439D01*
X173885619Y-113035179D01*
X173788753Y-112801324D01*
X173648125Y-112590860D01*
X173469140Y-112411875D01*
X173258676Y-112271247D01*
X173176213Y-112237089D01*
X176566309Y-108846994D01*
X176595301Y-108823201D01*
X176619095Y-108794208D01*
X176619099Y-108794204D01*
X176690273Y-108707477D01*
X176690274Y-108707476D01*
X176760846Y-108575447D01*
X176804303Y-108432186D01*
X176815300Y-108320533D01*
X176815300Y-108320524D01*
X176818976Y-108283201D01*
X176815300Y-108245878D01*
X176815300Y-102110522D01*
X176818976Y-102073199D01*
X176815300Y-102035876D01*
X176815300Y-102035867D01*
X176804303Y-101924214D01*
X176760846Y-101780953D01*
X176743759Y-101748986D01*
X176690274Y-101648923D01*
X176619099Y-101562197D01*
X176595301Y-101533199D01*
X176566302Y-101509401D01*
X176292186Y-101235284D01*
X176319502Y-101184180D01*
X176355812Y-101064482D01*
X176368072Y-100940000D01*
X176368072Y-99240000D01*
X176355812Y-99115518D01*
X176319502Y-98995820D01*
X176260537Y-98885506D01*
X176181185Y-98788815D01*
X176084494Y-98709463D01*
X175974180Y-98650498D01*
X175854482Y-98614188D01*
X175730000Y-98601928D01*
X174030000Y-98601928D01*
X173905518Y-98614188D01*
X173785820Y-98650498D01*
X173675506Y-98709463D01*
X173578815Y-98788815D01*
X173499463Y-98885506D01*
X173440498Y-98995820D01*
X173404188Y-99115518D01*
X173391928Y-99240000D01*
X173391928Y-100940000D01*
X173404188Y-101064482D01*
X173440498Y-101184180D01*
X173499463Y-101294494D01*
X173578815Y-101391185D01*
X173675506Y-101470537D01*
X173785820Y-101529502D01*
X173866466Y-101553966D01*
X173782412Y-101629731D01*
X173608359Y-101863080D01*
X173483175Y-102125901D01*
X173438524Y-102273110D01*
X173559845Y-102503000D01*
X174753000Y-102503000D01*
X174753000Y-102483000D01*
X175007000Y-102483000D01*
X175007000Y-102503000D01*
X175027000Y-102503000D01*
X175027000Y-102757000D01*
X175007000Y-102757000D01*
X175007000Y-102777000D01*
X174753000Y-102777000D01*
X174753000Y-102757000D01*
X173559845Y-102757000D01*
X173438524Y-102986890D01*
X173483175Y-103134099D01*
X173608359Y-103396920D01*
X173782412Y-103630269D01*
X173998645Y-103825178D01*
X174115534Y-103894805D01*
X173933368Y-104016525D01*
X173726525Y-104223368D01*
X173564010Y-104466589D01*
X173452068Y-104736842D01*
X173395000Y-105023740D01*
X173395000Y-105316260D01*
X173452068Y-105603158D01*
X173564010Y-105873411D01*
X173726525Y-106116632D01*
X173933368Y-106323475D01*
X174107760Y-106440000D01*
X173933368Y-106556525D01*
X173779697Y-106710196D01*
X173093204Y-106023703D01*
X173069401Y-105994699D01*
X172953676Y-105899726D01*
X172821647Y-105829154D01*
X172678386Y-105785697D01*
X172566733Y-105774700D01*
X172566722Y-105774700D01*
X172529400Y-105771024D01*
X172492078Y-105774700D01*
X168991825Y-105774700D01*
X169037000Y-105547592D01*
X169037000Y-105272408D01*
X168983314Y-105002510D01*
X168878005Y-104748273D01*
X168725120Y-104519465D01*
X168530535Y-104324880D01*
X168301727Y-104171995D01*
X168224485Y-104140000D01*
X168301727Y-104108005D01*
X168530535Y-103955120D01*
X168725120Y-103760535D01*
X168758886Y-103710000D01*
X169761822Y-103710000D01*
X169886525Y-103896632D01*
X170093368Y-104103475D01*
X170336589Y-104265990D01*
X170606842Y-104377932D01*
X170893740Y-104435000D01*
X171186260Y-104435000D01*
X171473158Y-104377932D01*
X171743411Y-104265990D01*
X171986632Y-104103475D01*
X172193475Y-103896632D01*
X172355990Y-103653411D01*
X172467932Y-103383158D01*
X172525000Y-103096260D01*
X172525000Y-102803740D01*
X172467932Y-102516842D01*
X172355990Y-102246589D01*
X172193475Y-102003368D01*
X171986632Y-101796525D01*
X171812240Y-101680000D01*
X171986632Y-101563475D01*
X172193475Y-101356632D01*
X172355990Y-101113411D01*
X172467932Y-100843158D01*
X172525000Y-100556260D01*
X172525000Y-100263740D01*
X172467932Y-99976842D01*
X172355990Y-99706589D01*
X172193475Y-99463368D01*
X171986632Y-99256525D01*
X171812240Y-99140000D01*
X171986632Y-99023475D01*
X172193475Y-98816632D01*
X172355990Y-98573411D01*
X172467932Y-98303158D01*
X172525000Y-98016260D01*
X172525000Y-97723740D01*
X172467932Y-97436842D01*
X172355990Y-97166589D01*
X172193475Y-96923368D01*
X172061620Y-96791513D01*
X172134180Y-96769502D01*
X172244494Y-96710537D01*
X172341185Y-96631185D01*
X172420537Y-96534494D01*
X172479502Y-96424180D01*
X172515812Y-96304482D01*
X172528072Y-96180000D01*
X172528072Y-94480000D01*
X172515812Y-94355518D01*
X172479502Y-94235820D01*
X172420537Y-94125506D01*
X172341185Y-94028815D01*
X172244494Y-93949463D01*
X172134180Y-93890498D01*
X172014482Y-93854188D01*
X171890000Y-93841928D01*
X170190000Y-93841928D01*
X170065518Y-93854188D01*
X169945820Y-93890498D01*
X169835506Y-93949463D01*
X169738815Y-94028815D01*
X169659463Y-94125506D01*
X169600498Y-94235820D01*
X169564188Y-94355518D01*
X169551928Y-94480000D01*
X169551928Y-96180000D01*
X169564188Y-96304482D01*
X169600498Y-96424180D01*
X169659463Y-96534494D01*
X169738815Y-96631185D01*
X169835506Y-96710537D01*
X169945820Y-96769502D01*
X170018380Y-96791513D01*
X169886525Y-96923368D01*
X169724010Y-97166589D01*
X169612068Y-97436842D01*
X169555000Y-97723740D01*
X169555000Y-98016260D01*
X169612068Y-98303158D01*
X169724010Y-98573411D01*
X169886525Y-98816632D01*
X170093368Y-99023475D01*
X170267760Y-99140000D01*
X170093368Y-99256525D01*
X169886525Y-99463368D01*
X169761822Y-99650000D01*
X168865795Y-99650000D01*
X168725120Y-99439465D01*
X168530535Y-99244880D01*
X168301727Y-99091995D01*
X168224485Y-99060000D01*
X168301727Y-99028005D01*
X168530535Y-98875120D01*
X168725120Y-98680535D01*
X168878005Y-98451727D01*
X168983314Y-98197490D01*
X169037000Y-97927592D01*
X169037000Y-97652408D01*
X168983314Y-97382510D01*
X168878005Y-97128273D01*
X168725120Y-96899465D01*
X168530535Y-96704880D01*
X168301727Y-96551995D01*
X168224485Y-96520000D01*
X168301727Y-96488005D01*
X168530535Y-96335120D01*
X168725120Y-96140535D01*
X168878005Y-95911727D01*
X168983314Y-95657490D01*
X169037000Y-95387592D01*
X169037000Y-95112408D01*
X168983314Y-94842510D01*
X168878005Y-94588273D01*
X168725120Y-94359465D01*
X168530535Y-94164880D01*
X168301727Y-94011995D01*
X168224485Y-93980000D01*
X168301727Y-93948005D01*
X168530535Y-93795120D01*
X168725120Y-93600535D01*
X168878005Y-93371727D01*
X168983314Y-93117490D01*
X169037000Y-92847592D01*
X169037000Y-92572408D01*
X168983314Y-92302510D01*
X168878005Y-92048273D01*
X168725120Y-91819465D01*
X168530535Y-91624880D01*
X168301727Y-91471995D01*
X168224485Y-91440000D01*
X168301727Y-91408005D01*
X168530535Y-91255120D01*
X168725120Y-91060535D01*
X168878005Y-90831727D01*
X168983314Y-90577490D01*
X169037000Y-90307592D01*
X169037000Y-90032408D01*
X168983314Y-89762510D01*
X168878005Y-89508273D01*
X168725120Y-89279465D01*
X168679178Y-89233523D01*
X173470912Y-84441790D01*
X173484010Y-84473411D01*
X173646525Y-84716632D01*
X173853368Y-84923475D01*
X174027760Y-85040000D01*
X173853368Y-85156525D01*
X173646525Y-85363368D01*
X173484010Y-85606589D01*
X173372068Y-85876842D01*
X173315000Y-86163740D01*
X173315000Y-86456260D01*
X173372068Y-86743158D01*
X173484010Y-87013411D01*
X173646525Y-87256632D01*
X173853368Y-87463475D01*
X174027760Y-87580000D01*
X173853368Y-87696525D01*
X173646525Y-87903368D01*
X173484010Y-88146589D01*
X173372068Y-88416842D01*
X173315000Y-88703740D01*
X173315000Y-88996260D01*
X173372068Y-89283158D01*
X173484010Y-89553411D01*
X173646525Y-89796632D01*
X173853368Y-90003475D01*
X174027760Y-90120000D01*
X173853368Y-90236525D01*
X173646525Y-90443368D01*
X173484010Y-90686589D01*
X173372068Y-90956842D01*
X173315000Y-91243740D01*
X173315000Y-91536260D01*
X173372068Y-91823158D01*
X173484010Y-92093411D01*
X173646525Y-92336632D01*
X173853368Y-92543475D01*
X174027760Y-92660000D01*
X173853368Y-92776525D01*
X173646525Y-92983368D01*
X173484010Y-93226589D01*
X173372068Y-93496842D01*
X173315000Y-93783740D01*
X173315000Y-94076260D01*
X173372068Y-94363158D01*
X173484010Y-94633411D01*
X173646525Y-94876632D01*
X173853368Y-95083475D01*
X174096589Y-95245990D01*
X174366842Y-95357932D01*
X174653740Y-95415000D01*
X174946260Y-95415000D01*
X175233158Y-95357932D01*
X175503411Y-95245990D01*
X175746632Y-95083475D01*
X175953475Y-94876632D01*
X176115990Y-94633411D01*
X176227932Y-94363158D01*
X176285000Y-94076260D01*
X176285000Y-93783740D01*
X176227932Y-93496842D01*
X176115990Y-93226589D01*
X175953475Y-92983368D01*
X175746632Y-92776525D01*
X175572240Y-92660000D01*
X175746632Y-92543475D01*
X175953475Y-92336632D01*
X176115990Y-92093411D01*
X176227932Y-91823158D01*
X176285000Y-91536260D01*
X176285000Y-91243740D01*
X176227932Y-90956842D01*
X176115990Y-90686589D01*
X175953475Y-90443368D01*
X175746632Y-90236525D01*
X175572240Y-90120000D01*
X175746632Y-90003475D01*
X175953475Y-89796632D01*
X176115990Y-89553411D01*
X176227932Y-89283158D01*
X176285000Y-88996260D01*
X176285000Y-88703740D01*
X176227932Y-88416842D01*
X176115990Y-88146589D01*
X175953475Y-87903368D01*
X175746632Y-87696525D01*
X175572240Y-87580000D01*
X175746632Y-87463475D01*
X175953475Y-87256632D01*
X176115990Y-87013411D01*
X176227932Y-86743158D01*
X176285000Y-86456260D01*
X176285000Y-86163740D01*
X176227932Y-85876842D01*
X176115990Y-85606589D01*
X175953475Y-85363368D01*
X175746632Y-85156525D01*
X175572240Y-85040000D01*
X175746632Y-84923475D01*
X175953475Y-84716632D01*
X176115990Y-84473411D01*
X176227932Y-84203158D01*
X176285000Y-83916260D01*
X176285000Y-83623740D01*
X176227932Y-83336842D01*
X176115990Y-83066589D01*
X175953475Y-82823368D01*
X175746632Y-82616525D01*
X175572240Y-82500000D01*
X175746632Y-82383475D01*
X175953475Y-82176632D01*
X176115990Y-81933411D01*
X176227932Y-81663158D01*
X176285000Y-81376260D01*
X176285000Y-81083740D01*
X176227932Y-80796842D01*
X176115990Y-80526589D01*
X175953475Y-80283368D01*
X175746632Y-80076525D01*
X175564466Y-79954805D01*
X175681355Y-79885178D01*
X175897588Y-79690269D01*
X176071641Y-79456920D01*
X176196825Y-79194099D01*
X176241476Y-79046890D01*
X176120155Y-78817000D01*
X174927000Y-78817000D01*
X174927000Y-78837000D01*
X174673000Y-78837000D01*
X174673000Y-78817000D01*
X173479845Y-78817000D01*
X173358524Y-79046890D01*
X173403175Y-79194099D01*
X173528359Y-79456920D01*
X173702412Y-79690269D01*
X173918645Y-79885178D01*
X174035534Y-79954805D01*
X173853368Y-80076525D01*
X173646525Y-80283368D01*
X173484010Y-80526589D01*
X173372068Y-80796842D01*
X173315000Y-81083740D01*
X173315000Y-81376260D01*
X173372068Y-81663158D01*
X173484010Y-81933411D01*
X173622469Y-82140629D01*
X168844688Y-86918411D01*
X168725120Y-86739465D01*
X168530535Y-86544880D01*
X168301727Y-86391995D01*
X168224485Y-86360000D01*
X168301727Y-86328005D01*
X168530535Y-86175120D01*
X168725120Y-85980535D01*
X168878005Y-85751727D01*
X168983314Y-85497490D01*
X169037000Y-85227592D01*
X169037000Y-84952408D01*
X168983314Y-84682510D01*
X168878005Y-84428273D01*
X168725120Y-84199465D01*
X168530535Y-84004880D01*
X168301727Y-83851995D01*
X168224485Y-83820000D01*
X168301727Y-83788005D01*
X168530535Y-83635120D01*
X168725120Y-83440535D01*
X168878005Y-83211727D01*
X168983314Y-82957490D01*
X169037000Y-82687592D01*
X169037000Y-82412408D01*
X168983314Y-82142510D01*
X168878005Y-81888273D01*
X168725120Y-81659465D01*
X168530535Y-81464880D01*
X168301727Y-81311995D01*
X168224485Y-81280000D01*
X168301727Y-81248005D01*
X168530535Y-81095120D01*
X168725120Y-80900535D01*
X168878005Y-80671727D01*
X168983314Y-80417490D01*
X169037000Y-80147592D01*
X169037000Y-79872408D01*
X168983314Y-79602510D01*
X168878005Y-79348273D01*
X168725120Y-79119465D01*
X168530535Y-78924880D01*
X168301727Y-78771995D01*
X168047490Y-78666686D01*
X167777592Y-78613000D01*
X167502408Y-78613000D01*
X167232510Y-78666686D01*
X166978273Y-78771995D01*
X166749465Y-78924880D01*
X166554880Y-79119465D01*
X166401995Y-79348273D01*
X166296686Y-79602510D01*
X166243000Y-79872408D01*
X166243000Y-80147592D01*
X166296686Y-80417490D01*
X166401995Y-80671727D01*
X166554880Y-80900535D01*
X166749465Y-81095120D01*
X166978273Y-81248005D01*
X167055515Y-81280000D01*
X166978273Y-81311995D01*
X166749465Y-81464880D01*
X166554880Y-81659465D01*
X166401995Y-81888273D01*
X166296686Y-82142510D01*
X166243000Y-82412408D01*
X166243000Y-82687592D01*
X166296686Y-82957490D01*
X166401995Y-83211727D01*
X166554880Y-83440535D01*
X166749465Y-83635120D01*
X166978273Y-83788005D01*
X167055515Y-83820000D01*
X166978273Y-83851995D01*
X166749465Y-84004880D01*
X166554880Y-84199465D01*
X166401995Y-84428273D01*
X166296686Y-84682510D01*
X166243000Y-84952408D01*
X166243000Y-85227592D01*
X166296686Y-85497490D01*
X166401995Y-85751727D01*
X166554880Y-85980535D01*
X166749465Y-86175120D01*
X166978273Y-86328005D01*
X167055515Y-86360000D01*
X166978273Y-86391995D01*
X166749465Y-86544880D01*
X166554880Y-86739465D01*
X166401995Y-86968273D01*
X166296686Y-87222510D01*
X166243000Y-87492408D01*
X166243000Y-87767592D01*
X166296686Y-88037490D01*
X166401995Y-88291727D01*
X166554880Y-88520535D01*
X166749465Y-88715120D01*
X166960814Y-88856339D01*
X166934454Y-88905654D01*
X166913293Y-88975413D01*
X166749465Y-89084880D01*
X166554880Y-89279465D01*
X166401995Y-89508273D01*
X166296686Y-89762510D01*
X166243000Y-90032408D01*
X166243000Y-90307592D01*
X166296686Y-90577490D01*
X166401995Y-90831727D01*
X166554880Y-91060535D01*
X166749465Y-91255120D01*
X166978273Y-91408005D01*
X167055515Y-91440000D01*
X166978273Y-91471995D01*
X166749465Y-91624880D01*
X166554880Y-91819465D01*
X166401995Y-92048273D01*
X166296686Y-92302510D01*
X166243000Y-92572408D01*
X166243000Y-92847592D01*
X166296686Y-93117490D01*
X166401995Y-93371727D01*
X166554880Y-93600535D01*
X166749465Y-93795120D01*
X166978273Y-93948005D01*
X167055515Y-93980000D01*
X166978273Y-94011995D01*
X166749465Y-94164880D01*
X166554880Y-94359465D01*
X166401995Y-94588273D01*
X166296686Y-94842510D01*
X166243000Y-95112408D01*
X166243000Y-95387592D01*
X166296686Y-95657490D01*
X166401995Y-95911727D01*
X166554880Y-96140535D01*
X166749465Y-96335120D01*
X166978273Y-96488005D01*
X167055515Y-96520000D01*
X166978273Y-96551995D01*
X166749465Y-96704880D01*
X166554880Y-96899465D01*
X166401995Y-97128273D01*
X166296686Y-97382510D01*
X166243000Y-97652408D01*
X166243000Y-97927592D01*
X166296686Y-98197490D01*
X166401995Y-98451727D01*
X166554880Y-98680535D01*
X166749465Y-98875120D01*
X166978273Y-99028005D01*
X167055515Y-99060000D01*
X166978273Y-99091995D01*
X166749465Y-99244880D01*
X166554880Y-99439465D01*
X166401995Y-99668273D01*
X166296686Y-99922510D01*
X166243000Y-100192408D01*
X166243000Y-100467592D01*
X166296686Y-100737490D01*
X166401995Y-100991727D01*
X166554880Y-101220535D01*
X166749465Y-101415120D01*
X166978273Y-101568005D01*
X167055515Y-101600000D01*
X166978273Y-101631995D01*
X166749465Y-101784880D01*
X166554880Y-101979465D01*
X166401995Y-102208273D01*
X166296686Y-102462510D01*
X166243000Y-102732408D01*
X166243000Y-103007592D01*
X166296686Y-103277490D01*
X166401995Y-103531727D01*
X166554880Y-103760535D01*
X166749465Y-103955120D01*
X166978273Y-104108005D01*
X167055515Y-104140000D01*
X166978273Y-104171995D01*
X166749465Y-104324880D01*
X166554880Y-104519465D01*
X166401995Y-104748273D01*
X166296686Y-105002510D01*
X166243000Y-105272408D01*
X166243000Y-105547592D01*
X166288175Y-105774700D01*
X161459502Y-105774700D01*
X143606372Y-87921571D01*
X143637000Y-87767592D01*
X143637000Y-87492408D01*
X143583314Y-87222510D01*
X143478005Y-86968273D01*
X143325120Y-86739465D01*
X143130535Y-86544880D01*
X142901727Y-86391995D01*
X142824485Y-86360000D01*
X142901727Y-86328005D01*
X143130535Y-86175120D01*
X143325120Y-85980535D01*
X143478005Y-85751727D01*
X143583314Y-85497490D01*
X143637000Y-85227592D01*
X143637000Y-84952408D01*
X143583314Y-84682510D01*
X143478005Y-84428273D01*
X143325120Y-84199465D01*
X143130535Y-84004880D01*
X142901727Y-83851995D01*
X142824485Y-83820000D01*
X142901727Y-83788005D01*
X143130535Y-83635120D01*
X143325120Y-83440535D01*
X143478005Y-83211727D01*
X143583314Y-82957490D01*
X143637000Y-82687592D01*
X143637000Y-82412408D01*
X143583314Y-82142510D01*
X143478005Y-81888273D01*
X143325120Y-81659465D01*
X143130535Y-81464880D01*
X143042535Y-81406080D01*
X143126482Y-81397812D01*
X143246180Y-81361502D01*
X143356494Y-81302537D01*
X143453185Y-81223185D01*
X143532537Y-81126494D01*
X143591502Y-81016180D01*
X143627812Y-80896482D01*
X143640072Y-80772000D01*
X143640072Y-79248000D01*
X143627812Y-79123518D01*
X143591502Y-79003820D01*
X143532537Y-78893506D01*
X143453185Y-78796815D01*
X143356494Y-78717463D01*
X143246180Y-78658498D01*
X143126482Y-78622188D01*
X143002000Y-78609928D01*
X141478000Y-78609928D01*
X141353518Y-78622188D01*
X141233820Y-78658498D01*
X141123506Y-78717463D01*
X141026815Y-78796815D01*
X140947463Y-78893506D01*
X140888498Y-79003820D01*
X140852188Y-79123518D01*
X140839928Y-79248000D01*
X140839928Y-80772000D01*
X140852188Y-80896482D01*
X140888498Y-81016180D01*
X140947463Y-81126494D01*
X141026815Y-81223185D01*
X141123506Y-81302537D01*
X141233820Y-81361502D01*
X141353518Y-81397812D01*
X141437465Y-81406080D01*
X141349465Y-81464880D01*
X141154880Y-81659465D01*
X141001995Y-81888273D01*
X140896686Y-82142510D01*
X140843000Y-82412408D01*
X140843000Y-82687592D01*
X140896686Y-82957490D01*
X141001995Y-83211727D01*
X141154880Y-83440535D01*
X141349465Y-83635120D01*
X141578273Y-83788005D01*
X141655515Y-83820000D01*
X141578273Y-83851995D01*
X141349465Y-84004880D01*
X141154880Y-84199465D01*
X141001995Y-84428273D01*
X140896686Y-84682510D01*
X140843000Y-84952408D01*
X140843000Y-85227592D01*
X140896686Y-85497490D01*
X141001995Y-85751727D01*
X141154880Y-85980535D01*
X141349465Y-86175120D01*
X141578273Y-86328005D01*
X141655515Y-86360000D01*
X141578273Y-86391995D01*
X141349465Y-86544880D01*
X141154880Y-86739465D01*
X141001995Y-86968273D01*
X140896686Y-87222510D01*
X140843000Y-87492408D01*
X140843000Y-87767592D01*
X140896686Y-88037490D01*
X141001995Y-88291727D01*
X141154880Y-88520535D01*
X141349465Y-88715120D01*
X141578273Y-88868005D01*
X141655515Y-88900000D01*
X141578273Y-88931995D01*
X141349465Y-89084880D01*
X141154880Y-89279465D01*
X141001995Y-89508273D01*
X140896686Y-89762510D01*
X140843000Y-90032408D01*
X140843000Y-90307592D01*
X140896686Y-90577490D01*
X141001995Y-90831727D01*
X141154880Y-91060535D01*
X141349465Y-91255120D01*
X141578273Y-91408005D01*
X141655515Y-91440000D01*
X141578273Y-91471995D01*
X141349465Y-91624880D01*
X141154880Y-91819465D01*
X141001995Y-92048273D01*
X140896686Y-92302510D01*
X140843000Y-92572408D01*
X140843000Y-92778198D01*
X137920000Y-89855199D01*
X137920000Y-88968313D01*
X138138505Y-88822312D01*
X138352312Y-88608505D01*
X138520299Y-88357095D01*
X138636011Y-88077743D01*
X138695000Y-87781184D01*
X138695000Y-87478816D01*
X138636011Y-87182257D01*
X138520299Y-86902905D01*
X138352312Y-86651495D01*
X138138505Y-86437688D01*
X137887095Y-86269701D01*
X137607743Y-86153989D01*
X137311184Y-86095000D01*
X137008816Y-86095000D01*
X136712257Y-86153989D01*
X136432905Y-86269701D01*
X136181495Y-86437688D01*
X136115056Y-86504127D01*
X136109502Y-86485820D01*
X136050537Y-86375506D01*
X135971185Y-86278815D01*
X135874494Y-86199463D01*
X135764180Y-86140498D01*
X135644482Y-86104188D01*
X135520000Y-86091928D01*
X133913413Y-86091928D01*
X133905702Y-86085600D01*
X133669103Y-85849002D01*
X133645301Y-85819999D01*
X133529576Y-85725026D01*
X133397547Y-85654454D01*
X133254286Y-85610997D01*
X133180250Y-85603705D01*
X133116962Y-85508987D01*
X132931013Y-85323038D01*
X132712359Y-85176939D01*
X132498556Y-85088379D01*
X132661366Y-85028935D01*
X132762203Y-84975037D01*
X132821664Y-84741269D01*
X132080000Y-83999605D01*
X131338336Y-84741269D01*
X131397797Y-84975037D01*
X131636242Y-85085934D01*
X131655827Y-85090706D01*
X131447641Y-85176939D01*
X131228987Y-85323038D01*
X131043038Y-85508987D01*
X130896939Y-85727641D01*
X130835000Y-85877175D01*
X130835000Y-84302587D01*
X130871065Y-84401366D01*
X130924963Y-84502203D01*
X131158731Y-84561664D01*
X131900395Y-83820000D01*
X132259605Y-83820000D01*
X133001269Y-84561664D01*
X133235037Y-84502203D01*
X133345934Y-84263758D01*
X133408183Y-84008260D01*
X133419390Y-83745527D01*
X133379125Y-83485656D01*
X133288935Y-83238634D01*
X133235037Y-83137797D01*
X133001269Y-83078336D01*
X132259605Y-83820000D01*
X131900395Y-83820000D01*
X131158731Y-83078336D01*
X130924963Y-83137797D01*
X130835000Y-83331231D01*
X130835000Y-82898731D01*
X131338336Y-82898731D01*
X132080000Y-83640395D01*
X132821664Y-82898731D01*
X132762203Y-82664963D01*
X132523758Y-82554066D01*
X132268260Y-82491817D01*
X132005527Y-82480610D01*
X131745656Y-82520875D01*
X131498634Y-82611065D01*
X131397797Y-82664963D01*
X131338336Y-82898731D01*
X130835000Y-82898731D01*
X130835000Y-79222825D01*
X130896939Y-79372359D01*
X131043038Y-79591013D01*
X131228987Y-79776962D01*
X131447641Y-79923061D01*
X131690595Y-80023696D01*
X131948514Y-80075000D01*
X132211486Y-80075000D01*
X132469405Y-80023696D01*
X132634700Y-79955228D01*
X132634700Y-79972666D01*
X132631023Y-80010000D01*
X132645697Y-80158986D01*
X132689154Y-80302247D01*
X132759726Y-80434276D01*
X132798069Y-80480997D01*
X132854699Y-80550001D01*
X132970424Y-80644974D01*
X133081928Y-80704575D01*
X133081928Y-80910000D01*
X133094188Y-81034482D01*
X133130498Y-81154180D01*
X133189463Y-81264494D01*
X133268815Y-81361185D01*
X133365506Y-81440537D01*
X133475820Y-81499502D01*
X133595518Y-81535812D01*
X133720000Y-81548072D01*
X135520000Y-81548072D01*
X135644482Y-81535812D01*
X135764180Y-81499502D01*
X135874494Y-81440537D01*
X135971185Y-81361185D01*
X136050537Y-81264494D01*
X136109502Y-81154180D01*
X136115056Y-81135873D01*
X136181495Y-81202312D01*
X136432905Y-81370299D01*
X136712257Y-81486011D01*
X137008816Y-81545000D01*
X137311184Y-81545000D01*
X137607743Y-81486011D01*
X137887095Y-81370299D01*
X138138505Y-81202312D01*
X138352312Y-80988505D01*
X138520299Y-80737095D01*
X138636011Y-80457743D01*
X138695000Y-80161184D01*
X138695000Y-79858816D01*
X138636011Y-79562257D01*
X138520299Y-79282905D01*
X138352312Y-79031495D01*
X138138505Y-78817688D01*
X137887095Y-78649701D01*
X137607743Y-78533989D01*
X137311184Y-78475000D01*
X137008816Y-78475000D01*
X136712257Y-78533989D01*
X136432905Y-78649701D01*
X136181495Y-78817688D01*
X136115056Y-78884127D01*
X136109502Y-78865820D01*
X136050537Y-78755506D01*
X135971185Y-78658815D01*
X135874494Y-78579463D01*
X135764180Y-78520498D01*
X135644482Y-78484188D01*
X135520000Y-78471928D01*
X133913413Y-78471928D01*
X133905702Y-78465600D01*
X133669103Y-78229002D01*
X133645301Y-78199999D01*
X133529576Y-78105026D01*
X133397547Y-78034454D01*
X133254286Y-77990997D01*
X133180250Y-77983705D01*
X133116962Y-77888987D01*
X132931013Y-77703038D01*
X132712359Y-77556939D01*
X132469405Y-77456304D01*
X132211486Y-77405000D01*
X131948514Y-77405000D01*
X131690595Y-77456304D01*
X131447641Y-77556939D01*
X131228987Y-77703038D01*
X131043038Y-77888987D01*
X130896939Y-78107641D01*
X130835000Y-78257175D01*
X130835000Y-75300000D01*
X173311928Y-75300000D01*
X173311928Y-77000000D01*
X173324188Y-77124482D01*
X173360498Y-77244180D01*
X173419463Y-77354494D01*
X173498815Y-77451185D01*
X173595506Y-77530537D01*
X173705820Y-77589502D01*
X173786466Y-77613966D01*
X173702412Y-77689731D01*
X173528359Y-77923080D01*
X173403175Y-78185901D01*
X173358524Y-78333110D01*
X173479845Y-78563000D01*
X174673000Y-78563000D01*
X174673000Y-78543000D01*
X174927000Y-78543000D01*
X174927000Y-78563000D01*
X176120155Y-78563000D01*
X176241476Y-78333110D01*
X176196825Y-78185901D01*
X176071641Y-77923080D01*
X175897588Y-77689731D01*
X175813534Y-77613966D01*
X175894180Y-77589502D01*
X176004494Y-77530537D01*
X176101185Y-77451185D01*
X176180537Y-77354494D01*
X176239502Y-77244180D01*
X176275812Y-77124482D01*
X176288072Y-77000000D01*
X176288072Y-75300000D01*
X176275812Y-75175518D01*
X176239502Y-75055820D01*
X176180537Y-74945506D01*
X176101185Y-74848815D01*
X176004494Y-74769463D01*
X175894180Y-74710498D01*
X175774482Y-74674188D01*
X175650000Y-74661928D01*
X173950000Y-74661928D01*
X173825518Y-74674188D01*
X173705820Y-74710498D01*
X173595506Y-74769463D01*
X173498815Y-74848815D01*
X173419463Y-74945506D01*
X173360498Y-75055820D01*
X173324188Y-75175518D01*
X173311928Y-75300000D01*
X130835000Y-75300000D01*
X130835000Y-73685000D01*
X177140000Y-73685000D01*
X177140001Y-123800000D01*
G37*
%TD.AperFunction*%
D20*
X141154880Y-101220535D02*
X141349465Y-101415120D01*
X141578273Y-101568005D01*
X141655515Y-101600000D01*
X141578273Y-101631995D01*
X141349465Y-101784880D01*
X141154880Y-101979465D01*
X141001995Y-102208273D01*
X140896686Y-102462510D01*
X140843000Y-102732408D01*
X140843000Y-103007592D01*
X140873628Y-103161570D01*
X136649003Y-107386196D01*
X136619999Y-107409999D01*
X136564871Y-107477174D01*
X136525026Y-107525724D01*
X136520497Y-107534198D01*
X136454454Y-107657754D01*
X136410997Y-107801015D01*
X136400000Y-107912668D01*
X136400000Y-107912678D01*
X136396324Y-107950000D01*
X136400000Y-107987323D01*
X136400000Y-109151687D01*
X136181495Y-109297688D01*
X136115056Y-109364127D01*
X136109502Y-109345820D01*
X136050537Y-109235506D01*
X135971185Y-109138815D01*
X135874494Y-109059463D01*
X135764180Y-109000498D01*
X135644482Y-108964188D01*
X135520000Y-108951928D01*
X133913413Y-108951928D01*
X133905702Y-108945600D01*
X133669103Y-108709002D01*
X133645301Y-108679999D01*
X133529576Y-108585026D01*
X133397547Y-108514454D01*
X133254286Y-108470997D01*
X133180250Y-108463705D01*
X133116962Y-108368987D01*
X132931013Y-108183038D01*
X132712359Y-108036939D01*
X132498556Y-107948379D01*
X132661366Y-107888935D01*
X132762203Y-107835037D01*
X132821664Y-107601269D01*
X132080000Y-106859605D01*
X131338336Y-107601269D01*
X131397797Y-107835037D01*
X131636242Y-107945934D01*
X131655827Y-107950706D01*
X131447641Y-108036939D01*
X131228987Y-108183038D01*
X131043038Y-108368987D01*
X130896939Y-108587641D01*
X130835000Y-108737175D01*
X130835000Y-107162587D01*
X130871065Y-107261366D01*
X130924963Y-107362203D01*
X131158731Y-107421664D01*
X131900395Y-106680000D01*
X132259605Y-106680000D01*
X133001269Y-107421664D01*
X133235037Y-107362203D01*
X133345934Y-107123758D01*
X133408183Y-106868260D01*
X133419390Y-106605527D01*
X133379125Y-106345656D01*
X133288935Y-106098634D01*
X133235037Y-105997797D01*
X133001269Y-105938336D01*
X132259605Y-106680000D01*
X131900395Y-106680000D01*
X131158731Y-105938336D01*
X130924963Y-105997797D01*
X130835000Y-106191231D01*
X130835000Y-105758731D01*
X131338336Y-105758731D01*
X132080000Y-106500395D01*
X132821664Y-105758731D01*
X132762203Y-105524963D01*
X132523758Y-105414066D01*
X132268260Y-105351817D01*
X132005527Y-105340610D01*
X131745656Y-105380875D01*
X131498634Y-105471065D01*
X131397797Y-105524963D01*
X131338336Y-105758731D01*
X130835000Y-105758731D01*
X130835000Y-102082825D01*
X130896939Y-102232359D01*
X131043038Y-102451013D01*
X131228987Y-102636962D01*
X131447641Y-102783061D01*
X131690595Y-102883696D01*
X131948514Y-102935000D01*
X132211486Y-102935000D01*
X132469405Y-102883696D01*
X132634700Y-102815228D01*
X132634700Y-102832666D01*
X132631023Y-102870000D01*
X132645697Y-103018986D01*
X132689154Y-103162247D01*
X132759726Y-103294276D01*
X132830900Y-103381002D01*
X132854699Y-103410001D01*
X132970424Y-103504974D01*
X133081928Y-103564575D01*
X133081928Y-103770000D01*
X133094188Y-103894482D01*
X133130498Y-104014180D01*
X133189463Y-104124494D01*
X133268815Y-104221185D01*
X133365506Y-104300537D01*
X133475820Y-104359502D01*
X133595518Y-104395812D01*
X133720000Y-104408072D01*
X135520000Y-104408072D01*
X135644482Y-104395812D01*
X135764180Y-104359502D01*
X135874494Y-104300537D01*
X135971185Y-104221185D01*
X136050537Y-104124494D01*
X136109502Y-104014180D01*
X136115056Y-103995873D01*
X136181495Y-104062312D01*
X136432905Y-104230299D01*
X136712257Y-104346011D01*
X137008816Y-104405000D01*
X137311184Y-104405000D01*
X137607743Y-104346011D01*
X137887095Y-104230299D01*
X138138505Y-104062312D01*
X138352312Y-103848505D01*
X138520299Y-103597095D01*
X138636011Y-103317743D01*
X138695000Y-103021184D01*
X138695000Y-102718816D01*
X138643731Y-102461070D01*
X140014803Y-101090000D01*
X141067659Y-101090000D01*
X141154880Y-101220535D01*
%TA.AperFunction,Conductor*%
D21*
G36*
X141154880Y-101220535D02*
G01*
X141349465Y-101415120D01*
X141578273Y-101568005D01*
X141655515Y-101600000D01*
X141578273Y-101631995D01*
X141349465Y-101784880D01*
X141154880Y-101979465D01*
X141001995Y-102208273D01*
X140896686Y-102462510D01*
X140843000Y-102732408D01*
X140843000Y-103007592D01*
X140873628Y-103161570D01*
X136649003Y-107386196D01*
X136619999Y-107409999D01*
X136564871Y-107477174D01*
X136525026Y-107525724D01*
X136520497Y-107534198D01*
X136454454Y-107657754D01*
X136410997Y-107801015D01*
X136400000Y-107912668D01*
X136400000Y-107912678D01*
X136396324Y-107950000D01*
X136400000Y-107987323D01*
X136400000Y-109151687D01*
X136181495Y-109297688D01*
X136115056Y-109364127D01*
X136109502Y-109345820D01*
X136050537Y-109235506D01*
X135971185Y-109138815D01*
X135874494Y-109059463D01*
X135764180Y-109000498D01*
X135644482Y-108964188D01*
X135520000Y-108951928D01*
X133913413Y-108951928D01*
X133905702Y-108945600D01*
X133669103Y-108709002D01*
X133645301Y-108679999D01*
X133529576Y-108585026D01*
X133397547Y-108514454D01*
X133254286Y-108470997D01*
X133180250Y-108463705D01*
X133116962Y-108368987D01*
X132931013Y-108183038D01*
X132712359Y-108036939D01*
X132498556Y-107948379D01*
X132661366Y-107888935D01*
X132762203Y-107835037D01*
X132821664Y-107601269D01*
X132080000Y-106859605D01*
X131338336Y-107601269D01*
X131397797Y-107835037D01*
X131636242Y-107945934D01*
X131655827Y-107950706D01*
X131447641Y-108036939D01*
X131228987Y-108183038D01*
X131043038Y-108368987D01*
X130896939Y-108587641D01*
X130835000Y-108737175D01*
X130835000Y-107162587D01*
X130871065Y-107261366D01*
X130924963Y-107362203D01*
X131158731Y-107421664D01*
X131900395Y-106680000D01*
X132259605Y-106680000D01*
X133001269Y-107421664D01*
X133235037Y-107362203D01*
X133345934Y-107123758D01*
X133408183Y-106868260D01*
X133419390Y-106605527D01*
X133379125Y-106345656D01*
X133288935Y-106098634D01*
X133235037Y-105997797D01*
X133001269Y-105938336D01*
X132259605Y-106680000D01*
X131900395Y-106680000D01*
X131158731Y-105938336D01*
X130924963Y-105997797D01*
X130835000Y-106191231D01*
X130835000Y-105758731D01*
X131338336Y-105758731D01*
X132080000Y-106500395D01*
X132821664Y-105758731D01*
X132762203Y-105524963D01*
X132523758Y-105414066D01*
X132268260Y-105351817D01*
X132005527Y-105340610D01*
X131745656Y-105380875D01*
X131498634Y-105471065D01*
X131397797Y-105524963D01*
X131338336Y-105758731D01*
X130835000Y-105758731D01*
X130835000Y-102082825D01*
X130896939Y-102232359D01*
X131043038Y-102451013D01*
X131228987Y-102636962D01*
X131447641Y-102783061D01*
X131690595Y-102883696D01*
X131948514Y-102935000D01*
X132211486Y-102935000D01*
X132469405Y-102883696D01*
X132634700Y-102815228D01*
X132634700Y-102832666D01*
X132631023Y-102870000D01*
X132645697Y-103018986D01*
X132689154Y-103162247D01*
X132759726Y-103294276D01*
X132830900Y-103381002D01*
X132854699Y-103410001D01*
X132970424Y-103504974D01*
X133081928Y-103564575D01*
X133081928Y-103770000D01*
X133094188Y-103894482D01*
X133130498Y-104014180D01*
X133189463Y-104124494D01*
X133268815Y-104221185D01*
X133365506Y-104300537D01*
X133475820Y-104359502D01*
X133595518Y-104395812D01*
X133720000Y-104408072D01*
X135520000Y-104408072D01*
X135644482Y-104395812D01*
X135764180Y-104359502D01*
X135874494Y-104300537D01*
X135971185Y-104221185D01*
X136050537Y-104124494D01*
X136109502Y-104014180D01*
X136115056Y-103995873D01*
X136181495Y-104062312D01*
X136432905Y-104230299D01*
X136712257Y-104346011D01*
X137008816Y-104405000D01*
X137311184Y-104405000D01*
X137607743Y-104346011D01*
X137887095Y-104230299D01*
X138138505Y-104062312D01*
X138352312Y-103848505D01*
X138520299Y-103597095D01*
X138636011Y-103317743D01*
X138695000Y-103021184D01*
X138695000Y-102718816D01*
X138643731Y-102461070D01*
X140014803Y-101090000D01*
X141067659Y-101090000D01*
X141154880Y-101220535D01*
G37*
%TD.AperFunction*%
D20*
X130896939Y-94612359D02*
X131043038Y-94831013D01*
X131228987Y-95016962D01*
X131447641Y-95163061D01*
X131690595Y-95263696D01*
X131948514Y-95315000D01*
X132211486Y-95315000D01*
X132469405Y-95263696D01*
X132634700Y-95195228D01*
X132634700Y-95212666D01*
X132631023Y-95250000D01*
X132645697Y-95398986D01*
X132689154Y-95542247D01*
X132759726Y-95674276D01*
X132830900Y-95761002D01*
X132854699Y-95790001D01*
X132970424Y-95884974D01*
X133081928Y-95944575D01*
X133081928Y-96150000D01*
X133094188Y-96274482D01*
X133130498Y-96394180D01*
X133189463Y-96504494D01*
X133268815Y-96601185D01*
X133365506Y-96680537D01*
X133475820Y-96739502D01*
X133595518Y-96775812D01*
X133720000Y-96788072D01*
X135520000Y-96788072D01*
X135644482Y-96775812D01*
X135764180Y-96739502D01*
X135874494Y-96680537D01*
X135971185Y-96601185D01*
X136050537Y-96504494D01*
X136109502Y-96394180D01*
X136115056Y-96375873D01*
X136181495Y-96442312D01*
X136432905Y-96610299D01*
X136712257Y-96726011D01*
X137008816Y-96785000D01*
X137311184Y-96785000D01*
X137568930Y-96733731D01*
X139136205Y-98301008D01*
X139159999Y-98330001D01*
X139188992Y-98353795D01*
X139188996Y-98353799D01*
X139259685Y-98411811D01*
X139275724Y-98424974D01*
X139407753Y-98495546D01*
X139551014Y-98539003D01*
X139662667Y-98550000D01*
X139662676Y-98550000D01*
X139699999Y-98553676D01*
X139737322Y-98550000D01*
X141067659Y-98550000D01*
X141154880Y-98680535D01*
X141349465Y-98875120D01*
X141578273Y-99028005D01*
X141655515Y-99060000D01*
X141578273Y-99091995D01*
X141349465Y-99244880D01*
X141154880Y-99439465D01*
X141067659Y-99570000D01*
X139737322Y-99570000D01*
X139699999Y-99566324D01*
X139662676Y-99570000D01*
X139662667Y-99570000D01*
X139551014Y-99580997D01*
X139407753Y-99624454D01*
X139275724Y-99695026D01*
X139275722Y-99695027D01*
X139275723Y-99695027D01*
X139188996Y-99766201D01*
X139188992Y-99766205D01*
X139159999Y-99789999D01*
X139136205Y-99818992D01*
X137568930Y-101386269D01*
X137311184Y-101335000D01*
X137008816Y-101335000D01*
X136712257Y-101393989D01*
X136432905Y-101509701D01*
X136181495Y-101677688D01*
X136115056Y-101744127D01*
X136109502Y-101725820D01*
X136050537Y-101615506D01*
X135971185Y-101518815D01*
X135874494Y-101439463D01*
X135764180Y-101380498D01*
X135644482Y-101344188D01*
X135520000Y-101331928D01*
X133913413Y-101331928D01*
X133905702Y-101325600D01*
X133669103Y-101089002D01*
X133645301Y-101059999D01*
X133529576Y-100965026D01*
X133397547Y-100894454D01*
X133254286Y-100850997D01*
X133180250Y-100843705D01*
X133116962Y-100748987D01*
X132931013Y-100563038D01*
X132712359Y-100416939D01*
X132498556Y-100328379D01*
X132661366Y-100268935D01*
X132762203Y-100215037D01*
X132821664Y-99981269D01*
X132080000Y-99239605D01*
X131338336Y-99981269D01*
X131397797Y-100215037D01*
X131636242Y-100325934D01*
X131655827Y-100330706D01*
X131447641Y-100416939D01*
X131228987Y-100563038D01*
X131043038Y-100748987D01*
X130896939Y-100967641D01*
X130835000Y-101117175D01*
X130835000Y-99542587D01*
X130871065Y-99641366D01*
X130924963Y-99742203D01*
X131158731Y-99801664D01*
X131900395Y-99060000D01*
X132259605Y-99060000D01*
X133001269Y-99801664D01*
X133235037Y-99742203D01*
X133345934Y-99503758D01*
X133408183Y-99248260D01*
X133419390Y-98985527D01*
X133379125Y-98725656D01*
X133288935Y-98478634D01*
X133235037Y-98377797D01*
X133001269Y-98318336D01*
X132259605Y-99060000D01*
X131900395Y-99060000D01*
X131158731Y-98318336D01*
X130924963Y-98377797D01*
X130835000Y-98571231D01*
X130835000Y-98138731D01*
X131338336Y-98138731D01*
X132080000Y-98880395D01*
X132821664Y-98138731D01*
X132762203Y-97904963D01*
X132523758Y-97794066D01*
X132268260Y-97731817D01*
X132005527Y-97720610D01*
X131745656Y-97760875D01*
X131498634Y-97851065D01*
X131397797Y-97904963D01*
X131338336Y-98138731D01*
X130835000Y-98138731D01*
X130835000Y-94462825D01*
X130896939Y-94612359D01*
%TA.AperFunction,Conductor*%
D21*
G36*
X130896939Y-94612359D02*
G01*
X131043038Y-94831013D01*
X131228987Y-95016962D01*
X131447641Y-95163061D01*
X131690595Y-95263696D01*
X131948514Y-95315000D01*
X132211486Y-95315000D01*
X132469405Y-95263696D01*
X132634700Y-95195228D01*
X132634700Y-95212666D01*
X132631023Y-95250000D01*
X132645697Y-95398986D01*
X132689154Y-95542247D01*
X132759726Y-95674276D01*
X132830900Y-95761002D01*
X132854699Y-95790001D01*
X132970424Y-95884974D01*
X133081928Y-95944575D01*
X133081928Y-96150000D01*
X133094188Y-96274482D01*
X133130498Y-96394180D01*
X133189463Y-96504494D01*
X133268815Y-96601185D01*
X133365506Y-96680537D01*
X133475820Y-96739502D01*
X133595518Y-96775812D01*
X133720000Y-96788072D01*
X135520000Y-96788072D01*
X135644482Y-96775812D01*
X135764180Y-96739502D01*
X135874494Y-96680537D01*
X135971185Y-96601185D01*
X136050537Y-96504494D01*
X136109502Y-96394180D01*
X136115056Y-96375873D01*
X136181495Y-96442312D01*
X136432905Y-96610299D01*
X136712257Y-96726011D01*
X137008816Y-96785000D01*
X137311184Y-96785000D01*
X137568930Y-96733731D01*
X139136205Y-98301008D01*
X139159999Y-98330001D01*
X139188992Y-98353795D01*
X139188996Y-98353799D01*
X139259685Y-98411811D01*
X139275724Y-98424974D01*
X139407753Y-98495546D01*
X139551014Y-98539003D01*
X139662667Y-98550000D01*
X139662676Y-98550000D01*
X139699999Y-98553676D01*
X139737322Y-98550000D01*
X141067659Y-98550000D01*
X141154880Y-98680535D01*
X141349465Y-98875120D01*
X141578273Y-99028005D01*
X141655515Y-99060000D01*
X141578273Y-99091995D01*
X141349465Y-99244880D01*
X141154880Y-99439465D01*
X141067659Y-99570000D01*
X139737322Y-99570000D01*
X139699999Y-99566324D01*
X139662676Y-99570000D01*
X139662667Y-99570000D01*
X139551014Y-99580997D01*
X139407753Y-99624454D01*
X139275724Y-99695026D01*
X139275722Y-99695027D01*
X139275723Y-99695027D01*
X139188996Y-99766201D01*
X139188992Y-99766205D01*
X139159999Y-99789999D01*
X139136205Y-99818992D01*
X137568930Y-101386269D01*
X137311184Y-101335000D01*
X137008816Y-101335000D01*
X136712257Y-101393989D01*
X136432905Y-101509701D01*
X136181495Y-101677688D01*
X136115056Y-101744127D01*
X136109502Y-101725820D01*
X136050537Y-101615506D01*
X135971185Y-101518815D01*
X135874494Y-101439463D01*
X135764180Y-101380498D01*
X135644482Y-101344188D01*
X135520000Y-101331928D01*
X133913413Y-101331928D01*
X133905702Y-101325600D01*
X133669103Y-101089002D01*
X133645301Y-101059999D01*
X133529576Y-100965026D01*
X133397547Y-100894454D01*
X133254286Y-100850997D01*
X133180250Y-100843705D01*
X133116962Y-100748987D01*
X132931013Y-100563038D01*
X132712359Y-100416939D01*
X132498556Y-100328379D01*
X132661366Y-100268935D01*
X132762203Y-100215037D01*
X132821664Y-99981269D01*
X132080000Y-99239605D01*
X131338336Y-99981269D01*
X131397797Y-100215037D01*
X131636242Y-100325934D01*
X131655827Y-100330706D01*
X131447641Y-100416939D01*
X131228987Y-100563038D01*
X131043038Y-100748987D01*
X130896939Y-100967641D01*
X130835000Y-101117175D01*
X130835000Y-99542587D01*
X130871065Y-99641366D01*
X130924963Y-99742203D01*
X131158731Y-99801664D01*
X131900395Y-99060000D01*
X132259605Y-99060000D01*
X133001269Y-99801664D01*
X133235037Y-99742203D01*
X133345934Y-99503758D01*
X133408183Y-99248260D01*
X133419390Y-98985527D01*
X133379125Y-98725656D01*
X133288935Y-98478634D01*
X133235037Y-98377797D01*
X133001269Y-98318336D01*
X132259605Y-99060000D01*
X131900395Y-99060000D01*
X131158731Y-98318336D01*
X130924963Y-98377797D01*
X130835000Y-98571231D01*
X130835000Y-98138731D01*
X131338336Y-98138731D01*
X132080000Y-98880395D01*
X132821664Y-98138731D01*
X132762203Y-97904963D01*
X132523758Y-97794066D01*
X132268260Y-97731817D01*
X132005527Y-97720610D01*
X131745656Y-97760875D01*
X131498634Y-97851065D01*
X131397797Y-97904963D01*
X131338336Y-98138731D01*
X130835000Y-98138731D01*
X130835000Y-94462825D01*
X130896939Y-94612359D01*
G37*
%TD.AperFunction*%
D20*
X130896939Y-86992359D02*
X131043038Y-87211013D01*
X131228987Y-87396962D01*
X131447641Y-87543061D01*
X131690595Y-87643696D01*
X131948514Y-87695000D01*
X132211486Y-87695000D01*
X132469405Y-87643696D01*
X132634700Y-87575228D01*
X132634700Y-87592666D01*
X132631023Y-87630000D01*
X132645697Y-87778986D01*
X132689154Y-87922247D01*
X132759726Y-88054276D01*
X132830900Y-88141002D01*
X132854699Y-88170001D01*
X132970424Y-88264974D01*
X133081928Y-88324575D01*
X133081928Y-88530000D01*
X133094188Y-88654482D01*
X133130498Y-88774180D01*
X133189463Y-88884494D01*
X133268815Y-88981185D01*
X133365506Y-89060537D01*
X133475820Y-89119502D01*
X133595518Y-89155812D01*
X133720000Y-89168072D01*
X135520000Y-89168072D01*
X135644482Y-89155812D01*
X135764180Y-89119502D01*
X135874494Y-89060537D01*
X135971185Y-88981185D01*
X136050537Y-88884494D01*
X136109502Y-88774180D01*
X136115056Y-88755873D01*
X136181495Y-88822312D01*
X136400000Y-88968313D01*
X136400000Y-90132677D01*
X136396324Y-90170000D01*
X136400000Y-90207322D01*
X136400000Y-90207332D01*
X136410997Y-90318985D01*
X136448728Y-90443368D01*
X136454454Y-90462246D01*
X136525026Y-90594276D01*
X136564871Y-90642826D01*
X136619999Y-90710001D01*
X136649003Y-90733804D01*
X140873628Y-94958430D01*
X140843000Y-95112408D01*
X140843000Y-95387592D01*
X140896686Y-95657490D01*
X141001995Y-95911727D01*
X141154880Y-96140535D01*
X141349465Y-96335120D01*
X141578273Y-96488005D01*
X141655515Y-96520000D01*
X141578273Y-96551995D01*
X141349465Y-96704880D01*
X141154880Y-96899465D01*
X141067659Y-97030000D01*
X140014803Y-97030000D01*
X138643731Y-95658930D01*
X138695000Y-95401184D01*
X138695000Y-95098816D01*
X138636011Y-94802257D01*
X138520299Y-94522905D01*
X138352312Y-94271495D01*
X138138505Y-94057688D01*
X137887095Y-93889701D01*
X137607743Y-93773989D01*
X137311184Y-93715000D01*
X137008816Y-93715000D01*
X136712257Y-93773989D01*
X136432905Y-93889701D01*
X136181495Y-94057688D01*
X136115056Y-94124127D01*
X136109502Y-94105820D01*
X136050537Y-93995506D01*
X135971185Y-93898815D01*
X135874494Y-93819463D01*
X135764180Y-93760498D01*
X135644482Y-93724188D01*
X135520000Y-93711928D01*
X133913413Y-93711928D01*
X133905702Y-93705600D01*
X133669103Y-93469002D01*
X133645301Y-93439999D01*
X133529576Y-93345026D01*
X133397547Y-93274454D01*
X133254286Y-93230997D01*
X133180250Y-93223705D01*
X133116962Y-93128987D01*
X132931013Y-92943038D01*
X132712359Y-92796939D01*
X132498556Y-92708379D01*
X132661366Y-92648935D01*
X132762203Y-92595037D01*
X132821664Y-92361269D01*
X132080000Y-91619605D01*
X131338336Y-92361269D01*
X131397797Y-92595037D01*
X131636242Y-92705934D01*
X131655827Y-92710706D01*
X131447641Y-92796939D01*
X131228987Y-92943038D01*
X131043038Y-93128987D01*
X130896939Y-93347641D01*
X130835000Y-93497175D01*
X130835000Y-91922587D01*
X130871065Y-92021366D01*
X130924963Y-92122203D01*
X131158731Y-92181664D01*
X131900395Y-91440000D01*
X132259605Y-91440000D01*
X133001269Y-92181664D01*
X133235037Y-92122203D01*
X133345934Y-91883758D01*
X133408183Y-91628260D01*
X133419390Y-91365527D01*
X133379125Y-91105656D01*
X133288935Y-90858634D01*
X133235037Y-90757797D01*
X133001269Y-90698336D01*
X132259605Y-91440000D01*
X131900395Y-91440000D01*
X131158731Y-90698336D01*
X130924963Y-90757797D01*
X130835000Y-90951231D01*
X130835000Y-90518731D01*
X131338336Y-90518731D01*
X132080000Y-91260395D01*
X132821664Y-90518731D01*
X132762203Y-90284963D01*
X132523758Y-90174066D01*
X132268260Y-90111817D01*
X132005527Y-90100610D01*
X131745656Y-90140875D01*
X131498634Y-90231065D01*
X131397797Y-90284963D01*
X131338336Y-90518731D01*
X130835000Y-90518731D01*
X130835000Y-86842825D01*
X130896939Y-86992359D01*
%TA.AperFunction,Conductor*%
D21*
G36*
X130896939Y-86992359D02*
G01*
X131043038Y-87211013D01*
X131228987Y-87396962D01*
X131447641Y-87543061D01*
X131690595Y-87643696D01*
X131948514Y-87695000D01*
X132211486Y-87695000D01*
X132469405Y-87643696D01*
X132634700Y-87575228D01*
X132634700Y-87592666D01*
X132631023Y-87630000D01*
X132645697Y-87778986D01*
X132689154Y-87922247D01*
X132759726Y-88054276D01*
X132830900Y-88141002D01*
X132854699Y-88170001D01*
X132970424Y-88264974D01*
X133081928Y-88324575D01*
X133081928Y-88530000D01*
X133094188Y-88654482D01*
X133130498Y-88774180D01*
X133189463Y-88884494D01*
X133268815Y-88981185D01*
X133365506Y-89060537D01*
X133475820Y-89119502D01*
X133595518Y-89155812D01*
X133720000Y-89168072D01*
X135520000Y-89168072D01*
X135644482Y-89155812D01*
X135764180Y-89119502D01*
X135874494Y-89060537D01*
X135971185Y-88981185D01*
X136050537Y-88884494D01*
X136109502Y-88774180D01*
X136115056Y-88755873D01*
X136181495Y-88822312D01*
X136400000Y-88968313D01*
X136400000Y-90132677D01*
X136396324Y-90170000D01*
X136400000Y-90207322D01*
X136400000Y-90207332D01*
X136410997Y-90318985D01*
X136448728Y-90443368D01*
X136454454Y-90462246D01*
X136525026Y-90594276D01*
X136564871Y-90642826D01*
X136619999Y-90710001D01*
X136649003Y-90733804D01*
X140873628Y-94958430D01*
X140843000Y-95112408D01*
X140843000Y-95387592D01*
X140896686Y-95657490D01*
X141001995Y-95911727D01*
X141154880Y-96140535D01*
X141349465Y-96335120D01*
X141578273Y-96488005D01*
X141655515Y-96520000D01*
X141578273Y-96551995D01*
X141349465Y-96704880D01*
X141154880Y-96899465D01*
X141067659Y-97030000D01*
X140014803Y-97030000D01*
X138643731Y-95658930D01*
X138695000Y-95401184D01*
X138695000Y-95098816D01*
X138636011Y-94802257D01*
X138520299Y-94522905D01*
X138352312Y-94271495D01*
X138138505Y-94057688D01*
X137887095Y-93889701D01*
X137607743Y-93773989D01*
X137311184Y-93715000D01*
X137008816Y-93715000D01*
X136712257Y-93773989D01*
X136432905Y-93889701D01*
X136181495Y-94057688D01*
X136115056Y-94124127D01*
X136109502Y-94105820D01*
X136050537Y-93995506D01*
X135971185Y-93898815D01*
X135874494Y-93819463D01*
X135764180Y-93760498D01*
X135644482Y-93724188D01*
X135520000Y-93711928D01*
X133913413Y-93711928D01*
X133905702Y-93705600D01*
X133669103Y-93469002D01*
X133645301Y-93439999D01*
X133529576Y-93345026D01*
X133397547Y-93274454D01*
X133254286Y-93230997D01*
X133180250Y-93223705D01*
X133116962Y-93128987D01*
X132931013Y-92943038D01*
X132712359Y-92796939D01*
X132498556Y-92708379D01*
X132661366Y-92648935D01*
X132762203Y-92595037D01*
X132821664Y-92361269D01*
X132080000Y-91619605D01*
X131338336Y-92361269D01*
X131397797Y-92595037D01*
X131636242Y-92705934D01*
X131655827Y-92710706D01*
X131447641Y-92796939D01*
X131228987Y-92943038D01*
X131043038Y-93128987D01*
X130896939Y-93347641D01*
X130835000Y-93497175D01*
X130835000Y-91922587D01*
X130871065Y-92021366D01*
X130924963Y-92122203D01*
X131158731Y-92181664D01*
X131900395Y-91440000D01*
X132259605Y-91440000D01*
X133001269Y-92181664D01*
X133235037Y-92122203D01*
X133345934Y-91883758D01*
X133408183Y-91628260D01*
X133419390Y-91365527D01*
X133379125Y-91105656D01*
X133288935Y-90858634D01*
X133235037Y-90757797D01*
X133001269Y-90698336D01*
X132259605Y-91440000D01*
X131900395Y-91440000D01*
X131158731Y-90698336D01*
X130924963Y-90757797D01*
X130835000Y-90951231D01*
X130835000Y-90518731D01*
X131338336Y-90518731D01*
X132080000Y-91260395D01*
X132821664Y-90518731D01*
X132762203Y-90284963D01*
X132523758Y-90174066D01*
X132268260Y-90111817D01*
X132005527Y-90100610D01*
X131745656Y-90140875D01*
X131498634Y-90231065D01*
X131397797Y-90284963D01*
X131338336Y-90518731D01*
X130835000Y-90518731D01*
X130835000Y-86842825D01*
X130896939Y-86992359D01*
G37*
%TD.AperFunction*%
%TD*%
M02*
