M48
; DRILL file {KiCad (5.1.10)-1} date 11/03/21 12:27:02
; FORMAT={-:-/ absolute / inch / decimal}
; #@! TF.CreationDate,2021-11-03T12:27:02+01:00
; #@! TF.GenerationSoftware,Kicad,Pcbnew,(5.1.10)-1
; #@! TF.FileFunction,Plated,1,2,PTH
FMAT,2
INCH
T1C0.0276
T2C0.0300
T3C0.0315
T4C0.0354
T5C0.0394
%
G90
G05
T1
X5.2Y-3.1
X5.2Y-3.3
X5.2Y-3.4
X5.2Y-3.6
X5.2Y-3.7
X5.2Y-3.9
X5.2Y-4.0
X5.2Y-4.2
X5.2Y-4.3
X5.2Y-4.5
X5.2Y-4.6
X5.2Y-4.8
T2
X5.6Y-3.15
X5.6Y-3.25
X5.6Y-3.35
X5.6Y-3.45
X5.6Y-3.55
X5.6Y-3.65
X5.6Y-3.75
X5.6Y-3.85
X5.6Y-3.95
X5.6Y-4.05
X5.6Y-4.15
X5.6Y-4.25
X5.6Y-4.35
X5.6Y-4.45
X5.6Y-4.55
X6.6Y-3.15
X6.6Y-3.25
X6.6Y-3.35
X6.6Y-3.45
X6.6Y-3.55
X6.6Y-3.65
X6.6Y-3.75
X6.6Y-3.85
X6.6Y-3.95
X6.6Y-4.05
X6.6Y-4.15
X6.6Y-4.25
X6.6Y-4.35
X6.6Y-4.45
X6.6Y-4.55
T3
X6.7972Y-4.465
X6.7972Y-4.565
X6.7972Y-4.665
X6.7972Y-4.765
T4
X5.3Y-3.15
X5.3Y-3.45
X5.3Y-3.75
X5.3Y-4.05
X5.3Y-4.35
X5.3Y-4.65
X5.4Y-3.15
X5.4Y-3.45
X5.4Y-3.75
X5.4Y-4.05
X5.4Y-4.35
X5.4Y-4.65
T5
X6.7339Y-3.7531
X6.7339Y-3.8531
X6.7339Y-3.9531
X6.7339Y-4.0531
X6.8819Y-2.998
X6.8819Y-3.098
X6.8819Y-3.198
X6.8819Y-3.298
X6.8819Y-3.398
X6.8819Y-3.498
X6.8819Y-3.598
X6.8819Y-3.698
X6.885Y-3.9406
X6.885Y-4.0406
X6.885Y-4.1406
X6.885Y-4.2406
T0
M30
