%TF.GenerationSoftware,KiCad,Pcbnew,(5.1.10)-1*%
%TF.CreationDate,2021-10-27T11:28:51+02:00*%
%TF.ProjectId,airQualityV2,61697251-7561-46c6-9974-7956322e6b69,rev?*%
%TF.SameCoordinates,Original*%
%TF.FileFunction,Legend,Top*%
%TF.FilePolarity,Positive*%
%FSLAX46Y46*%
G04 Gerber Fmt 4.6, Leading zero omitted, Abs format (unit mm)*
G04 Created by KiCad (PCBNEW (5.1.10)-1) date 2021-10-27 11:28:51*
%MOMM*%
%LPD*%
G01*
G04 APERTURE LIST*
%ADD10C,0.120000*%
%ADD11C,0.800000*%
%ADD12C,1.000000*%
%ADD13C,0.150000*%
G04 APERTURE END LIST*
D10*
%TO.C,U1*%
X168940000Y-123470000D02*
G75*
G02*
X166940000Y-125470000I-2000000J0D01*
G01*
X142940000Y-125470000D02*
G75*
G02*
X140940000Y-123470000I0J2000000D01*
G01*
X140940000Y-75970000D02*
G75*
G02*
X142940000Y-73970000I2000000J0D01*
G01*
X166940000Y-73970000D02*
G75*
G02*
X168940000Y-75970000I0J-2000000D01*
G01*
X144740000Y-75970000D02*
G75*
G03*
X144740000Y-75970000I-1500000J0D01*
G01*
X168140000Y-75970000D02*
G75*
G03*
X168140000Y-75970000I-1500000J0D01*
G01*
X168940000Y-123470000D02*
X168940000Y-75970000D01*
X140940000Y-75970000D02*
X140940000Y-123470000D01*
X142940000Y-125470000D02*
X166940000Y-125470000D01*
X142940000Y-73970000D02*
X166940000Y-73970000D01*
X144740000Y-123470000D02*
G75*
G03*
X144740000Y-123470000I-1500000J0D01*
G01*
X168140000Y-123470000D02*
G75*
G03*
X168140000Y-123470000I-1500000J0D01*
G01*
X150940000Y-119470000D02*
X150940000Y-125470000D01*
X158940000Y-119470000D02*
X158940000Y-125470000D01*
X150940000Y-119470000D02*
X158940000Y-119470000D01*
X146050000Y-75240000D02*
X163830000Y-75240000D01*
X163830000Y-75240000D02*
X163830000Y-80320000D01*
X163830000Y-80320000D02*
X146050000Y-80320000D01*
X146050000Y-80320000D02*
X146050000Y-75240000D01*
X147320000Y-79558000D02*
X147320000Y-76002000D01*
X147320000Y-76002000D02*
X149860000Y-76002000D01*
X149860000Y-76002000D02*
X149860000Y-78034000D01*
X149860000Y-78034000D02*
X152400000Y-78034000D01*
X152400000Y-78034000D02*
X152400000Y-76002000D01*
X152400000Y-76002000D02*
X154940000Y-76002000D01*
X154940000Y-76002000D02*
X154940000Y-78034000D01*
X154940000Y-78034000D02*
X157480000Y-78034000D01*
X157480000Y-78034000D02*
X157480000Y-76002000D01*
X157480000Y-76002000D02*
X162560000Y-76002000D01*
X162560000Y-76002000D02*
X162560000Y-79558000D01*
X160020000Y-76002000D02*
X160020000Y-79558000D01*
X147440000Y-80970000D02*
X162440000Y-80970000D01*
X162440000Y-80970000D02*
X162440000Y-98970000D01*
X162440000Y-98970000D02*
X147440000Y-98970000D01*
X147440000Y-98970000D02*
X147440000Y-80970000D01*
D11*
X150260000Y-96830000D02*
G75*
G03*
X150260000Y-96830000I-400000J0D01*
G01*
D10*
X161290000Y-120960000D02*
X163830000Y-120960000D01*
X163830000Y-120960000D02*
X163830000Y-124770000D01*
X163830000Y-124770000D02*
X161290000Y-124770000D01*
X161290000Y-124770000D02*
X161290000Y-120960000D01*
X148590000Y-124770000D02*
X146050000Y-124770000D01*
X146050000Y-124770000D02*
X146050000Y-120960000D01*
X146050000Y-120960000D02*
X148590000Y-120960000D01*
X148590000Y-120960000D02*
X148590000Y-124770000D01*
D12*
X147620000Y-122865000D02*
G75*
G03*
X147620000Y-122865000I-300000J0D01*
G01*
X162860000Y-122865000D02*
G75*
G03*
X162860000Y-122865000I-300000J0D01*
G01*
D13*
%TO.C,RH1*%
X171370000Y-124160000D02*
X171370000Y-112060000D01*
X171370000Y-112060000D02*
X175870000Y-112060000D01*
X175870000Y-112060000D02*
X175870000Y-124160000D01*
X175870000Y-124160000D02*
X171370000Y-124160000D01*
D10*
%TO.C,J2*%
X171390000Y-95310000D02*
X174050000Y-95310000D01*
X171390000Y-77470000D02*
X171390000Y-95310000D01*
X174050000Y-77470000D02*
X174050000Y-95310000D01*
X171390000Y-77470000D02*
X174050000Y-77470000D01*
X171390000Y-76200000D02*
X171390000Y-74870000D01*
X171390000Y-74870000D02*
X172720000Y-74870000D01*
%TO.C,J1*%
X171390000Y-109280000D02*
X174050000Y-109280000D01*
X171390000Y-101600000D02*
X171390000Y-109280000D01*
X174050000Y-101600000D02*
X174050000Y-109280000D01*
X171390000Y-101600000D02*
X174050000Y-101600000D01*
X171390000Y-100330000D02*
X171390000Y-99000000D01*
X171390000Y-99000000D02*
X172720000Y-99000000D01*
%TO.C,U1*%
D13*
X154178095Y-89932380D02*
X154178095Y-90741904D01*
X154225714Y-90837142D01*
X154273333Y-90884761D01*
X154368571Y-90932380D01*
X154559047Y-90932380D01*
X154654285Y-90884761D01*
X154701904Y-90837142D01*
X154749523Y-90741904D01*
X154749523Y-89932380D01*
X155749523Y-90932380D02*
X155178095Y-90932380D01*
X155463809Y-90932380D02*
X155463809Y-89932380D01*
X155368571Y-90075238D01*
X155273333Y-90170476D01*
X155178095Y-90218095D01*
X145058095Y-119618571D02*
X145391428Y-119618571D01*
X145534285Y-120142380D02*
X145058095Y-120142380D01*
X145058095Y-119142380D01*
X145534285Y-119142380D01*
X145962857Y-119475714D02*
X145962857Y-120142380D01*
X145962857Y-119570952D02*
X146010476Y-119523333D01*
X146105714Y-119475714D01*
X146248571Y-119475714D01*
X146343809Y-119523333D01*
X146391428Y-119618571D01*
X146391428Y-120142380D01*
X147296190Y-120142380D02*
X147296190Y-119618571D01*
X147248571Y-119523333D01*
X147153333Y-119475714D01*
X146962857Y-119475714D01*
X146867619Y-119523333D01*
X147296190Y-120094761D02*
X147200952Y-120142380D01*
X146962857Y-120142380D01*
X146867619Y-120094761D01*
X146820000Y-119999523D01*
X146820000Y-119904285D01*
X146867619Y-119809047D01*
X146962857Y-119761428D01*
X147200952Y-119761428D01*
X147296190Y-119713809D01*
X147772380Y-120142380D02*
X147772380Y-119142380D01*
X147772380Y-119523333D02*
X147867619Y-119475714D01*
X148058095Y-119475714D01*
X148153333Y-119523333D01*
X148200952Y-119570952D01*
X148248571Y-119666190D01*
X148248571Y-119951904D01*
X148200952Y-120047142D01*
X148153333Y-120094761D01*
X148058095Y-120142380D01*
X147867619Y-120142380D01*
X147772380Y-120094761D01*
X148820000Y-120142380D02*
X148724761Y-120094761D01*
X148677142Y-119999523D01*
X148677142Y-119142380D01*
X149581904Y-120094761D02*
X149486666Y-120142380D01*
X149296190Y-120142380D01*
X149200952Y-120094761D01*
X149153333Y-119999523D01*
X149153333Y-119618571D01*
X149200952Y-119523333D01*
X149296190Y-119475714D01*
X149486666Y-119475714D01*
X149581904Y-119523333D01*
X149629523Y-119618571D01*
X149629523Y-119713809D01*
X149153333Y-119809047D01*
X161440952Y-119618571D02*
X161583809Y-119666190D01*
X161631428Y-119713809D01*
X161679047Y-119809047D01*
X161679047Y-119951904D01*
X161631428Y-120047142D01*
X161583809Y-120094761D01*
X161488571Y-120142380D01*
X161107619Y-120142380D01*
X161107619Y-119142380D01*
X161440952Y-119142380D01*
X161536190Y-119190000D01*
X161583809Y-119237619D01*
X161631428Y-119332857D01*
X161631428Y-119428095D01*
X161583809Y-119523333D01*
X161536190Y-119570952D01*
X161440952Y-119618571D01*
X161107619Y-119618571D01*
X162250476Y-120142380D02*
X162155238Y-120094761D01*
X162107619Y-120047142D01*
X162060000Y-119951904D01*
X162060000Y-119666190D01*
X162107619Y-119570952D01*
X162155238Y-119523333D01*
X162250476Y-119475714D01*
X162393333Y-119475714D01*
X162488571Y-119523333D01*
X162536190Y-119570952D01*
X162583809Y-119666190D01*
X162583809Y-119951904D01*
X162536190Y-120047142D01*
X162488571Y-120094761D01*
X162393333Y-120142380D01*
X162250476Y-120142380D01*
X163155238Y-120142380D02*
X163060000Y-120094761D01*
X163012380Y-120047142D01*
X162964761Y-119951904D01*
X162964761Y-119666190D01*
X163012380Y-119570952D01*
X163060000Y-119523333D01*
X163155238Y-119475714D01*
X163298095Y-119475714D01*
X163393333Y-119523333D01*
X163440952Y-119570952D01*
X163488571Y-119666190D01*
X163488571Y-119951904D01*
X163440952Y-120047142D01*
X163393333Y-120094761D01*
X163298095Y-120142380D01*
X163155238Y-120142380D01*
X163774285Y-119475714D02*
X164155238Y-119475714D01*
X163917142Y-119142380D02*
X163917142Y-119999523D01*
X163964761Y-120094761D01*
X164060000Y-120142380D01*
X164155238Y-120142380D01*
X153678095Y-122952380D02*
X153678095Y-123761904D01*
X153725714Y-123857142D01*
X153773333Y-123904761D01*
X153868571Y-123952380D01*
X154059047Y-123952380D01*
X154154285Y-123904761D01*
X154201904Y-123857142D01*
X154249523Y-123761904D01*
X154249523Y-122952380D01*
X154678095Y-123904761D02*
X154820952Y-123952380D01*
X155059047Y-123952380D01*
X155154285Y-123904761D01*
X155201904Y-123857142D01*
X155249523Y-123761904D01*
X155249523Y-123666666D01*
X155201904Y-123571428D01*
X155154285Y-123523809D01*
X155059047Y-123476190D01*
X154868571Y-123428571D01*
X154773333Y-123380952D01*
X154725714Y-123333333D01*
X154678095Y-123238095D01*
X154678095Y-123142857D01*
X154725714Y-123047619D01*
X154773333Y-123000000D01*
X154868571Y-122952380D01*
X155106666Y-122952380D01*
X155249523Y-123000000D01*
X156011428Y-123428571D02*
X156154285Y-123476190D01*
X156201904Y-123523809D01*
X156249523Y-123619047D01*
X156249523Y-123761904D01*
X156201904Y-123857142D01*
X156154285Y-123904761D01*
X156059047Y-123952380D01*
X155678095Y-123952380D01*
X155678095Y-122952380D01*
X156011428Y-122952380D01*
X156106666Y-123000000D01*
X156154285Y-123047619D01*
X156201904Y-123142857D01*
X156201904Y-123238095D01*
X156154285Y-123333333D01*
X156106666Y-123380952D01*
X156011428Y-123428571D01*
X155678095Y-123428571D01*
%TO.C,RH1*%
X175122380Y-118800476D02*
X174646190Y-119133809D01*
X175122380Y-119371904D02*
X174122380Y-119371904D01*
X174122380Y-118990952D01*
X174170000Y-118895714D01*
X174217619Y-118848095D01*
X174312857Y-118800476D01*
X174455714Y-118800476D01*
X174550952Y-118848095D01*
X174598571Y-118895714D01*
X174646190Y-118990952D01*
X174646190Y-119371904D01*
X175122380Y-118371904D02*
X174122380Y-118371904D01*
X174598571Y-118371904D02*
X174598571Y-117800476D01*
X175122380Y-117800476D02*
X174122380Y-117800476D01*
X175122380Y-116800476D02*
X175122380Y-117371904D01*
X175122380Y-117086190D02*
X174122380Y-117086190D01*
X174265238Y-117181428D01*
X174360476Y-117276666D01*
X174408095Y-117371904D01*
%TO.C,J2*%
X172386666Y-73322380D02*
X172386666Y-74036666D01*
X172339047Y-74179523D01*
X172243809Y-74274761D01*
X172100952Y-74322380D01*
X172005714Y-74322380D01*
X172815238Y-73417619D02*
X172862857Y-73370000D01*
X172958095Y-73322380D01*
X173196190Y-73322380D01*
X173291428Y-73370000D01*
X173339047Y-73417619D01*
X173386666Y-73512857D01*
X173386666Y-73608095D01*
X173339047Y-73750952D01*
X172767619Y-74322380D01*
X173386666Y-74322380D01*
%TO.C,J1*%
X172386666Y-97452380D02*
X172386666Y-98166666D01*
X172339047Y-98309523D01*
X172243809Y-98404761D01*
X172100952Y-98452380D01*
X172005714Y-98452380D01*
X173386666Y-98452380D02*
X172815238Y-98452380D01*
X173100952Y-98452380D02*
X173100952Y-97452380D01*
X173005714Y-97595238D01*
X172910476Y-97690476D01*
X172815238Y-97738095D01*
%TD*%
M02*
