%TF.GenerationSoftware,KiCad,Pcbnew,(5.1.10)-1*%
%TF.CreationDate,2021-10-27T11:28:51+02:00*%
%TF.ProjectId,airQualityV2,61697251-7561-46c6-9974-7956322e6b69,rev?*%
%TF.SameCoordinates,Original*%
%TF.FileFunction,Copper,L2,Bot*%
%TF.FilePolarity,Positive*%
%FSLAX46Y46*%
G04 Gerber Fmt 4.6, Leading zero omitted, Abs format (unit mm)*
G04 Created by KiCad (PCBNEW (5.1.10)-1) date 2021-10-27 11:28:51*
%MOMM*%
%LPD*%
G01*
G04 APERTURE LIST*
%TA.AperFunction,ComponentPad*%
%ADD10C,1.524000*%
%TD*%
%TA.AperFunction,ComponentPad*%
%ADD11R,1.524000X1.524000*%
%TD*%
%TA.AperFunction,ComponentPad*%
%ADD12C,1.300000*%
%TD*%
%TA.AperFunction,ComponentPad*%
%ADD13O,1.700000X1.700000*%
%TD*%
%TA.AperFunction,ComponentPad*%
%ADD14R,1.700000X1.700000*%
%TD*%
%TA.AperFunction,Conductor*%
%ADD15C,0.250000*%
%TD*%
%TA.AperFunction,Conductor*%
%ADD16C,0.254000*%
%TD*%
%TA.AperFunction,Conductor*%
%ADD17C,0.100000*%
%TD*%
G04 APERTURE END LIST*
D10*
%TO.P,U1,30*%
%TO.N,Net-(U1-Pad30)*%
X167640000Y-80010000D03*
%TO.P,U1,29*%
%TO.N,scl*%
X167640000Y-82550000D03*
%TO.P,U1,28*%
%TO.N,Net-(U1-Pad28)*%
X167640000Y-85090000D03*
%TO.P,U1,27*%
%TO.N,Net-(U1-Pad27)*%
X167640000Y-87630000D03*
%TO.P,U1,26*%
%TO.N,sda*%
X167640000Y-90170000D03*
%TO.P,U1,25*%
%TO.N,Net-(U1-Pad25)*%
X167640000Y-92710000D03*
%TO.P,U1,24*%
%TO.N,Net-(U1-Pad24)*%
X167640000Y-95250000D03*
%TO.P,U1,23*%
%TO.N,Net-(U1-Pad23)*%
X167640000Y-97790000D03*
%TO.P,U1,22*%
%TO.N,Net-(J1-Pad3)*%
X167640000Y-100330000D03*
%TO.P,U1,21*%
%TO.N,Net-(J1-Pad4)*%
X167640000Y-102870000D03*
%TO.P,U1,20*%
%TO.N,Net-(U1-Pad20)*%
X167640000Y-105410000D03*
%TO.P,U1,19*%
%TO.N,Net-(U1-Pad19)*%
X167640000Y-107950000D03*
%TO.P,U1,18*%
%TO.N,Net-(U1-Pad18)*%
X167640000Y-110490000D03*
%TO.P,U1,17*%
%TO.N,GND*%
X167640000Y-113030000D03*
%TO.P,U1,16*%
%TO.N,+3V3*%
X167640000Y-115570000D03*
%TO.P,U1,15*%
%TO.N,+5V*%
X142240000Y-115570000D03*
%TO.P,U1,14*%
%TO.N,GND*%
X142240000Y-113030000D03*
%TO.P,U1,13*%
%TO.N,Net-(U1-Pad13)*%
X142240000Y-110490000D03*
%TO.P,U1,12*%
%TO.N,Net-(U1-Pad12)*%
X142240000Y-107950000D03*
%TO.P,U1,11*%
%TO.N,Net-(U1-Pad11)*%
X142240000Y-105410000D03*
%TO.P,U1,10*%
%TO.N,Net-(U1-Pad10)*%
X142240000Y-102870000D03*
%TO.P,U1,9*%
%TO.N,Net-(U1-Pad9)*%
X142240000Y-100330000D03*
%TO.P,U1,8*%
%TO.N,Net-(U1-Pad8)*%
X142240000Y-97790000D03*
%TO.P,U1,7*%
%TO.N,Net-(U1-Pad7)*%
X142240000Y-95250000D03*
%TO.P,U1,6*%
%TO.N,Net-(U1-Pad6)*%
X142240000Y-92710000D03*
%TO.P,U1,5*%
%TO.N,Net-(U1-Pad5)*%
X142240000Y-90170000D03*
%TO.P,U1,4*%
%TO.N,Net-(U1-Pad4)*%
X142240000Y-87630000D03*
%TO.P,U1,3*%
%TO.N,Net-(U1-Pad3)*%
X142240000Y-85090000D03*
%TO.P,U1,2*%
%TO.N,Net-(U1-Pad2)*%
X142240000Y-82550000D03*
D11*
%TO.P,U1,1*%
%TO.N,Net-(U1-Pad1)*%
X142240000Y-80010000D03*
%TD*%
D12*
%TO.P,RH1,4*%
%TO.N,scl*%
X172720000Y-114300000D03*
%TO.P,RH1,3*%
%TO.N,GND*%
X172720000Y-116840000D03*
%TO.P,RH1,2*%
%TO.N,sda*%
X172720000Y-119380000D03*
%TO.P,RH1,1*%
%TO.N,+5V*%
X172720000Y-121920000D03*
%TD*%
D13*
%TO.P,J2,8*%
%TO.N,Net-(J2-Pad8)*%
X172720000Y-93980000D03*
%TO.P,J2,7*%
%TO.N,Net-(J2-Pad7)*%
X172720000Y-91440000D03*
%TO.P,J2,6*%
%TO.N,Net-(J2-Pad6)*%
X172720000Y-88900000D03*
%TO.P,J2,5*%
%TO.N,Net-(J2-Pad5)*%
X172720000Y-86360000D03*
%TO.P,J2,4*%
%TO.N,scl*%
X172720000Y-83820000D03*
%TO.P,J2,3*%
%TO.N,sda*%
X172720000Y-81280000D03*
%TO.P,J2,2*%
%TO.N,GND*%
X172720000Y-78740000D03*
D14*
%TO.P,J2,1*%
%TO.N,+3V3*%
X172720000Y-76200000D03*
%TD*%
D13*
%TO.P,J1,4*%
%TO.N,Net-(J1-Pad4)*%
X172720000Y-107950000D03*
%TO.P,J1,3*%
%TO.N,Net-(J1-Pad3)*%
X172720000Y-105410000D03*
%TO.P,J1,2*%
%TO.N,Net-(J1-Pad2)*%
X172720000Y-102870000D03*
D14*
%TO.P,J1,1*%
%TO.N,Net-(J1-Pad1)*%
X172720000Y-100330000D03*
%TD*%
D15*
%TO.N,Net-(J1-Pad4)*%
X172720000Y-107950000D02*
X171544700Y-107950000D01*
X171544700Y-107950000D02*
X171544700Y-106774700D01*
X171544700Y-106774700D02*
X167640000Y-102870000D01*
%TO.N,Net-(J1-Pad3)*%
X172720000Y-105410000D02*
X171544700Y-105410000D01*
X171544700Y-105410000D02*
X171544700Y-104234700D01*
X171544700Y-104234700D02*
X167640000Y-100330000D01*
%TO.N,scl*%
X172720000Y-83820000D02*
X171544700Y-83820000D01*
X171544700Y-83820000D02*
X170274700Y-82550000D01*
X170274700Y-82550000D02*
X167640000Y-82550000D01*
%TO.N,GND*%
X169380400Y-113030000D02*
X167640000Y-113030000D01*
X172720000Y-79915300D02*
X173087300Y-79915300D01*
X173087300Y-79915300D02*
X173919700Y-80747700D01*
X173919700Y-80747700D02*
X173919700Y-108490700D01*
X173919700Y-108490700D02*
X169380400Y-113030000D01*
X172720000Y-116840000D02*
X169380400Y-113500400D01*
X169380400Y-113500400D02*
X169380400Y-113030000D01*
X172720000Y-78740000D02*
X172720000Y-79915300D01*
X142240000Y-113030000D02*
X167640000Y-113030000D01*
%TO.N,+5V*%
X172720000Y-121920000D02*
X148590000Y-121920000D01*
X148590000Y-121920000D02*
X142240000Y-115570000D01*
%TD*%
D16*
%TO.N,GND*%
X175133000Y-124333000D02*
X141097000Y-124333000D01*
X141097000Y-116373912D01*
X141154880Y-116460535D01*
X141349465Y-116655120D01*
X141578273Y-116808005D01*
X141832510Y-116913314D01*
X142102408Y-116967000D01*
X142377592Y-116967000D01*
X142531571Y-116936372D01*
X148026201Y-122431003D01*
X148049999Y-122460001D01*
X148078997Y-122483799D01*
X148165723Y-122554974D01*
X148297753Y-122625546D01*
X148441014Y-122669003D01*
X148552667Y-122680000D01*
X148552676Y-122680000D01*
X148589999Y-122683676D01*
X148627322Y-122680000D01*
X171682359Y-122680000D01*
X171721875Y-122739140D01*
X171900860Y-122918125D01*
X172111324Y-123058753D01*
X172345179Y-123155619D01*
X172593439Y-123205000D01*
X172846561Y-123205000D01*
X173094821Y-123155619D01*
X173328676Y-123058753D01*
X173539140Y-122918125D01*
X173718125Y-122739140D01*
X173858753Y-122528676D01*
X173955619Y-122294821D01*
X174005000Y-122046561D01*
X174005000Y-121793439D01*
X173955619Y-121545179D01*
X173858753Y-121311324D01*
X173718125Y-121100860D01*
X173539140Y-120921875D01*
X173328676Y-120781247D01*
X173094821Y-120684381D01*
X172921973Y-120650000D01*
X173094821Y-120615619D01*
X173328676Y-120518753D01*
X173539140Y-120378125D01*
X173718125Y-120199140D01*
X173858753Y-119988676D01*
X173955619Y-119754821D01*
X174005000Y-119506561D01*
X174005000Y-119253439D01*
X173955619Y-119005179D01*
X173858753Y-118771324D01*
X173718125Y-118560860D01*
X173539140Y-118381875D01*
X173328676Y-118241247D01*
X173094821Y-118144381D01*
X172919256Y-118109460D01*
X173046449Y-118089270D01*
X173283896Y-118001578D01*
X173372534Y-117954201D01*
X173425922Y-117725527D01*
X172720000Y-117019605D01*
X172014078Y-117725527D01*
X172067466Y-117954201D01*
X172297374Y-118060095D01*
X172511211Y-118111356D01*
X172345179Y-118144381D01*
X172111324Y-118241247D01*
X171900860Y-118381875D01*
X171721875Y-118560860D01*
X171581247Y-118771324D01*
X171484381Y-119005179D01*
X171435000Y-119253439D01*
X171435000Y-119506561D01*
X171484381Y-119754821D01*
X171581247Y-119988676D01*
X171721875Y-120199140D01*
X171900860Y-120378125D01*
X172111324Y-120518753D01*
X172345179Y-120615619D01*
X172518027Y-120650000D01*
X172345179Y-120684381D01*
X172111324Y-120781247D01*
X171900860Y-120921875D01*
X171721875Y-121100860D01*
X171682359Y-121160000D01*
X148904802Y-121160000D01*
X143606372Y-115861571D01*
X143637000Y-115707592D01*
X143637000Y-115432408D01*
X166243000Y-115432408D01*
X166243000Y-115707592D01*
X166296686Y-115977490D01*
X166401995Y-116231727D01*
X166554880Y-116460535D01*
X166749465Y-116655120D01*
X166978273Y-116808005D01*
X167232510Y-116913314D01*
X167502408Y-116967000D01*
X167777592Y-116967000D01*
X168031699Y-116916455D01*
X171431048Y-116916455D01*
X171470730Y-117166449D01*
X171558422Y-117403896D01*
X171605799Y-117492534D01*
X171834473Y-117545922D01*
X172540395Y-116840000D01*
X172899605Y-116840000D01*
X173605527Y-117545922D01*
X173834201Y-117492534D01*
X173940095Y-117262626D01*
X173999102Y-117016476D01*
X174008952Y-116763545D01*
X173969270Y-116513551D01*
X173881578Y-116276104D01*
X173834201Y-116187466D01*
X173605527Y-116134078D01*
X172899605Y-116840000D01*
X172540395Y-116840000D01*
X171834473Y-116134078D01*
X171605799Y-116187466D01*
X171499905Y-116417374D01*
X171440898Y-116663524D01*
X171431048Y-116916455D01*
X168031699Y-116916455D01*
X168047490Y-116913314D01*
X168301727Y-116808005D01*
X168530535Y-116655120D01*
X168725120Y-116460535D01*
X168878005Y-116231727D01*
X168983314Y-115977490D01*
X169037000Y-115707592D01*
X169037000Y-115432408D01*
X168983314Y-115162510D01*
X168878005Y-114908273D01*
X168725120Y-114679465D01*
X168530535Y-114484880D01*
X168301727Y-114331995D01*
X168230057Y-114302308D01*
X168243023Y-114297636D01*
X168358980Y-114235656D01*
X168376337Y-114173439D01*
X171435000Y-114173439D01*
X171435000Y-114426561D01*
X171484381Y-114674821D01*
X171581247Y-114908676D01*
X171721875Y-115119140D01*
X171900860Y-115298125D01*
X172111324Y-115438753D01*
X172345179Y-115535619D01*
X172520744Y-115570540D01*
X172393551Y-115590730D01*
X172156104Y-115678422D01*
X172067466Y-115725799D01*
X172014078Y-115954473D01*
X172720000Y-116660395D01*
X173425922Y-115954473D01*
X173372534Y-115725799D01*
X173142626Y-115619905D01*
X172928789Y-115568644D01*
X173094821Y-115535619D01*
X173328676Y-115438753D01*
X173539140Y-115298125D01*
X173718125Y-115119140D01*
X173858753Y-114908676D01*
X173955619Y-114674821D01*
X174005000Y-114426561D01*
X174005000Y-114173439D01*
X173955619Y-113925179D01*
X173858753Y-113691324D01*
X173718125Y-113480860D01*
X173539140Y-113301875D01*
X173328676Y-113161247D01*
X173094821Y-113064381D01*
X172846561Y-113015000D01*
X172593439Y-113015000D01*
X172345179Y-113064381D01*
X172111324Y-113161247D01*
X171900860Y-113301875D01*
X171721875Y-113480860D01*
X171581247Y-113691324D01*
X171484381Y-113925179D01*
X171435000Y-114173439D01*
X168376337Y-114173439D01*
X168425960Y-113995565D01*
X167640000Y-113209605D01*
X166854040Y-113995565D01*
X166921020Y-114235656D01*
X167056760Y-114299485D01*
X166978273Y-114331995D01*
X166749465Y-114484880D01*
X166554880Y-114679465D01*
X166401995Y-114908273D01*
X166296686Y-115162510D01*
X166243000Y-115432408D01*
X143637000Y-115432408D01*
X143583314Y-115162510D01*
X143478005Y-114908273D01*
X143325120Y-114679465D01*
X143130535Y-114484880D01*
X142901727Y-114331995D01*
X142830057Y-114302308D01*
X142843023Y-114297636D01*
X142958980Y-114235656D01*
X143025960Y-113995565D01*
X142240000Y-113209605D01*
X141454040Y-113995565D01*
X141521020Y-114235656D01*
X141656760Y-114299485D01*
X141578273Y-114331995D01*
X141349465Y-114484880D01*
X141154880Y-114679465D01*
X141097000Y-114766088D01*
X141097000Y-113766460D01*
X141274435Y-113815960D01*
X142060395Y-113030000D01*
X142419605Y-113030000D01*
X143205565Y-113815960D01*
X143445656Y-113748980D01*
X143562756Y-113499952D01*
X143629023Y-113232865D01*
X143635157Y-113102017D01*
X166238090Y-113102017D01*
X166279078Y-113374133D01*
X166372364Y-113633023D01*
X166434344Y-113748980D01*
X166674435Y-113815960D01*
X167460395Y-113030000D01*
X167819605Y-113030000D01*
X168605565Y-113815960D01*
X168845656Y-113748980D01*
X168962756Y-113499952D01*
X169029023Y-113232865D01*
X169041910Y-112957983D01*
X169000922Y-112685867D01*
X168907636Y-112426977D01*
X168845656Y-112311020D01*
X168605565Y-112244040D01*
X167819605Y-113030000D01*
X167460395Y-113030000D01*
X166674435Y-112244040D01*
X166434344Y-112311020D01*
X166317244Y-112560048D01*
X166250977Y-112827135D01*
X166238090Y-113102017D01*
X143635157Y-113102017D01*
X143641910Y-112957983D01*
X143600922Y-112685867D01*
X143507636Y-112426977D01*
X143445656Y-112311020D01*
X143205565Y-112244040D01*
X142419605Y-113030000D01*
X142060395Y-113030000D01*
X141274435Y-112244040D01*
X141097000Y-112293540D01*
X141097000Y-111293912D01*
X141154880Y-111380535D01*
X141349465Y-111575120D01*
X141578273Y-111728005D01*
X141649943Y-111757692D01*
X141636977Y-111762364D01*
X141521020Y-111824344D01*
X141454040Y-112064435D01*
X142240000Y-112850395D01*
X143025960Y-112064435D01*
X142958980Y-111824344D01*
X142823240Y-111760515D01*
X142901727Y-111728005D01*
X143130535Y-111575120D01*
X143325120Y-111380535D01*
X143478005Y-111151727D01*
X143583314Y-110897490D01*
X143637000Y-110627592D01*
X143637000Y-110352408D01*
X143583314Y-110082510D01*
X143478005Y-109828273D01*
X143325120Y-109599465D01*
X143130535Y-109404880D01*
X142901727Y-109251995D01*
X142824485Y-109220000D01*
X142901727Y-109188005D01*
X143130535Y-109035120D01*
X143325120Y-108840535D01*
X143478005Y-108611727D01*
X143583314Y-108357490D01*
X143637000Y-108087592D01*
X143637000Y-107812408D01*
X143583314Y-107542510D01*
X143478005Y-107288273D01*
X143325120Y-107059465D01*
X143130535Y-106864880D01*
X142901727Y-106711995D01*
X142824485Y-106680000D01*
X142901727Y-106648005D01*
X143130535Y-106495120D01*
X143325120Y-106300535D01*
X143478005Y-106071727D01*
X143583314Y-105817490D01*
X143637000Y-105547592D01*
X143637000Y-105272408D01*
X143583314Y-105002510D01*
X143478005Y-104748273D01*
X143325120Y-104519465D01*
X143130535Y-104324880D01*
X142901727Y-104171995D01*
X142824485Y-104140000D01*
X142901727Y-104108005D01*
X143130535Y-103955120D01*
X143325120Y-103760535D01*
X143478005Y-103531727D01*
X143583314Y-103277490D01*
X143637000Y-103007592D01*
X143637000Y-102732408D01*
X143583314Y-102462510D01*
X143478005Y-102208273D01*
X143325120Y-101979465D01*
X143130535Y-101784880D01*
X142901727Y-101631995D01*
X142824485Y-101600000D01*
X142901727Y-101568005D01*
X143130535Y-101415120D01*
X143325120Y-101220535D01*
X143478005Y-100991727D01*
X143583314Y-100737490D01*
X143637000Y-100467592D01*
X143637000Y-100192408D01*
X143583314Y-99922510D01*
X143478005Y-99668273D01*
X143325120Y-99439465D01*
X143130535Y-99244880D01*
X142901727Y-99091995D01*
X142824485Y-99060000D01*
X142901727Y-99028005D01*
X143130535Y-98875120D01*
X143325120Y-98680535D01*
X143478005Y-98451727D01*
X143583314Y-98197490D01*
X143637000Y-97927592D01*
X143637000Y-97652408D01*
X143583314Y-97382510D01*
X143478005Y-97128273D01*
X143325120Y-96899465D01*
X143130535Y-96704880D01*
X142901727Y-96551995D01*
X142824485Y-96520000D01*
X142901727Y-96488005D01*
X143130535Y-96335120D01*
X143325120Y-96140535D01*
X143478005Y-95911727D01*
X143583314Y-95657490D01*
X143637000Y-95387592D01*
X143637000Y-95112408D01*
X143583314Y-94842510D01*
X143478005Y-94588273D01*
X143325120Y-94359465D01*
X143130535Y-94164880D01*
X142901727Y-94011995D01*
X142824485Y-93980000D01*
X142901727Y-93948005D01*
X143130535Y-93795120D01*
X143325120Y-93600535D01*
X143478005Y-93371727D01*
X143583314Y-93117490D01*
X143637000Y-92847592D01*
X143637000Y-92572408D01*
X143583314Y-92302510D01*
X143478005Y-92048273D01*
X143325120Y-91819465D01*
X143130535Y-91624880D01*
X142901727Y-91471995D01*
X142824485Y-91440000D01*
X142901727Y-91408005D01*
X143130535Y-91255120D01*
X143325120Y-91060535D01*
X143478005Y-90831727D01*
X143583314Y-90577490D01*
X143637000Y-90307592D01*
X143637000Y-90032408D01*
X143583314Y-89762510D01*
X143478005Y-89508273D01*
X143325120Y-89279465D01*
X143130535Y-89084880D01*
X142901727Y-88931995D01*
X142824485Y-88900000D01*
X142901727Y-88868005D01*
X143130535Y-88715120D01*
X143325120Y-88520535D01*
X143478005Y-88291727D01*
X143583314Y-88037490D01*
X143637000Y-87767592D01*
X143637000Y-87492408D01*
X143583314Y-87222510D01*
X143478005Y-86968273D01*
X143325120Y-86739465D01*
X143130535Y-86544880D01*
X142901727Y-86391995D01*
X142824485Y-86360000D01*
X142901727Y-86328005D01*
X143130535Y-86175120D01*
X143325120Y-85980535D01*
X143478005Y-85751727D01*
X143583314Y-85497490D01*
X143637000Y-85227592D01*
X143637000Y-84952408D01*
X143583314Y-84682510D01*
X143478005Y-84428273D01*
X143325120Y-84199465D01*
X143130535Y-84004880D01*
X142901727Y-83851995D01*
X142824485Y-83820000D01*
X142901727Y-83788005D01*
X143130535Y-83635120D01*
X143325120Y-83440535D01*
X143478005Y-83211727D01*
X143583314Y-82957490D01*
X143637000Y-82687592D01*
X143637000Y-82412408D01*
X143583314Y-82142510D01*
X143478005Y-81888273D01*
X143325120Y-81659465D01*
X143130535Y-81464880D01*
X143042535Y-81406080D01*
X143126482Y-81397812D01*
X143246180Y-81361502D01*
X143356494Y-81302537D01*
X143453185Y-81223185D01*
X143532537Y-81126494D01*
X143591502Y-81016180D01*
X143627812Y-80896482D01*
X143640072Y-80772000D01*
X143640072Y-79872408D01*
X166243000Y-79872408D01*
X166243000Y-80147592D01*
X166296686Y-80417490D01*
X166401995Y-80671727D01*
X166554880Y-80900535D01*
X166749465Y-81095120D01*
X166978273Y-81248005D01*
X167055515Y-81280000D01*
X166978273Y-81311995D01*
X166749465Y-81464880D01*
X166554880Y-81659465D01*
X166401995Y-81888273D01*
X166296686Y-82142510D01*
X166243000Y-82412408D01*
X166243000Y-82687592D01*
X166296686Y-82957490D01*
X166401995Y-83211727D01*
X166554880Y-83440535D01*
X166749465Y-83635120D01*
X166978273Y-83788005D01*
X167055515Y-83820000D01*
X166978273Y-83851995D01*
X166749465Y-84004880D01*
X166554880Y-84199465D01*
X166401995Y-84428273D01*
X166296686Y-84682510D01*
X166243000Y-84952408D01*
X166243000Y-85227592D01*
X166296686Y-85497490D01*
X166401995Y-85751727D01*
X166554880Y-85980535D01*
X166749465Y-86175120D01*
X166978273Y-86328005D01*
X167055515Y-86360000D01*
X166978273Y-86391995D01*
X166749465Y-86544880D01*
X166554880Y-86739465D01*
X166401995Y-86968273D01*
X166296686Y-87222510D01*
X166243000Y-87492408D01*
X166243000Y-87767592D01*
X166296686Y-88037490D01*
X166401995Y-88291727D01*
X166554880Y-88520535D01*
X166749465Y-88715120D01*
X166978273Y-88868005D01*
X167055515Y-88900000D01*
X166978273Y-88931995D01*
X166749465Y-89084880D01*
X166554880Y-89279465D01*
X166401995Y-89508273D01*
X166296686Y-89762510D01*
X166243000Y-90032408D01*
X166243000Y-90307592D01*
X166296686Y-90577490D01*
X166401995Y-90831727D01*
X166554880Y-91060535D01*
X166749465Y-91255120D01*
X166978273Y-91408005D01*
X167055515Y-91440000D01*
X166978273Y-91471995D01*
X166749465Y-91624880D01*
X166554880Y-91819465D01*
X166401995Y-92048273D01*
X166296686Y-92302510D01*
X166243000Y-92572408D01*
X166243000Y-92847592D01*
X166296686Y-93117490D01*
X166401995Y-93371727D01*
X166554880Y-93600535D01*
X166749465Y-93795120D01*
X166978273Y-93948005D01*
X167055515Y-93980000D01*
X166978273Y-94011995D01*
X166749465Y-94164880D01*
X166554880Y-94359465D01*
X166401995Y-94588273D01*
X166296686Y-94842510D01*
X166243000Y-95112408D01*
X166243000Y-95387592D01*
X166296686Y-95657490D01*
X166401995Y-95911727D01*
X166554880Y-96140535D01*
X166749465Y-96335120D01*
X166978273Y-96488005D01*
X167055515Y-96520000D01*
X166978273Y-96551995D01*
X166749465Y-96704880D01*
X166554880Y-96899465D01*
X166401995Y-97128273D01*
X166296686Y-97382510D01*
X166243000Y-97652408D01*
X166243000Y-97927592D01*
X166296686Y-98197490D01*
X166401995Y-98451727D01*
X166554880Y-98680535D01*
X166749465Y-98875120D01*
X166978273Y-99028005D01*
X167055515Y-99060000D01*
X166978273Y-99091995D01*
X166749465Y-99244880D01*
X166554880Y-99439465D01*
X166401995Y-99668273D01*
X166296686Y-99922510D01*
X166243000Y-100192408D01*
X166243000Y-100467592D01*
X166296686Y-100737490D01*
X166401995Y-100991727D01*
X166554880Y-101220535D01*
X166749465Y-101415120D01*
X166978273Y-101568005D01*
X167055515Y-101600000D01*
X166978273Y-101631995D01*
X166749465Y-101784880D01*
X166554880Y-101979465D01*
X166401995Y-102208273D01*
X166296686Y-102462510D01*
X166243000Y-102732408D01*
X166243000Y-103007592D01*
X166296686Y-103277490D01*
X166401995Y-103531727D01*
X166554880Y-103760535D01*
X166749465Y-103955120D01*
X166978273Y-104108005D01*
X167055515Y-104140000D01*
X166978273Y-104171995D01*
X166749465Y-104324880D01*
X166554880Y-104519465D01*
X166401995Y-104748273D01*
X166296686Y-105002510D01*
X166243000Y-105272408D01*
X166243000Y-105547592D01*
X166296686Y-105817490D01*
X166401995Y-106071727D01*
X166554880Y-106300535D01*
X166749465Y-106495120D01*
X166978273Y-106648005D01*
X167055515Y-106680000D01*
X166978273Y-106711995D01*
X166749465Y-106864880D01*
X166554880Y-107059465D01*
X166401995Y-107288273D01*
X166296686Y-107542510D01*
X166243000Y-107812408D01*
X166243000Y-108087592D01*
X166296686Y-108357490D01*
X166401995Y-108611727D01*
X166554880Y-108840535D01*
X166749465Y-109035120D01*
X166978273Y-109188005D01*
X167055515Y-109220000D01*
X166978273Y-109251995D01*
X166749465Y-109404880D01*
X166554880Y-109599465D01*
X166401995Y-109828273D01*
X166296686Y-110082510D01*
X166243000Y-110352408D01*
X166243000Y-110627592D01*
X166296686Y-110897490D01*
X166401995Y-111151727D01*
X166554880Y-111380535D01*
X166749465Y-111575120D01*
X166978273Y-111728005D01*
X167049943Y-111757692D01*
X167036977Y-111762364D01*
X166921020Y-111824344D01*
X166854040Y-112064435D01*
X167640000Y-112850395D01*
X168425960Y-112064435D01*
X168358980Y-111824344D01*
X168223240Y-111760515D01*
X168301727Y-111728005D01*
X168530535Y-111575120D01*
X168725120Y-111380535D01*
X168878005Y-111151727D01*
X168983314Y-110897490D01*
X169037000Y-110627592D01*
X169037000Y-110352408D01*
X168983314Y-110082510D01*
X168878005Y-109828273D01*
X168725120Y-109599465D01*
X168530535Y-109404880D01*
X168301727Y-109251995D01*
X168224485Y-109220000D01*
X168301727Y-109188005D01*
X168530535Y-109035120D01*
X168725120Y-108840535D01*
X168878005Y-108611727D01*
X168983314Y-108357490D01*
X169037000Y-108087592D01*
X169037000Y-107812408D01*
X168983314Y-107542510D01*
X168878005Y-107288273D01*
X168725120Y-107059465D01*
X168530535Y-106864880D01*
X168301727Y-106711995D01*
X168224485Y-106680000D01*
X168301727Y-106648005D01*
X168530535Y-106495120D01*
X168725120Y-106300535D01*
X168878005Y-106071727D01*
X168983314Y-105817490D01*
X169037000Y-105547592D01*
X169037000Y-105341801D01*
X170784701Y-107089503D01*
X170784700Y-107912667D01*
X170781023Y-107950000D01*
X170795697Y-108098986D01*
X170839154Y-108242247D01*
X170909726Y-108374276D01*
X171004699Y-108490001D01*
X171120424Y-108584974D01*
X171252453Y-108655546D01*
X171395714Y-108699003D01*
X171437204Y-108703089D01*
X171566525Y-108896632D01*
X171773368Y-109103475D01*
X172016589Y-109265990D01*
X172286842Y-109377932D01*
X172573740Y-109435000D01*
X172866260Y-109435000D01*
X173153158Y-109377932D01*
X173423411Y-109265990D01*
X173666632Y-109103475D01*
X173873475Y-108896632D01*
X174035990Y-108653411D01*
X174147932Y-108383158D01*
X174205000Y-108096260D01*
X174205000Y-107803740D01*
X174147932Y-107516842D01*
X174035990Y-107246589D01*
X173873475Y-107003368D01*
X173666632Y-106796525D01*
X173492240Y-106680000D01*
X173666632Y-106563475D01*
X173873475Y-106356632D01*
X174035990Y-106113411D01*
X174147932Y-105843158D01*
X174205000Y-105556260D01*
X174205000Y-105263740D01*
X174147932Y-104976842D01*
X174035990Y-104706589D01*
X173873475Y-104463368D01*
X173666632Y-104256525D01*
X173492240Y-104140000D01*
X173666632Y-104023475D01*
X173873475Y-103816632D01*
X174035990Y-103573411D01*
X174147932Y-103303158D01*
X174205000Y-103016260D01*
X174205000Y-102723740D01*
X174147932Y-102436842D01*
X174035990Y-102166589D01*
X173873475Y-101923368D01*
X173741620Y-101791513D01*
X173814180Y-101769502D01*
X173924494Y-101710537D01*
X174021185Y-101631185D01*
X174100537Y-101534494D01*
X174159502Y-101424180D01*
X174195812Y-101304482D01*
X174208072Y-101180000D01*
X174208072Y-99480000D01*
X174195812Y-99355518D01*
X174159502Y-99235820D01*
X174100537Y-99125506D01*
X174021185Y-99028815D01*
X173924494Y-98949463D01*
X173814180Y-98890498D01*
X173694482Y-98854188D01*
X173570000Y-98841928D01*
X171870000Y-98841928D01*
X171745518Y-98854188D01*
X171625820Y-98890498D01*
X171515506Y-98949463D01*
X171418815Y-99028815D01*
X171339463Y-99125506D01*
X171280498Y-99235820D01*
X171244188Y-99355518D01*
X171231928Y-99480000D01*
X171231928Y-101180000D01*
X171244188Y-101304482D01*
X171280498Y-101424180D01*
X171339463Y-101534494D01*
X171418815Y-101631185D01*
X171515506Y-101710537D01*
X171625820Y-101769502D01*
X171698380Y-101791513D01*
X171566525Y-101923368D01*
X171404010Y-102166589D01*
X171292068Y-102436842D01*
X171235000Y-102723740D01*
X171235000Y-102850198D01*
X169006372Y-100621571D01*
X169037000Y-100467592D01*
X169037000Y-100192408D01*
X168983314Y-99922510D01*
X168878005Y-99668273D01*
X168725120Y-99439465D01*
X168530535Y-99244880D01*
X168301727Y-99091995D01*
X168224485Y-99060000D01*
X168301727Y-99028005D01*
X168530535Y-98875120D01*
X168725120Y-98680535D01*
X168878005Y-98451727D01*
X168983314Y-98197490D01*
X169037000Y-97927592D01*
X169037000Y-97652408D01*
X168983314Y-97382510D01*
X168878005Y-97128273D01*
X168725120Y-96899465D01*
X168530535Y-96704880D01*
X168301727Y-96551995D01*
X168224485Y-96520000D01*
X168301727Y-96488005D01*
X168530535Y-96335120D01*
X168725120Y-96140535D01*
X168878005Y-95911727D01*
X168983314Y-95657490D01*
X169037000Y-95387592D01*
X169037000Y-95112408D01*
X168983314Y-94842510D01*
X168878005Y-94588273D01*
X168725120Y-94359465D01*
X168530535Y-94164880D01*
X168301727Y-94011995D01*
X168224485Y-93980000D01*
X168301727Y-93948005D01*
X168530535Y-93795120D01*
X168725120Y-93600535D01*
X168878005Y-93371727D01*
X168983314Y-93117490D01*
X169037000Y-92847592D01*
X169037000Y-92572408D01*
X168983314Y-92302510D01*
X168878005Y-92048273D01*
X168725120Y-91819465D01*
X168530535Y-91624880D01*
X168301727Y-91471995D01*
X168224485Y-91440000D01*
X168301727Y-91408005D01*
X168530535Y-91255120D01*
X168725120Y-91060535D01*
X168878005Y-90831727D01*
X168983314Y-90577490D01*
X169037000Y-90307592D01*
X169037000Y-90032408D01*
X168983314Y-89762510D01*
X168878005Y-89508273D01*
X168725120Y-89279465D01*
X168530535Y-89084880D01*
X168301727Y-88931995D01*
X168224485Y-88900000D01*
X168301727Y-88868005D01*
X168530535Y-88715120D01*
X168725120Y-88520535D01*
X168878005Y-88291727D01*
X168983314Y-88037490D01*
X169037000Y-87767592D01*
X169037000Y-87492408D01*
X168983314Y-87222510D01*
X168878005Y-86968273D01*
X168725120Y-86739465D01*
X168530535Y-86544880D01*
X168301727Y-86391995D01*
X168224485Y-86360000D01*
X168301727Y-86328005D01*
X168530535Y-86175120D01*
X168725120Y-85980535D01*
X168878005Y-85751727D01*
X168983314Y-85497490D01*
X169037000Y-85227592D01*
X169037000Y-84952408D01*
X168983314Y-84682510D01*
X168878005Y-84428273D01*
X168725120Y-84199465D01*
X168530535Y-84004880D01*
X168301727Y-83851995D01*
X168224485Y-83820000D01*
X168301727Y-83788005D01*
X168530535Y-83635120D01*
X168725120Y-83440535D01*
X168812341Y-83310000D01*
X169959899Y-83310000D01*
X170980901Y-84331003D01*
X171004699Y-84360001D01*
X171120424Y-84454974D01*
X171252453Y-84525546D01*
X171395714Y-84569003D01*
X171437204Y-84573089D01*
X171566525Y-84766632D01*
X171773368Y-84973475D01*
X171947760Y-85090000D01*
X171773368Y-85206525D01*
X171566525Y-85413368D01*
X171404010Y-85656589D01*
X171292068Y-85926842D01*
X171235000Y-86213740D01*
X171235000Y-86506260D01*
X171292068Y-86793158D01*
X171404010Y-87063411D01*
X171566525Y-87306632D01*
X171773368Y-87513475D01*
X171947760Y-87630000D01*
X171773368Y-87746525D01*
X171566525Y-87953368D01*
X171404010Y-88196589D01*
X171292068Y-88466842D01*
X171235000Y-88753740D01*
X171235000Y-89046260D01*
X171292068Y-89333158D01*
X171404010Y-89603411D01*
X171566525Y-89846632D01*
X171773368Y-90053475D01*
X171947760Y-90170000D01*
X171773368Y-90286525D01*
X171566525Y-90493368D01*
X171404010Y-90736589D01*
X171292068Y-91006842D01*
X171235000Y-91293740D01*
X171235000Y-91586260D01*
X171292068Y-91873158D01*
X171404010Y-92143411D01*
X171566525Y-92386632D01*
X171773368Y-92593475D01*
X171947760Y-92710000D01*
X171773368Y-92826525D01*
X171566525Y-93033368D01*
X171404010Y-93276589D01*
X171292068Y-93546842D01*
X171235000Y-93833740D01*
X171235000Y-94126260D01*
X171292068Y-94413158D01*
X171404010Y-94683411D01*
X171566525Y-94926632D01*
X171773368Y-95133475D01*
X172016589Y-95295990D01*
X172286842Y-95407932D01*
X172573740Y-95465000D01*
X172866260Y-95465000D01*
X173153158Y-95407932D01*
X173423411Y-95295990D01*
X173666632Y-95133475D01*
X173873475Y-94926632D01*
X174035990Y-94683411D01*
X174147932Y-94413158D01*
X174205000Y-94126260D01*
X174205000Y-93833740D01*
X174147932Y-93546842D01*
X174035990Y-93276589D01*
X173873475Y-93033368D01*
X173666632Y-92826525D01*
X173492240Y-92710000D01*
X173666632Y-92593475D01*
X173873475Y-92386632D01*
X174035990Y-92143411D01*
X174147932Y-91873158D01*
X174205000Y-91586260D01*
X174205000Y-91293740D01*
X174147932Y-91006842D01*
X174035990Y-90736589D01*
X173873475Y-90493368D01*
X173666632Y-90286525D01*
X173492240Y-90170000D01*
X173666632Y-90053475D01*
X173873475Y-89846632D01*
X174035990Y-89603411D01*
X174147932Y-89333158D01*
X174205000Y-89046260D01*
X174205000Y-88753740D01*
X174147932Y-88466842D01*
X174035990Y-88196589D01*
X173873475Y-87953368D01*
X173666632Y-87746525D01*
X173492240Y-87630000D01*
X173666632Y-87513475D01*
X173873475Y-87306632D01*
X174035990Y-87063411D01*
X174147932Y-86793158D01*
X174205000Y-86506260D01*
X174205000Y-86213740D01*
X174147932Y-85926842D01*
X174035990Y-85656589D01*
X173873475Y-85413368D01*
X173666632Y-85206525D01*
X173492240Y-85090000D01*
X173666632Y-84973475D01*
X173873475Y-84766632D01*
X174035990Y-84523411D01*
X174147932Y-84253158D01*
X174205000Y-83966260D01*
X174205000Y-83673740D01*
X174147932Y-83386842D01*
X174035990Y-83116589D01*
X173873475Y-82873368D01*
X173666632Y-82666525D01*
X173492240Y-82550000D01*
X173666632Y-82433475D01*
X173873475Y-82226632D01*
X174035990Y-81983411D01*
X174147932Y-81713158D01*
X174205000Y-81426260D01*
X174205000Y-81133740D01*
X174147932Y-80846842D01*
X174035990Y-80576589D01*
X173873475Y-80333368D01*
X173666632Y-80126525D01*
X173484466Y-80004805D01*
X173601355Y-79935178D01*
X173817588Y-79740269D01*
X173991641Y-79506920D01*
X174116825Y-79244099D01*
X174161476Y-79096890D01*
X174040155Y-78867000D01*
X172847000Y-78867000D01*
X172847000Y-78887000D01*
X172593000Y-78887000D01*
X172593000Y-78867000D01*
X171399845Y-78867000D01*
X171278524Y-79096890D01*
X171323175Y-79244099D01*
X171448359Y-79506920D01*
X171622412Y-79740269D01*
X171838645Y-79935178D01*
X171955534Y-80004805D01*
X171773368Y-80126525D01*
X171566525Y-80333368D01*
X171404010Y-80576589D01*
X171292068Y-80846842D01*
X171235000Y-81133740D01*
X171235000Y-81426260D01*
X171292068Y-81713158D01*
X171404010Y-81983411D01*
X171566525Y-82226632D01*
X171773368Y-82433475D01*
X171947760Y-82550000D01*
X171773368Y-82666525D01*
X171619697Y-82820196D01*
X170838504Y-82039003D01*
X170814701Y-82009999D01*
X170698976Y-81915026D01*
X170566947Y-81844454D01*
X170423686Y-81800997D01*
X170312033Y-81790000D01*
X170312022Y-81790000D01*
X170274700Y-81786324D01*
X170237378Y-81790000D01*
X168812341Y-81790000D01*
X168725120Y-81659465D01*
X168530535Y-81464880D01*
X168301727Y-81311995D01*
X168224485Y-81280000D01*
X168301727Y-81248005D01*
X168530535Y-81095120D01*
X168725120Y-80900535D01*
X168878005Y-80671727D01*
X168983314Y-80417490D01*
X169037000Y-80147592D01*
X169037000Y-79872408D01*
X168983314Y-79602510D01*
X168878005Y-79348273D01*
X168725120Y-79119465D01*
X168530535Y-78924880D01*
X168301727Y-78771995D01*
X168047490Y-78666686D01*
X167777592Y-78613000D01*
X167502408Y-78613000D01*
X167232510Y-78666686D01*
X166978273Y-78771995D01*
X166749465Y-78924880D01*
X166554880Y-79119465D01*
X166401995Y-79348273D01*
X166296686Y-79602510D01*
X166243000Y-79872408D01*
X143640072Y-79872408D01*
X143640072Y-79248000D01*
X143627812Y-79123518D01*
X143591502Y-79003820D01*
X143532537Y-78893506D01*
X143453185Y-78796815D01*
X143356494Y-78717463D01*
X143246180Y-78658498D01*
X143126482Y-78622188D01*
X143002000Y-78609928D01*
X141478000Y-78609928D01*
X141353518Y-78622188D01*
X141233820Y-78658498D01*
X141123506Y-78717463D01*
X141097000Y-78739216D01*
X141097000Y-75350000D01*
X171231928Y-75350000D01*
X171231928Y-77050000D01*
X171244188Y-77174482D01*
X171280498Y-77294180D01*
X171339463Y-77404494D01*
X171418815Y-77501185D01*
X171515506Y-77580537D01*
X171625820Y-77639502D01*
X171706466Y-77663966D01*
X171622412Y-77739731D01*
X171448359Y-77973080D01*
X171323175Y-78235901D01*
X171278524Y-78383110D01*
X171399845Y-78613000D01*
X172593000Y-78613000D01*
X172593000Y-78593000D01*
X172847000Y-78593000D01*
X172847000Y-78613000D01*
X174040155Y-78613000D01*
X174161476Y-78383110D01*
X174116825Y-78235901D01*
X173991641Y-77973080D01*
X173817588Y-77739731D01*
X173733534Y-77663966D01*
X173814180Y-77639502D01*
X173924494Y-77580537D01*
X174021185Y-77501185D01*
X174100537Y-77404494D01*
X174159502Y-77294180D01*
X174195812Y-77174482D01*
X174208072Y-77050000D01*
X174208072Y-75350000D01*
X174195812Y-75225518D01*
X174159502Y-75105820D01*
X174100537Y-74995506D01*
X174021185Y-74898815D01*
X173924494Y-74819463D01*
X173814180Y-74760498D01*
X173694482Y-74724188D01*
X173570000Y-74711928D01*
X171870000Y-74711928D01*
X171745518Y-74724188D01*
X171625820Y-74760498D01*
X171515506Y-74819463D01*
X171418815Y-74898815D01*
X171339463Y-74995506D01*
X171280498Y-75105820D01*
X171244188Y-75225518D01*
X171231928Y-75350000D01*
X141097000Y-75350000D01*
X141097000Y-73787000D01*
X175133000Y-73787000D01*
X175133000Y-124333000D01*
%TA.AperFunction,Conductor*%
D17*
G36*
X175133000Y-124333000D02*
G01*
X141097000Y-124333000D01*
X141097000Y-116373912D01*
X141154880Y-116460535D01*
X141349465Y-116655120D01*
X141578273Y-116808005D01*
X141832510Y-116913314D01*
X142102408Y-116967000D01*
X142377592Y-116967000D01*
X142531571Y-116936372D01*
X148026201Y-122431003D01*
X148049999Y-122460001D01*
X148078997Y-122483799D01*
X148165723Y-122554974D01*
X148297753Y-122625546D01*
X148441014Y-122669003D01*
X148552667Y-122680000D01*
X148552676Y-122680000D01*
X148589999Y-122683676D01*
X148627322Y-122680000D01*
X171682359Y-122680000D01*
X171721875Y-122739140D01*
X171900860Y-122918125D01*
X172111324Y-123058753D01*
X172345179Y-123155619D01*
X172593439Y-123205000D01*
X172846561Y-123205000D01*
X173094821Y-123155619D01*
X173328676Y-123058753D01*
X173539140Y-122918125D01*
X173718125Y-122739140D01*
X173858753Y-122528676D01*
X173955619Y-122294821D01*
X174005000Y-122046561D01*
X174005000Y-121793439D01*
X173955619Y-121545179D01*
X173858753Y-121311324D01*
X173718125Y-121100860D01*
X173539140Y-120921875D01*
X173328676Y-120781247D01*
X173094821Y-120684381D01*
X172921973Y-120650000D01*
X173094821Y-120615619D01*
X173328676Y-120518753D01*
X173539140Y-120378125D01*
X173718125Y-120199140D01*
X173858753Y-119988676D01*
X173955619Y-119754821D01*
X174005000Y-119506561D01*
X174005000Y-119253439D01*
X173955619Y-119005179D01*
X173858753Y-118771324D01*
X173718125Y-118560860D01*
X173539140Y-118381875D01*
X173328676Y-118241247D01*
X173094821Y-118144381D01*
X172919256Y-118109460D01*
X173046449Y-118089270D01*
X173283896Y-118001578D01*
X173372534Y-117954201D01*
X173425922Y-117725527D01*
X172720000Y-117019605D01*
X172014078Y-117725527D01*
X172067466Y-117954201D01*
X172297374Y-118060095D01*
X172511211Y-118111356D01*
X172345179Y-118144381D01*
X172111324Y-118241247D01*
X171900860Y-118381875D01*
X171721875Y-118560860D01*
X171581247Y-118771324D01*
X171484381Y-119005179D01*
X171435000Y-119253439D01*
X171435000Y-119506561D01*
X171484381Y-119754821D01*
X171581247Y-119988676D01*
X171721875Y-120199140D01*
X171900860Y-120378125D01*
X172111324Y-120518753D01*
X172345179Y-120615619D01*
X172518027Y-120650000D01*
X172345179Y-120684381D01*
X172111324Y-120781247D01*
X171900860Y-120921875D01*
X171721875Y-121100860D01*
X171682359Y-121160000D01*
X148904802Y-121160000D01*
X143606372Y-115861571D01*
X143637000Y-115707592D01*
X143637000Y-115432408D01*
X166243000Y-115432408D01*
X166243000Y-115707592D01*
X166296686Y-115977490D01*
X166401995Y-116231727D01*
X166554880Y-116460535D01*
X166749465Y-116655120D01*
X166978273Y-116808005D01*
X167232510Y-116913314D01*
X167502408Y-116967000D01*
X167777592Y-116967000D01*
X168031699Y-116916455D01*
X171431048Y-116916455D01*
X171470730Y-117166449D01*
X171558422Y-117403896D01*
X171605799Y-117492534D01*
X171834473Y-117545922D01*
X172540395Y-116840000D01*
X172899605Y-116840000D01*
X173605527Y-117545922D01*
X173834201Y-117492534D01*
X173940095Y-117262626D01*
X173999102Y-117016476D01*
X174008952Y-116763545D01*
X173969270Y-116513551D01*
X173881578Y-116276104D01*
X173834201Y-116187466D01*
X173605527Y-116134078D01*
X172899605Y-116840000D01*
X172540395Y-116840000D01*
X171834473Y-116134078D01*
X171605799Y-116187466D01*
X171499905Y-116417374D01*
X171440898Y-116663524D01*
X171431048Y-116916455D01*
X168031699Y-116916455D01*
X168047490Y-116913314D01*
X168301727Y-116808005D01*
X168530535Y-116655120D01*
X168725120Y-116460535D01*
X168878005Y-116231727D01*
X168983314Y-115977490D01*
X169037000Y-115707592D01*
X169037000Y-115432408D01*
X168983314Y-115162510D01*
X168878005Y-114908273D01*
X168725120Y-114679465D01*
X168530535Y-114484880D01*
X168301727Y-114331995D01*
X168230057Y-114302308D01*
X168243023Y-114297636D01*
X168358980Y-114235656D01*
X168376337Y-114173439D01*
X171435000Y-114173439D01*
X171435000Y-114426561D01*
X171484381Y-114674821D01*
X171581247Y-114908676D01*
X171721875Y-115119140D01*
X171900860Y-115298125D01*
X172111324Y-115438753D01*
X172345179Y-115535619D01*
X172520744Y-115570540D01*
X172393551Y-115590730D01*
X172156104Y-115678422D01*
X172067466Y-115725799D01*
X172014078Y-115954473D01*
X172720000Y-116660395D01*
X173425922Y-115954473D01*
X173372534Y-115725799D01*
X173142626Y-115619905D01*
X172928789Y-115568644D01*
X173094821Y-115535619D01*
X173328676Y-115438753D01*
X173539140Y-115298125D01*
X173718125Y-115119140D01*
X173858753Y-114908676D01*
X173955619Y-114674821D01*
X174005000Y-114426561D01*
X174005000Y-114173439D01*
X173955619Y-113925179D01*
X173858753Y-113691324D01*
X173718125Y-113480860D01*
X173539140Y-113301875D01*
X173328676Y-113161247D01*
X173094821Y-113064381D01*
X172846561Y-113015000D01*
X172593439Y-113015000D01*
X172345179Y-113064381D01*
X172111324Y-113161247D01*
X171900860Y-113301875D01*
X171721875Y-113480860D01*
X171581247Y-113691324D01*
X171484381Y-113925179D01*
X171435000Y-114173439D01*
X168376337Y-114173439D01*
X168425960Y-113995565D01*
X167640000Y-113209605D01*
X166854040Y-113995565D01*
X166921020Y-114235656D01*
X167056760Y-114299485D01*
X166978273Y-114331995D01*
X166749465Y-114484880D01*
X166554880Y-114679465D01*
X166401995Y-114908273D01*
X166296686Y-115162510D01*
X166243000Y-115432408D01*
X143637000Y-115432408D01*
X143583314Y-115162510D01*
X143478005Y-114908273D01*
X143325120Y-114679465D01*
X143130535Y-114484880D01*
X142901727Y-114331995D01*
X142830057Y-114302308D01*
X142843023Y-114297636D01*
X142958980Y-114235656D01*
X143025960Y-113995565D01*
X142240000Y-113209605D01*
X141454040Y-113995565D01*
X141521020Y-114235656D01*
X141656760Y-114299485D01*
X141578273Y-114331995D01*
X141349465Y-114484880D01*
X141154880Y-114679465D01*
X141097000Y-114766088D01*
X141097000Y-113766460D01*
X141274435Y-113815960D01*
X142060395Y-113030000D01*
X142419605Y-113030000D01*
X143205565Y-113815960D01*
X143445656Y-113748980D01*
X143562756Y-113499952D01*
X143629023Y-113232865D01*
X143635157Y-113102017D01*
X166238090Y-113102017D01*
X166279078Y-113374133D01*
X166372364Y-113633023D01*
X166434344Y-113748980D01*
X166674435Y-113815960D01*
X167460395Y-113030000D01*
X167819605Y-113030000D01*
X168605565Y-113815960D01*
X168845656Y-113748980D01*
X168962756Y-113499952D01*
X169029023Y-113232865D01*
X169041910Y-112957983D01*
X169000922Y-112685867D01*
X168907636Y-112426977D01*
X168845656Y-112311020D01*
X168605565Y-112244040D01*
X167819605Y-113030000D01*
X167460395Y-113030000D01*
X166674435Y-112244040D01*
X166434344Y-112311020D01*
X166317244Y-112560048D01*
X166250977Y-112827135D01*
X166238090Y-113102017D01*
X143635157Y-113102017D01*
X143641910Y-112957983D01*
X143600922Y-112685867D01*
X143507636Y-112426977D01*
X143445656Y-112311020D01*
X143205565Y-112244040D01*
X142419605Y-113030000D01*
X142060395Y-113030000D01*
X141274435Y-112244040D01*
X141097000Y-112293540D01*
X141097000Y-111293912D01*
X141154880Y-111380535D01*
X141349465Y-111575120D01*
X141578273Y-111728005D01*
X141649943Y-111757692D01*
X141636977Y-111762364D01*
X141521020Y-111824344D01*
X141454040Y-112064435D01*
X142240000Y-112850395D01*
X143025960Y-112064435D01*
X142958980Y-111824344D01*
X142823240Y-111760515D01*
X142901727Y-111728005D01*
X143130535Y-111575120D01*
X143325120Y-111380535D01*
X143478005Y-111151727D01*
X143583314Y-110897490D01*
X143637000Y-110627592D01*
X143637000Y-110352408D01*
X143583314Y-110082510D01*
X143478005Y-109828273D01*
X143325120Y-109599465D01*
X143130535Y-109404880D01*
X142901727Y-109251995D01*
X142824485Y-109220000D01*
X142901727Y-109188005D01*
X143130535Y-109035120D01*
X143325120Y-108840535D01*
X143478005Y-108611727D01*
X143583314Y-108357490D01*
X143637000Y-108087592D01*
X143637000Y-107812408D01*
X143583314Y-107542510D01*
X143478005Y-107288273D01*
X143325120Y-107059465D01*
X143130535Y-106864880D01*
X142901727Y-106711995D01*
X142824485Y-106680000D01*
X142901727Y-106648005D01*
X143130535Y-106495120D01*
X143325120Y-106300535D01*
X143478005Y-106071727D01*
X143583314Y-105817490D01*
X143637000Y-105547592D01*
X143637000Y-105272408D01*
X143583314Y-105002510D01*
X143478005Y-104748273D01*
X143325120Y-104519465D01*
X143130535Y-104324880D01*
X142901727Y-104171995D01*
X142824485Y-104140000D01*
X142901727Y-104108005D01*
X143130535Y-103955120D01*
X143325120Y-103760535D01*
X143478005Y-103531727D01*
X143583314Y-103277490D01*
X143637000Y-103007592D01*
X143637000Y-102732408D01*
X143583314Y-102462510D01*
X143478005Y-102208273D01*
X143325120Y-101979465D01*
X143130535Y-101784880D01*
X142901727Y-101631995D01*
X142824485Y-101600000D01*
X142901727Y-101568005D01*
X143130535Y-101415120D01*
X143325120Y-101220535D01*
X143478005Y-100991727D01*
X143583314Y-100737490D01*
X143637000Y-100467592D01*
X143637000Y-100192408D01*
X143583314Y-99922510D01*
X143478005Y-99668273D01*
X143325120Y-99439465D01*
X143130535Y-99244880D01*
X142901727Y-99091995D01*
X142824485Y-99060000D01*
X142901727Y-99028005D01*
X143130535Y-98875120D01*
X143325120Y-98680535D01*
X143478005Y-98451727D01*
X143583314Y-98197490D01*
X143637000Y-97927592D01*
X143637000Y-97652408D01*
X143583314Y-97382510D01*
X143478005Y-97128273D01*
X143325120Y-96899465D01*
X143130535Y-96704880D01*
X142901727Y-96551995D01*
X142824485Y-96520000D01*
X142901727Y-96488005D01*
X143130535Y-96335120D01*
X143325120Y-96140535D01*
X143478005Y-95911727D01*
X143583314Y-95657490D01*
X143637000Y-95387592D01*
X143637000Y-95112408D01*
X143583314Y-94842510D01*
X143478005Y-94588273D01*
X143325120Y-94359465D01*
X143130535Y-94164880D01*
X142901727Y-94011995D01*
X142824485Y-93980000D01*
X142901727Y-93948005D01*
X143130535Y-93795120D01*
X143325120Y-93600535D01*
X143478005Y-93371727D01*
X143583314Y-93117490D01*
X143637000Y-92847592D01*
X143637000Y-92572408D01*
X143583314Y-92302510D01*
X143478005Y-92048273D01*
X143325120Y-91819465D01*
X143130535Y-91624880D01*
X142901727Y-91471995D01*
X142824485Y-91440000D01*
X142901727Y-91408005D01*
X143130535Y-91255120D01*
X143325120Y-91060535D01*
X143478005Y-90831727D01*
X143583314Y-90577490D01*
X143637000Y-90307592D01*
X143637000Y-90032408D01*
X143583314Y-89762510D01*
X143478005Y-89508273D01*
X143325120Y-89279465D01*
X143130535Y-89084880D01*
X142901727Y-88931995D01*
X142824485Y-88900000D01*
X142901727Y-88868005D01*
X143130535Y-88715120D01*
X143325120Y-88520535D01*
X143478005Y-88291727D01*
X143583314Y-88037490D01*
X143637000Y-87767592D01*
X143637000Y-87492408D01*
X143583314Y-87222510D01*
X143478005Y-86968273D01*
X143325120Y-86739465D01*
X143130535Y-86544880D01*
X142901727Y-86391995D01*
X142824485Y-86360000D01*
X142901727Y-86328005D01*
X143130535Y-86175120D01*
X143325120Y-85980535D01*
X143478005Y-85751727D01*
X143583314Y-85497490D01*
X143637000Y-85227592D01*
X143637000Y-84952408D01*
X143583314Y-84682510D01*
X143478005Y-84428273D01*
X143325120Y-84199465D01*
X143130535Y-84004880D01*
X142901727Y-83851995D01*
X142824485Y-83820000D01*
X142901727Y-83788005D01*
X143130535Y-83635120D01*
X143325120Y-83440535D01*
X143478005Y-83211727D01*
X143583314Y-82957490D01*
X143637000Y-82687592D01*
X143637000Y-82412408D01*
X143583314Y-82142510D01*
X143478005Y-81888273D01*
X143325120Y-81659465D01*
X143130535Y-81464880D01*
X143042535Y-81406080D01*
X143126482Y-81397812D01*
X143246180Y-81361502D01*
X143356494Y-81302537D01*
X143453185Y-81223185D01*
X143532537Y-81126494D01*
X143591502Y-81016180D01*
X143627812Y-80896482D01*
X143640072Y-80772000D01*
X143640072Y-79872408D01*
X166243000Y-79872408D01*
X166243000Y-80147592D01*
X166296686Y-80417490D01*
X166401995Y-80671727D01*
X166554880Y-80900535D01*
X166749465Y-81095120D01*
X166978273Y-81248005D01*
X167055515Y-81280000D01*
X166978273Y-81311995D01*
X166749465Y-81464880D01*
X166554880Y-81659465D01*
X166401995Y-81888273D01*
X166296686Y-82142510D01*
X166243000Y-82412408D01*
X166243000Y-82687592D01*
X166296686Y-82957490D01*
X166401995Y-83211727D01*
X166554880Y-83440535D01*
X166749465Y-83635120D01*
X166978273Y-83788005D01*
X167055515Y-83820000D01*
X166978273Y-83851995D01*
X166749465Y-84004880D01*
X166554880Y-84199465D01*
X166401995Y-84428273D01*
X166296686Y-84682510D01*
X166243000Y-84952408D01*
X166243000Y-85227592D01*
X166296686Y-85497490D01*
X166401995Y-85751727D01*
X166554880Y-85980535D01*
X166749465Y-86175120D01*
X166978273Y-86328005D01*
X167055515Y-86360000D01*
X166978273Y-86391995D01*
X166749465Y-86544880D01*
X166554880Y-86739465D01*
X166401995Y-86968273D01*
X166296686Y-87222510D01*
X166243000Y-87492408D01*
X166243000Y-87767592D01*
X166296686Y-88037490D01*
X166401995Y-88291727D01*
X166554880Y-88520535D01*
X166749465Y-88715120D01*
X166978273Y-88868005D01*
X167055515Y-88900000D01*
X166978273Y-88931995D01*
X166749465Y-89084880D01*
X166554880Y-89279465D01*
X166401995Y-89508273D01*
X166296686Y-89762510D01*
X166243000Y-90032408D01*
X166243000Y-90307592D01*
X166296686Y-90577490D01*
X166401995Y-90831727D01*
X166554880Y-91060535D01*
X166749465Y-91255120D01*
X166978273Y-91408005D01*
X167055515Y-91440000D01*
X166978273Y-91471995D01*
X166749465Y-91624880D01*
X166554880Y-91819465D01*
X166401995Y-92048273D01*
X166296686Y-92302510D01*
X166243000Y-92572408D01*
X166243000Y-92847592D01*
X166296686Y-93117490D01*
X166401995Y-93371727D01*
X166554880Y-93600535D01*
X166749465Y-93795120D01*
X166978273Y-93948005D01*
X167055515Y-93980000D01*
X166978273Y-94011995D01*
X166749465Y-94164880D01*
X166554880Y-94359465D01*
X166401995Y-94588273D01*
X166296686Y-94842510D01*
X166243000Y-95112408D01*
X166243000Y-95387592D01*
X166296686Y-95657490D01*
X166401995Y-95911727D01*
X166554880Y-96140535D01*
X166749465Y-96335120D01*
X166978273Y-96488005D01*
X167055515Y-96520000D01*
X166978273Y-96551995D01*
X166749465Y-96704880D01*
X166554880Y-96899465D01*
X166401995Y-97128273D01*
X166296686Y-97382510D01*
X166243000Y-97652408D01*
X166243000Y-97927592D01*
X166296686Y-98197490D01*
X166401995Y-98451727D01*
X166554880Y-98680535D01*
X166749465Y-98875120D01*
X166978273Y-99028005D01*
X167055515Y-99060000D01*
X166978273Y-99091995D01*
X166749465Y-99244880D01*
X166554880Y-99439465D01*
X166401995Y-99668273D01*
X166296686Y-99922510D01*
X166243000Y-100192408D01*
X166243000Y-100467592D01*
X166296686Y-100737490D01*
X166401995Y-100991727D01*
X166554880Y-101220535D01*
X166749465Y-101415120D01*
X166978273Y-101568005D01*
X167055515Y-101600000D01*
X166978273Y-101631995D01*
X166749465Y-101784880D01*
X166554880Y-101979465D01*
X166401995Y-102208273D01*
X166296686Y-102462510D01*
X166243000Y-102732408D01*
X166243000Y-103007592D01*
X166296686Y-103277490D01*
X166401995Y-103531727D01*
X166554880Y-103760535D01*
X166749465Y-103955120D01*
X166978273Y-104108005D01*
X167055515Y-104140000D01*
X166978273Y-104171995D01*
X166749465Y-104324880D01*
X166554880Y-104519465D01*
X166401995Y-104748273D01*
X166296686Y-105002510D01*
X166243000Y-105272408D01*
X166243000Y-105547592D01*
X166296686Y-105817490D01*
X166401995Y-106071727D01*
X166554880Y-106300535D01*
X166749465Y-106495120D01*
X166978273Y-106648005D01*
X167055515Y-106680000D01*
X166978273Y-106711995D01*
X166749465Y-106864880D01*
X166554880Y-107059465D01*
X166401995Y-107288273D01*
X166296686Y-107542510D01*
X166243000Y-107812408D01*
X166243000Y-108087592D01*
X166296686Y-108357490D01*
X166401995Y-108611727D01*
X166554880Y-108840535D01*
X166749465Y-109035120D01*
X166978273Y-109188005D01*
X167055515Y-109220000D01*
X166978273Y-109251995D01*
X166749465Y-109404880D01*
X166554880Y-109599465D01*
X166401995Y-109828273D01*
X166296686Y-110082510D01*
X166243000Y-110352408D01*
X166243000Y-110627592D01*
X166296686Y-110897490D01*
X166401995Y-111151727D01*
X166554880Y-111380535D01*
X166749465Y-111575120D01*
X166978273Y-111728005D01*
X167049943Y-111757692D01*
X167036977Y-111762364D01*
X166921020Y-111824344D01*
X166854040Y-112064435D01*
X167640000Y-112850395D01*
X168425960Y-112064435D01*
X168358980Y-111824344D01*
X168223240Y-111760515D01*
X168301727Y-111728005D01*
X168530535Y-111575120D01*
X168725120Y-111380535D01*
X168878005Y-111151727D01*
X168983314Y-110897490D01*
X169037000Y-110627592D01*
X169037000Y-110352408D01*
X168983314Y-110082510D01*
X168878005Y-109828273D01*
X168725120Y-109599465D01*
X168530535Y-109404880D01*
X168301727Y-109251995D01*
X168224485Y-109220000D01*
X168301727Y-109188005D01*
X168530535Y-109035120D01*
X168725120Y-108840535D01*
X168878005Y-108611727D01*
X168983314Y-108357490D01*
X169037000Y-108087592D01*
X169037000Y-107812408D01*
X168983314Y-107542510D01*
X168878005Y-107288273D01*
X168725120Y-107059465D01*
X168530535Y-106864880D01*
X168301727Y-106711995D01*
X168224485Y-106680000D01*
X168301727Y-106648005D01*
X168530535Y-106495120D01*
X168725120Y-106300535D01*
X168878005Y-106071727D01*
X168983314Y-105817490D01*
X169037000Y-105547592D01*
X169037000Y-105341801D01*
X170784701Y-107089503D01*
X170784700Y-107912667D01*
X170781023Y-107950000D01*
X170795697Y-108098986D01*
X170839154Y-108242247D01*
X170909726Y-108374276D01*
X171004699Y-108490001D01*
X171120424Y-108584974D01*
X171252453Y-108655546D01*
X171395714Y-108699003D01*
X171437204Y-108703089D01*
X171566525Y-108896632D01*
X171773368Y-109103475D01*
X172016589Y-109265990D01*
X172286842Y-109377932D01*
X172573740Y-109435000D01*
X172866260Y-109435000D01*
X173153158Y-109377932D01*
X173423411Y-109265990D01*
X173666632Y-109103475D01*
X173873475Y-108896632D01*
X174035990Y-108653411D01*
X174147932Y-108383158D01*
X174205000Y-108096260D01*
X174205000Y-107803740D01*
X174147932Y-107516842D01*
X174035990Y-107246589D01*
X173873475Y-107003368D01*
X173666632Y-106796525D01*
X173492240Y-106680000D01*
X173666632Y-106563475D01*
X173873475Y-106356632D01*
X174035990Y-106113411D01*
X174147932Y-105843158D01*
X174205000Y-105556260D01*
X174205000Y-105263740D01*
X174147932Y-104976842D01*
X174035990Y-104706589D01*
X173873475Y-104463368D01*
X173666632Y-104256525D01*
X173492240Y-104140000D01*
X173666632Y-104023475D01*
X173873475Y-103816632D01*
X174035990Y-103573411D01*
X174147932Y-103303158D01*
X174205000Y-103016260D01*
X174205000Y-102723740D01*
X174147932Y-102436842D01*
X174035990Y-102166589D01*
X173873475Y-101923368D01*
X173741620Y-101791513D01*
X173814180Y-101769502D01*
X173924494Y-101710537D01*
X174021185Y-101631185D01*
X174100537Y-101534494D01*
X174159502Y-101424180D01*
X174195812Y-101304482D01*
X174208072Y-101180000D01*
X174208072Y-99480000D01*
X174195812Y-99355518D01*
X174159502Y-99235820D01*
X174100537Y-99125506D01*
X174021185Y-99028815D01*
X173924494Y-98949463D01*
X173814180Y-98890498D01*
X173694482Y-98854188D01*
X173570000Y-98841928D01*
X171870000Y-98841928D01*
X171745518Y-98854188D01*
X171625820Y-98890498D01*
X171515506Y-98949463D01*
X171418815Y-99028815D01*
X171339463Y-99125506D01*
X171280498Y-99235820D01*
X171244188Y-99355518D01*
X171231928Y-99480000D01*
X171231928Y-101180000D01*
X171244188Y-101304482D01*
X171280498Y-101424180D01*
X171339463Y-101534494D01*
X171418815Y-101631185D01*
X171515506Y-101710537D01*
X171625820Y-101769502D01*
X171698380Y-101791513D01*
X171566525Y-101923368D01*
X171404010Y-102166589D01*
X171292068Y-102436842D01*
X171235000Y-102723740D01*
X171235000Y-102850198D01*
X169006372Y-100621571D01*
X169037000Y-100467592D01*
X169037000Y-100192408D01*
X168983314Y-99922510D01*
X168878005Y-99668273D01*
X168725120Y-99439465D01*
X168530535Y-99244880D01*
X168301727Y-99091995D01*
X168224485Y-99060000D01*
X168301727Y-99028005D01*
X168530535Y-98875120D01*
X168725120Y-98680535D01*
X168878005Y-98451727D01*
X168983314Y-98197490D01*
X169037000Y-97927592D01*
X169037000Y-97652408D01*
X168983314Y-97382510D01*
X168878005Y-97128273D01*
X168725120Y-96899465D01*
X168530535Y-96704880D01*
X168301727Y-96551995D01*
X168224485Y-96520000D01*
X168301727Y-96488005D01*
X168530535Y-96335120D01*
X168725120Y-96140535D01*
X168878005Y-95911727D01*
X168983314Y-95657490D01*
X169037000Y-95387592D01*
X169037000Y-95112408D01*
X168983314Y-94842510D01*
X168878005Y-94588273D01*
X168725120Y-94359465D01*
X168530535Y-94164880D01*
X168301727Y-94011995D01*
X168224485Y-93980000D01*
X168301727Y-93948005D01*
X168530535Y-93795120D01*
X168725120Y-93600535D01*
X168878005Y-93371727D01*
X168983314Y-93117490D01*
X169037000Y-92847592D01*
X169037000Y-92572408D01*
X168983314Y-92302510D01*
X168878005Y-92048273D01*
X168725120Y-91819465D01*
X168530535Y-91624880D01*
X168301727Y-91471995D01*
X168224485Y-91440000D01*
X168301727Y-91408005D01*
X168530535Y-91255120D01*
X168725120Y-91060535D01*
X168878005Y-90831727D01*
X168983314Y-90577490D01*
X169037000Y-90307592D01*
X169037000Y-90032408D01*
X168983314Y-89762510D01*
X168878005Y-89508273D01*
X168725120Y-89279465D01*
X168530535Y-89084880D01*
X168301727Y-88931995D01*
X168224485Y-88900000D01*
X168301727Y-88868005D01*
X168530535Y-88715120D01*
X168725120Y-88520535D01*
X168878005Y-88291727D01*
X168983314Y-88037490D01*
X169037000Y-87767592D01*
X169037000Y-87492408D01*
X168983314Y-87222510D01*
X168878005Y-86968273D01*
X168725120Y-86739465D01*
X168530535Y-86544880D01*
X168301727Y-86391995D01*
X168224485Y-86360000D01*
X168301727Y-86328005D01*
X168530535Y-86175120D01*
X168725120Y-85980535D01*
X168878005Y-85751727D01*
X168983314Y-85497490D01*
X169037000Y-85227592D01*
X169037000Y-84952408D01*
X168983314Y-84682510D01*
X168878005Y-84428273D01*
X168725120Y-84199465D01*
X168530535Y-84004880D01*
X168301727Y-83851995D01*
X168224485Y-83820000D01*
X168301727Y-83788005D01*
X168530535Y-83635120D01*
X168725120Y-83440535D01*
X168812341Y-83310000D01*
X169959899Y-83310000D01*
X170980901Y-84331003D01*
X171004699Y-84360001D01*
X171120424Y-84454974D01*
X171252453Y-84525546D01*
X171395714Y-84569003D01*
X171437204Y-84573089D01*
X171566525Y-84766632D01*
X171773368Y-84973475D01*
X171947760Y-85090000D01*
X171773368Y-85206525D01*
X171566525Y-85413368D01*
X171404010Y-85656589D01*
X171292068Y-85926842D01*
X171235000Y-86213740D01*
X171235000Y-86506260D01*
X171292068Y-86793158D01*
X171404010Y-87063411D01*
X171566525Y-87306632D01*
X171773368Y-87513475D01*
X171947760Y-87630000D01*
X171773368Y-87746525D01*
X171566525Y-87953368D01*
X171404010Y-88196589D01*
X171292068Y-88466842D01*
X171235000Y-88753740D01*
X171235000Y-89046260D01*
X171292068Y-89333158D01*
X171404010Y-89603411D01*
X171566525Y-89846632D01*
X171773368Y-90053475D01*
X171947760Y-90170000D01*
X171773368Y-90286525D01*
X171566525Y-90493368D01*
X171404010Y-90736589D01*
X171292068Y-91006842D01*
X171235000Y-91293740D01*
X171235000Y-91586260D01*
X171292068Y-91873158D01*
X171404010Y-92143411D01*
X171566525Y-92386632D01*
X171773368Y-92593475D01*
X171947760Y-92710000D01*
X171773368Y-92826525D01*
X171566525Y-93033368D01*
X171404010Y-93276589D01*
X171292068Y-93546842D01*
X171235000Y-93833740D01*
X171235000Y-94126260D01*
X171292068Y-94413158D01*
X171404010Y-94683411D01*
X171566525Y-94926632D01*
X171773368Y-95133475D01*
X172016589Y-95295990D01*
X172286842Y-95407932D01*
X172573740Y-95465000D01*
X172866260Y-95465000D01*
X173153158Y-95407932D01*
X173423411Y-95295990D01*
X173666632Y-95133475D01*
X173873475Y-94926632D01*
X174035990Y-94683411D01*
X174147932Y-94413158D01*
X174205000Y-94126260D01*
X174205000Y-93833740D01*
X174147932Y-93546842D01*
X174035990Y-93276589D01*
X173873475Y-93033368D01*
X173666632Y-92826525D01*
X173492240Y-92710000D01*
X173666632Y-92593475D01*
X173873475Y-92386632D01*
X174035990Y-92143411D01*
X174147932Y-91873158D01*
X174205000Y-91586260D01*
X174205000Y-91293740D01*
X174147932Y-91006842D01*
X174035990Y-90736589D01*
X173873475Y-90493368D01*
X173666632Y-90286525D01*
X173492240Y-90170000D01*
X173666632Y-90053475D01*
X173873475Y-89846632D01*
X174035990Y-89603411D01*
X174147932Y-89333158D01*
X174205000Y-89046260D01*
X174205000Y-88753740D01*
X174147932Y-88466842D01*
X174035990Y-88196589D01*
X173873475Y-87953368D01*
X173666632Y-87746525D01*
X173492240Y-87630000D01*
X173666632Y-87513475D01*
X173873475Y-87306632D01*
X174035990Y-87063411D01*
X174147932Y-86793158D01*
X174205000Y-86506260D01*
X174205000Y-86213740D01*
X174147932Y-85926842D01*
X174035990Y-85656589D01*
X173873475Y-85413368D01*
X173666632Y-85206525D01*
X173492240Y-85090000D01*
X173666632Y-84973475D01*
X173873475Y-84766632D01*
X174035990Y-84523411D01*
X174147932Y-84253158D01*
X174205000Y-83966260D01*
X174205000Y-83673740D01*
X174147932Y-83386842D01*
X174035990Y-83116589D01*
X173873475Y-82873368D01*
X173666632Y-82666525D01*
X173492240Y-82550000D01*
X173666632Y-82433475D01*
X173873475Y-82226632D01*
X174035990Y-81983411D01*
X174147932Y-81713158D01*
X174205000Y-81426260D01*
X174205000Y-81133740D01*
X174147932Y-80846842D01*
X174035990Y-80576589D01*
X173873475Y-80333368D01*
X173666632Y-80126525D01*
X173484466Y-80004805D01*
X173601355Y-79935178D01*
X173817588Y-79740269D01*
X173991641Y-79506920D01*
X174116825Y-79244099D01*
X174161476Y-79096890D01*
X174040155Y-78867000D01*
X172847000Y-78867000D01*
X172847000Y-78887000D01*
X172593000Y-78887000D01*
X172593000Y-78867000D01*
X171399845Y-78867000D01*
X171278524Y-79096890D01*
X171323175Y-79244099D01*
X171448359Y-79506920D01*
X171622412Y-79740269D01*
X171838645Y-79935178D01*
X171955534Y-80004805D01*
X171773368Y-80126525D01*
X171566525Y-80333368D01*
X171404010Y-80576589D01*
X171292068Y-80846842D01*
X171235000Y-81133740D01*
X171235000Y-81426260D01*
X171292068Y-81713158D01*
X171404010Y-81983411D01*
X171566525Y-82226632D01*
X171773368Y-82433475D01*
X171947760Y-82550000D01*
X171773368Y-82666525D01*
X171619697Y-82820196D01*
X170838504Y-82039003D01*
X170814701Y-82009999D01*
X170698976Y-81915026D01*
X170566947Y-81844454D01*
X170423686Y-81800997D01*
X170312033Y-81790000D01*
X170312022Y-81790000D01*
X170274700Y-81786324D01*
X170237378Y-81790000D01*
X168812341Y-81790000D01*
X168725120Y-81659465D01*
X168530535Y-81464880D01*
X168301727Y-81311995D01*
X168224485Y-81280000D01*
X168301727Y-81248005D01*
X168530535Y-81095120D01*
X168725120Y-80900535D01*
X168878005Y-80671727D01*
X168983314Y-80417490D01*
X169037000Y-80147592D01*
X169037000Y-79872408D01*
X168983314Y-79602510D01*
X168878005Y-79348273D01*
X168725120Y-79119465D01*
X168530535Y-78924880D01*
X168301727Y-78771995D01*
X168047490Y-78666686D01*
X167777592Y-78613000D01*
X167502408Y-78613000D01*
X167232510Y-78666686D01*
X166978273Y-78771995D01*
X166749465Y-78924880D01*
X166554880Y-79119465D01*
X166401995Y-79348273D01*
X166296686Y-79602510D01*
X166243000Y-79872408D01*
X143640072Y-79872408D01*
X143640072Y-79248000D01*
X143627812Y-79123518D01*
X143591502Y-79003820D01*
X143532537Y-78893506D01*
X143453185Y-78796815D01*
X143356494Y-78717463D01*
X143246180Y-78658498D01*
X143126482Y-78622188D01*
X143002000Y-78609928D01*
X141478000Y-78609928D01*
X141353518Y-78622188D01*
X141233820Y-78658498D01*
X141123506Y-78717463D01*
X141097000Y-78739216D01*
X141097000Y-75350000D01*
X171231928Y-75350000D01*
X171231928Y-77050000D01*
X171244188Y-77174482D01*
X171280498Y-77294180D01*
X171339463Y-77404494D01*
X171418815Y-77501185D01*
X171515506Y-77580537D01*
X171625820Y-77639502D01*
X171706466Y-77663966D01*
X171622412Y-77739731D01*
X171448359Y-77973080D01*
X171323175Y-78235901D01*
X171278524Y-78383110D01*
X171399845Y-78613000D01*
X172593000Y-78613000D01*
X172593000Y-78593000D01*
X172847000Y-78593000D01*
X172847000Y-78613000D01*
X174040155Y-78613000D01*
X174161476Y-78383110D01*
X174116825Y-78235901D01*
X173991641Y-77973080D01*
X173817588Y-77739731D01*
X173733534Y-77663966D01*
X173814180Y-77639502D01*
X173924494Y-77580537D01*
X174021185Y-77501185D01*
X174100537Y-77404494D01*
X174159502Y-77294180D01*
X174195812Y-77174482D01*
X174208072Y-77050000D01*
X174208072Y-75350000D01*
X174195812Y-75225518D01*
X174159502Y-75105820D01*
X174100537Y-74995506D01*
X174021185Y-74898815D01*
X173924494Y-74819463D01*
X173814180Y-74760498D01*
X173694482Y-74724188D01*
X173570000Y-74711928D01*
X171870000Y-74711928D01*
X171745518Y-74724188D01*
X171625820Y-74760498D01*
X171515506Y-74819463D01*
X171418815Y-74898815D01*
X171339463Y-74995506D01*
X171280498Y-75105820D01*
X171244188Y-75225518D01*
X171231928Y-75350000D01*
X141097000Y-75350000D01*
X141097000Y-73787000D01*
X175133000Y-73787000D01*
X175133000Y-124333000D01*
G37*
%TD.AperFunction*%
%TD*%
M02*
